SplineFontDB: 3.2
FontName: AtkinsonSlashfree-Regular
FullName: Atkinson Slashfree Regular
FamilyName: Atkinson Slashfree
Weight: Regular
Copyright: (c) 2020 Braille Institute of America, Inc., a 501(c)(3) Charitable Organization.
Version: 1.0.0
ItalicAngle: 0
UnderlinePosition: -100
UnderlineWidth: 50
Ascent: 800
Descent: 200
InvalidEm: 0
sfntRevision: 0x00010000
LayerCount: 2
Layer: 0 1 "Back" 1
Layer: 1 1 "Fore" 0
XUID: [1021 801 -1858554247 5679]
StyleMap: 0x0040
FSType: 0
OS2Version: 3
OS2_WeightWidthSlopeOnly: 0
OS2_UseTypoMetrics: 0
CreationTime: 1546336848
ModificationTime: 1702590083
PfmFamily: 81
TTFWeight: 400
TTFWidth: 5
LineGap: 0
VLineGap: 0
Panose: 0 0 0 0 0 0 0 0 0 0
OS2TypoAscent: 796
OS2TypoAOffset: 0
OS2TypoDescent: -251
OS2TypoDOffset: 0
OS2TypoLinegap: 150
OS2WinAscent: 996
OS2WinAOffset: 0
OS2WinDescent: 411
OS2WinDOffset: 0
HheadAscent: 796
HheadAOffset: 0
HheadDescent: -251
HheadDOffset: 0
OS2SubXSize: 650
OS2SubYSize: 600
OS2SubXOff: 0
OS2SubYOff: 75
OS2SupXSize: 650
OS2SupYSize: 600
OS2SupXOff: 0
OS2SupYOff: 350
OS2StrikeYSize: 49
OS2StrikeYPos: 258
OS2CapHeight: 668
OS2XHeight: 496
OS2Vendor: '    '
OS2CodePages: 20000083.00000000
OS2UnicodeRanges: 00000027.00000000.00000000.00000000
Lookup: 1 0 0 "Single Substitution lookup 0" { "Single Substitution lookup 0 subtable"  } []
Lookup: 1 0 0 "'case' Case-Sensitive Forms lookup 1" { "'case' Case-Sensitive Forms lookup 1 subtable"  } ['case' ('DFLT' <'dflt' > 'grek' <'dflt' > 'latn' <'dflt' > ) ]
Lookup: 4 0 0 "'frac' Diagonal Fractions lookup 2" { "'frac' Diagonal Fractions lookup 2 subtable"  } ['frac' ('DFLT' <'dflt' > 'grek' <'dflt' > 'latn' <'dflt' > ) ]
Lookup: 6 0 0 "'ordn' Ordinals lookup 3" { "'ordn' Ordinals lookup 3 contextual 0"  "'ordn' Ordinals lookup 3 contextual 1"  } ['ordn' ('DFLT' <'dflt' > 'grek' <'dflt' > 'latn' <'dflt' > ) ]

StartChar: .notdef
Encoding: 65536 -1 0
Width: 527
GlyphClass: 1
Flags: W
LayerCount: 2
Fore
SplineSet
50 700 m 1,0,-1
 477 700 l 1,1,-1
 477 0 l 1,2,-1
 50 0 l 1,3,-1
 50 700 l 1,0,-1
449 680 m 1,4,-1
 78 680 l 1,5,-1
 263 371 l 1,6,-1
 449 680 l 1,4,-1
457 652 m 1,7,-1
 276 350 l 1,8,-1
 457 47 l 1,9,-1
 457 652 l 1,7,-1
251 350 m 1,10,-1
 71 650 l 1,11,-1
 71 49 l 1,12,-1
 251 350 l 1,10,-1
449 21 m 1,13,-1
 264 329 l 1,14,-1
 79 21 l 1,15,-1
 449 21 l 1,13,-1
EndSplineSet
Validated: 1
EndChar

StartChar: zero
Encoding: 48 48 4
Width: 648
GlyphClass: 1
Flags: W
LayerCount: 2
Back
SplineSet
151 335 m 5,13,14
 151 203 151 203 193 132.5 c 132,-1,15
 235 62 235 62 324 62 c 4,16,17
 393 62 393 62 435 107 c 5,18,-1
 171 486 l 5,19,20
 160 455 160 455 155.5 417.5 c 132,-1,21
 151 380 151 380 151 335 c 5,22,-1
 151 335 l 5,13,14
217 566 m 5,23,-1
 480 190 l 5,24,25
 497 250 497 250 497 335 c 4,26,27
 497 466 497 466 454.5 536 c 132,-1,28
 412 606 412 606 324 606 c 4,29,30
 259 606 259 606 217 566 c 5,31,-1
 217 566 l 5,23,-1
EndSplineSet
Fore
SplineSet
498 335 m 0,0,1
 498 606 498 606 325 606 c 0,2,3
 151 606.001818078 151 606.001818078 151 335 c 0,4,5
 151 62 151 62 324.5 62 c 152,-1,6
 498 62 498 62 498 335 c 0,0,1
60 335 m 1,7,8
 60 503 60 503 127 591.5 c 128,-1,9
 194 680 194 680 324 680 c 256,10,11
 454 680 454 680 521 591.5 c 128,-1,12
 588 503 588 503 588 335 c 0,13,14
 588 166 588 166 521 77 c 128,-1,15
 454 -12 454 -12 324 -12 c 256,16,17
 194 -12 194 -12 127 77 c 128,-1,18
 60 166 60 166 60 335 c 1,19,-1
 60 335 l 1,7,8
EndSplineSet
Validated: 37
Substitution2: "'tnum' Tabular Numbers lookup 6 subtable" zero.tf
EndChar

StartChar: one
Encoding: 49 49 5
Width: 402
GlyphClass: 1
Flags: W
LayerCount: 2
Fore
SplineSet
42 504 m 1,0,-1
 42 571 l 1,1,2
 78 571 78 571 110.5 574.5 c 128,-1,3
 143 578 143 578 170 588.5 c 128,-1,4
 197 599 197 599 217 618 c 128,-1,5
 237 637 237 637 248 668 c 1,6,-1
 304 668 l 1,7,-1
 304 0 l 1,8,-1
 220 0 l 1,9,-1
 220 504 l 1,10,-1
 42 504 l 1,11,-1
 42 504 l 1,0,-1
EndSplineSet
Validated: 5
Substitution2: "'tnum' Tabular Numbers lookup 6 subtable" one.tf
Substitution2: "'sups' Superscript lookup 5 subtable" uni00B9
EndChar

StartChar: two
Encoding: 50 50 6
Width: 549
GlyphClass: 1
Flags: W
LayerCount: 2
Fore
SplineSet
34 0 m 1,0,-1
 34 75 l 1,1,2
 123 140 123 140 192.5 197 c 128,-1,3
 262 254 262 254 310 305.5 c 128,-1,4
 358 357 358 357 383 403.5 c 128,-1,5
 408 450 408 450 408 494 c 0,6,7
 408 546 408 546 375.5 578 c 128,-1,8
 343 610 343 610 283 610 c 0,9,10
 259 610 259 610 236.5 604 c 128,-1,11
 214 598 214 598 195.5 584.5 c 128,-1,12
 177 571 177 571 163 549.5 c 128,-1,13
 149 528 149 528 143 498 c 1,14,-1
 59 522 l 1,15,16
 77 595 77 595 136.5 637.5 c 128,-1,17
 196 680 196 680 285 680 c 0,18,19
 331 680 331 680 370 668.5 c 128,-1,20
 409 657 409 657 437 634.5 c 128,-1,21
 465 612 465 612 481 579.5 c 128,-1,22
 497 547 497 547 497 505 c 0,23,24
 497 447 497 447 468.5 392 c 128,-1,25
 440 337 440 337 392 283.5 c 128,-1,26
 344 230 344 230 280.5 179 c 128,-1,27
 217 128 217 128 147 77 c 1,28,-1
 515 77 l 1,29,-1
 515 0 l 1,30,-1
 34 0 l 1,31,-1
 34 0 l 1,0,-1
EndSplineSet
Validated: 5
Substitution2: "'tnum' Tabular Numbers lookup 6 subtable" two.tf
Substitution2: "'sups' Superscript lookup 5 subtable" uni00B2
EndChar

StartChar: three
Encoding: 51 51 7
Width: 574
GlyphClass: 1
Flags: W
LayerCount: 2
Fore
SplineSet
42 151 m 1,0,-1
 125 175 l 1,1,2
 136 122 136 122 172.5 90 c 128,-1,3
 209 58 209 58 273 58 c 0,4,5
 339 58 339 58 381.5 91 c 128,-1,6
 424 124 424 124 424 187 c 0,7,8
 424 235 424 235 399.5 261 c 128,-1,9
 375 287 375 287 341 298.5 c 128,-1,10
 307 310 307 310 272.5 312 c 128,-1,11
 238 314 238 314 218 314 c 1,12,-1
 218 390 l 1,13,14
 246 390 246 390 279 392.5 c 128,-1,15
 312 395 312 395 340.5 406 c 128,-1,16
 369 417 369 417 388 439.5 c 128,-1,17
 407 462 407 462 407 501 c 0,18,19
 407 528 407 528 396.5 548.5 c 128,-1,20
 386 569 386 569 368.5 582.5 c 128,-1,21
 351 596 351 596 327.5 603 c 128,-1,22
 304 610 304 610 277 610 c 0,23,24
 215 610 215 610 179.5 579 c 128,-1,25
 144 548 144 548 134 498 c 1,26,-1
 52 522 l 1,27,28
 70 594 70 594 128 637 c 128,-1,29
 186 680 186 680 279 680 c 0,30,31
 323 680 323 680 362 671 c 128,-1,32
 401 662 401 662 430.5 641.5 c 128,-1,33
 460 621 460 621 477.5 589 c 128,-1,34
 495 557 495 557 495 510 c 0,35,36
 495 459 495 459 467 418 c 128,-1,37
 439 377 439 377 386 355 c 1,38,39
 424 343 424 343 448.5 325.5 c 128,-1,40
 473 308 473 308 487.5 286 c 128,-1,41
 502 264 502 264 508 239 c 128,-1,42
 514 214 514 214 514 188 c 0,43,44
 514 137 514 137 494 99.5 c 128,-1,45
 474 62 474 62 440.5 37.5 c 128,-1,46
 407 13 407 13 363.5 0.5 c 128,-1,47
 320 -12 320 -12 272 -12 c 0,48,49
 221 -12 221 -12 182 0.5 c 128,-1,50
 143 13 143 13 115 35 c 128,-1,51
 87 57 87 57 69 87 c 128,-1,52
 51 117 51 117 42 151 c 1,53,-1
 42 151 l 1,0,-1
EndSplineSet
Validated: 5
Substitution2: "'tnum' Tabular Numbers lookup 6 subtable" three.tf
Substitution2: "'sups' Superscript lookup 5 subtable" uni00B3
EndChar

StartChar: four
Encoding: 52 52 8
Width: 614
GlyphClass: 1
Flags: W
LayerCount: 2
Fore
SplineSet
38 244 m 1,0,-1
 369 668 l 1,1,-1
 454 668 l 1,2,-1
 454 244 l 1,3,-1
 576 244 l 1,4,-1
 576 165 l 1,5,-1
 454 165 l 1,6,-1
 454 0 l 1,7,-1
 370 0 l 1,8,-1
 370 165 l 1,9,-1
 38 165 l 1,10,-1
 38 244 l 1,0,-1
370 244 m 1,11,-1
 370 553 l 1,12,-1
 129 244 l 1,13,-1
 370 244 l 1,11,-1
EndSplineSet
Validated: 1
Substitution2: "'tnum' Tabular Numbers lookup 6 subtable" four.tf
EndChar

StartChar: five
Encoding: 53 53 9
Width: 583
GlyphClass: 1
Flags: W
LayerCount: 2
Fore
SplineSet
54 151 m 1,0,-1
 136 175 l 1,1,2
 148 120 148 120 183 89 c 128,-1,3
 218 58 218 58 284 58 c 0,4,5
 314 58 314 58 341 68.5 c 128,-1,6
 368 79 368 79 388.5 99.5 c 128,-1,7
 409 120 409 120 421 150 c 128,-1,8
 433 180 433 180 433 219 c 0,9,10
 433 261 433 261 419.5 291 c 128,-1,11
 406 321 406 321 385 340.5 c 128,-1,12
 364 360 364 360 337 369 c 128,-1,13
 310 378 310 378 283 378 c 0,14,15
 257 378 257 378 235.5 371 c 128,-1,16
 214 364 214 364 197.5 353.5 c 128,-1,17
 181 343 181 343 170 329.5 c 128,-1,18
 159 316 159 316 154 304 c 1,19,-1
 72 328 l 1,20,-1
 113 668 l 1,21,-1
 496 668 l 1,22,-1
 496 587 l 1,23,-1
 181 587 l 1,24,-1
 158 400 l 1,25,26
 184 426 184 426 222 438 c 128,-1,27
 260 450 260 450 302 450 c 0,28,29
 346 450 346 450 385.5 434.5 c 128,-1,30
 425 419 425 419 455 390 c 128,-1,31
 485 361 485 361 503 318 c 128,-1,32
 521 275 521 275 521 220 c 0,33,34
 521 163 521 163 501.5 119.5 c 128,-1,35
 482 76 482 76 449 46.5 c 128,-1,36
 416 17 416 17 373.5 2.5 c 128,-1,37
 331 -12 331 -12 284 -12 c 0,38,39
 233 -12 233 -12 194.5 1 c 128,-1,40
 156 14 156 14 128 36 c 128,-1,41
 100 58 100 58 81.5 87.5 c 128,-1,42
 63 117 63 117 54 151 c 1,43,-1
 54 151 l 1,0,-1
EndSplineSet
Validated: 5
Substitution2: "'tnum' Tabular Numbers lookup 6 subtable" five.tf
EndChar

StartChar: six
Encoding: 54 54 10
Width: 598
GlyphClass: 1
Flags: W
LayerCount: 2
Fore
SplineSet
60 310 m 1,0,1
 60 381 60 381 73.5 447.5 c 128,-1,2
 87 514 87 514 118 566 c 128,-1,3
 149 618 149 618 198.5 649 c 128,-1,4
 248 680 248 680 321 680 c 0,5,6
 396 680 396 680 441.5 649 c 128,-1,7
 487 618 487 618 509 573 c 1,8,-1
 424 548 l 1,9,10
 409 577 409 577 380 593.5 c 128,-1,11
 351 610 351 610 311 610 c 0,12,13
 272 610 272 610 242 591.5 c 128,-1,14
 212 573 212 573 191.5 539 c 128,-1,15
 171 505 171 505 160 457.5 c 128,-1,16
 149 410 149 410 147 352 c 1,17,18
 170 391 170 391 213 418 c 128,-1,19
 256 445 256 445 323 445 c 0,20,21
 370 445 370 445 409 428.5 c 128,-1,22
 448 412 448 412 477 382 c 128,-1,23
 506 352 506 352 522 310 c 128,-1,24
 538 268 538 268 538 218 c 0,25,26
 538 172 538 172 521.5 130 c 128,-1,27
 505 88 505 88 474 56.5 c 128,-1,28
 443 25 443 25 400 6.5 c 128,-1,29
 357 -12 357 -12 303 -12 c 0,30,31
 177 -12 177 -12 118.5 71.5 c 128,-1,32
 60 155 60 155 60 310 c 1,33,-1
 60 310 l 1,0,1
303 59 m 1,34,35
 369 59 369 59 408.5 102.5 c 128,-1,36
 448 146 448 146 448 215 c 256,37,38
 448 284 448 284 408.5 327.5 c 128,-1,39
 369 371 369 371 303 371 c 0,40,41
 236 371 236 371 196.5 327.5 c 128,-1,42
 157 284 157 284 157 215 c 256,43,44
 157 146 157 146 196.5 102.5 c 128,-1,45
 236 59 236 59 303 59 c 1,46,-1
 303 59 l 1,34,35
EndSplineSet
Validated: 5
Substitution2: "'tnum' Tabular Numbers lookup 6 subtable" six.tf
EndChar

StartChar: seven
Encoding: 55 55 11
Width: 510
GlyphClass: 1
Flags: W
LayerCount: 2
Fore
SplineSet
383 587 m 1,0,-1
 15 587 l 1,1,-1
 15 668 l 1,2,-1
 476 668 l 1,3,-1
 476 587 l 1,4,-1
 198 0 l 1,5,-1
 93 0 l 1,6,-1
 383 587 l 1,0,-1
EndSplineSet
Validated: 1
Substitution2: "'tnum' Tabular Numbers lookup 6 subtable" seven.tf
EndChar

StartChar: eight
Encoding: 56 56 12
Width: 615
GlyphClass: 1
Flags: W
LayerCount: 2
Fore
SplineSet
60 188 m 1,0,1
 60 253 60 253 93.5 298 c 128,-1,2
 127 343 127 343 183 366 c 1,3,4
 157 391 157 391 141.5 425 c 128,-1,5
 126 459 126 459 126 499 c 0,6,7
 126 537 126 537 140 569.5 c 128,-1,8
 154 602 154 602 179 627 c 128,-1,9
 204 652 204 652 237 666 c 128,-1,10
 270 680 270 680 307 680 c 0,11,12
 345 680 345 680 378 666 c 128,-1,13
 411 652 411 652 436 627 c 128,-1,14
 461 602 461 602 475 569.5 c 128,-1,15
 489 537 489 537 489 499 c 0,16,17
 489 459 489 459 473.5 425 c 128,-1,18
 458 391 458 391 432 366 c 1,19,20
 488 343 488 343 521.5 298 c 128,-1,21
 555 253 555 253 555 188 c 0,22,23
 555 140 555 140 536 103 c 128,-1,24
 517 66 517 66 483.5 40.5 c 128,-1,25
 450 15 450 15 405 1.5 c 128,-1,26
 360 -12 360 -12 307 -12 c 0,27,28
 255 -12 255 -12 210 1.5 c 128,-1,29
 165 15 165 15 131.5 40.5 c 128,-1,30
 98 66 98 66 79 103 c 128,-1,31
 60 140 60 140 60 188 c 1,32,-1
 60 188 l 1,0,1
151 188 m 1,33,34
 151 129 151 129 193 95.5 c 128,-1,35
 235 62 235 62 307 62 c 256,36,37
 379 62 379 62 421.5 95.5 c 128,-1,38
 464 129 464 129 464 188 c 256,39,40
 464 247 464 247 421.5 282 c 128,-1,41
 379 317 379 317 307 317 c 256,42,43
 235 317 235 317 193 282 c 128,-1,44
 151 247 151 247 151 188 c 1,45,-1
 151 188 l 1,33,34
307 391 m 1,46,47
 329 391 329 391 348.5 399.5 c 128,-1,48
 368 408 368 408 382.5 422.5 c 128,-1,49
 397 437 397 437 405.5 457 c 128,-1,50
 414 477 414 477 414 500 c 0,51,52
 414 522 414 522 405.5 541.5 c 128,-1,53
 397 561 397 561 382.5 575 c 128,-1,54
 368 589 368 589 348.5 597.5 c 128,-1,55
 329 606 329 606 307 606 c 256,56,57
 285 606 285 606 265.5 597.5 c 128,-1,58
 246 589 246 589 231.5 575 c 128,-1,59
 217 561 217 561 208.5 541.5 c 128,-1,60
 200 522 200 522 200 500 c 0,61,62
 200 477 200 477 208.5 457 c 128,-1,63
 217 437 217 437 231.5 422.5 c 128,-1,64
 246 408 246 408 265.5 399.5 c 128,-1,65
 285 391 285 391 307 391 c 1,66,-1
 307 391 l 1,46,47
EndSplineSet
Validated: 5
Substitution2: "'tnum' Tabular Numbers lookup 6 subtable" eight.tf
EndChar

StartChar: nine
Encoding: 57 57 13
Width: 598
GlyphClass: 1
Flags: W
LayerCount: 2
Fore
SplineSet
60 441 m 1,0,1
 60 490 60 490 78.5 533.5 c 128,-1,2
 97 577 97 577 129.5 609 c 128,-1,3
 162 641 162 641 205.5 660 c 128,-1,4
 249 679 249 679 299 679 c 256,5,6
 349 679 349 679 392.5 660.5 c 128,-1,7
 436 642 436 642 468.5 609.5 c 128,-1,8
 501 577 501 577 519.5 533.5 c 128,-1,9
 538 490 538 490 538 439 c 0,10,11
 538 393 538 393 520 348 c 0,12,13
 515 336 515 336 497 301 c 128,-1,14
 479 266 479 266 452 218 c 128,-1,15
 425 170 425 170 390 113 c 128,-1,16
 355 56 355 56 317 0 c 1,17,-1
 213 0 l 1,18,19
 237 34 237 34 262 69 c 0,20,21
 283 100 283 100 307.5 136.5 c 128,-1,22
 332 173 332 173 352 207 c 1,23,24
 327 201 327 201 299 201 c 0,25,26
 250 201 250 201 206.5 220 c 128,-1,27
 163 239 163 239 130.5 271.5 c 128,-1,28
 98 304 98 304 79 347.5 c 128,-1,29
 60 391 60 391 60 441 c 1,30,-1
 60 441 l 1,0,1
299 287 m 1,31,32
 331 287 331 287 359.5 299 c 128,-1,33
 388 311 388 311 409 332 c 128,-1,34
 430 353 430 353 442 381 c 128,-1,35
 454 409 454 409 454 441 c 256,36,37
 454 473 454 473 442 500.5 c 128,-1,38
 430 528 430 528 409 549 c 128,-1,39
 388 570 388 570 359.5 582 c 128,-1,40
 331 594 331 594 299 594 c 256,41,42
 267 594 267 594 239 582 c 128,-1,43
 211 570 211 570 190.5 549 c 128,-1,44
 170 528 170 528 158 500.5 c 128,-1,45
 146 473 146 473 146 441 c 256,46,47
 146 409 146 409 158 381 c 128,-1,48
 170 353 170 353 190.5 332 c 128,-1,49
 211 311 211 311 239 299 c 128,-1,50
 267 287 267 287 299 287 c 1,51,-1
 299 287 l 1,31,32
EndSplineSet
Validated: 5
Substitution2: "'tnum' Tabular Numbers lookup 6 subtable" nine.tf
EndChar

StartChar: A
Encoding: 65 65 14
Width: 626
GlyphClass: 1
Flags: W
LayerCount: 2
Fore
SplineSet
261 669 m 1,0,-1
 366 669 l 1,1,-1
 616 0 l 1,2,-1
 516 0 l 1,3,-1
 465 146 l 1,4,-1
 161 146 l 1,5,-1
 110 0 l 1,6,-1
 10 0 l 1,7,-1
 261 669 l 1,0,-1
190 227 m 1,8,-1
 436 227 l 1,9,-1
 313 574 l 1,10,-1
 190 227 l 1,8,-1
EndSplineSet
Validated: 1
Substitution2: "Single Substitution lookup 0 subtable" ordfeminine
EndChar

StartChar: B
Encoding: 66 66 15
Width: 619
GlyphClass: 1
Flags: W
LayerCount: 2
Fore
SplineSet
76 668 m 1,0,-1
 345 668 l 2,1,2
 399 668 399 668 438.5 654 c 128,-1,3
 478 640 478 640 503 617 c 128,-1,4
 528 594 528 594 540 564 c 128,-1,5
 552 534 552 534 552 502 c 0,6,7
 552 462 552 462 534 423 c 128,-1,8
 516 384 516 384 482 355 c 1,9,10
 532 329 532 329 556.5 284.5 c 128,-1,11
 581 240 581 240 581 192 c 0,12,13
 581 156 581 156 567 121.5 c 128,-1,14
 553 87 553 87 525.5 60 c 128,-1,15
 498 33 498 33 457 16.5 c 128,-1,16
 416 0 416 0 361 0 c 2,17,-1
 76 0 l 1,18,-1
 76 668 l 1,19,-1
 76 668 l 1,0,-1
170 308 m 1,20,-1
 170 79 l 1,21,-1
 371 79 l 2,22,23
 399 79 399 79 420 89 c 128,-1,24
 441 99 441 99 455.5 115.5 c 128,-1,25
 470 132 470 132 477 152.5 c 128,-1,26
 484 173 484 173 484 195 c 0,27,28
 484 216 484 216 477 236.5 c 128,-1,29
 470 257 470 257 455.5 273 c 128,-1,30
 441 289 441 289 420 298.5 c 128,-1,31
 399 308 399 308 370 308 c 2,32,-1
 170 308 l 1,33,-1
 170 308 l 1,20,-1
170 589 m 1,34,-1
 170 382 l 1,35,-1
 355 382 l 2,36,37
 381 382 381 382 400 391 c 128,-1,38
 419 400 419 400 431.5 414 c 128,-1,39
 444 428 444 428 450.5 446.5 c 128,-1,40
 457 465 457 465 457 484 c 0,41,42
 457 504 457 504 450.5 522.5 c 128,-1,43
 444 541 444 541 431 556 c 128,-1,44
 418 571 418 571 399 580 c 128,-1,45
 380 589 380 589 355 589 c 2,46,-1
 170 589 l 1,47,-1
 170 589 l 1,34,-1
EndSplineSet
Validated: 5
EndChar

StartChar: C
Encoding: 67 67 16
Width: 656
GlyphClass: 1
Flags: W
LayerCount: 2
Fore
SplineSet
361 680 m 1,0,1
 446 680 446 680 512.5 641 c 128,-1,2
 579 602 579 602 614 529 c 1,3,-1
 532 499 l 1,4,5
 509 544 509 544 465.5 572.5 c 128,-1,6
 422 601 422 601 356 601 c 0,7,8
 312 601 312 601 273.5 584 c 128,-1,9
 235 567 235 567 206.5 533.5 c 128,-1,10
 178 500 178 500 162 450 c 128,-1,11
 146 400 146 400 146 335 c 0,12,13
 146 272 146 272 161.5 222.5 c 128,-1,14
 177 173 177 173 205.5 138.5 c 128,-1,15
 234 104 234 104 273 85.5 c 128,-1,16
 312 67 312 67 359 67 c 0,17,18
 425 67 425 67 469 95 c 128,-1,19
 513 123 513 123 536 169 c 1,20,-1
 618 139 l 1,21,22
 582 64 582 64 512 26 c 128,-1,23
 442 -12 442 -12 353 -12 c 0,24,25
 281 -12 281 -12 225 13.5 c 128,-1,26
 169 39 169 39 130 85 c 128,-1,27
 91 131 91 131 70.5 195 c 128,-1,28
 50 259 50 259 50 335 c 0,29,30
 50 413 50 413 72 476.5 c 128,-1,31
 94 540 94 540 134.5 585.5 c 128,-1,32
 175 631 175 631 232.5 655.5 c 128,-1,33
 290 680 290 680 361 680 c 1,34,-1
 361 680 l 1,0,1
EndSplineSet
Validated: 1
EndChar

StartChar: D
Encoding: 68 68 17
Width: 673
GlyphClass: 1
Flags: W
LayerCount: 2
Fore
SplineSet
76 668 m 1,0,-1
 258 668 l 2,1,2
 338 668 338 668 404.5 651.5 c 128,-1,3
 471 635 471 635 520 596.5 c 128,-1,4
 569 558 569 558 596 494 c 128,-1,5
 623 430 623 430 623 335 c 0,6,7
 623 239 623 239 596 174.5 c 128,-1,8
 569 110 569 110 520 71.5 c 128,-1,9
 471 33 471 33 404.5 16.5 c 128,-1,10
 338 0 338 0 258 0 c 2,11,-1
 76 0 l 1,12,-1
 76 668 l 1,13,-1
 76 668 l 1,0,-1
170 589 m 1,14,-1
 170 79 l 1,15,-1
 256 79 l 2,16,17
 308 79 308 79 356.5 87 c 128,-1,18
 405 95 405 95 443 121.5 c 128,-1,19
 481 148 481 148 504 199 c 128,-1,20
 527 250 527 250 527 335 c 256,21,22
 527 420 527 420 504 470 c 128,-1,23
 481 520 481 520 443 546.5 c 128,-1,24
 405 573 405 573 356.5 581 c 128,-1,25
 308 589 308 589 256 589 c 2,26,-1
 170 589 l 1,27,-1
 170 589 l 1,14,-1
EndSplineSet
Validated: 5
EndChar

StartChar: E
Encoding: 69 69 18
Width: 567
GlyphClass: 1
Flags: W
LayerCount: 2
Fore
SplineSet
76 0 m 1,0,-1
 76 668 l 1,1,-1
 529 668 l 1,2,-1
 529 587 l 1,3,-1
 170 587 l 1,4,-1
 170 384 l 1,5,-1
 435 384 l 1,6,-1
 435 303 l 1,7,-1
 170 303 l 1,8,-1
 170 81 l 1,9,-1
 529 81 l 1,10,-1
 529 0 l 1,11,-1
 76 0 l 1,0,-1
EndSplineSet
Validated: 1
EndChar

StartChar: F
Encoding: 70 70 19
Width: 548
GlyphClass: 1
Flags: W
LayerCount: 2
Fore
SplineSet
76 0 m 1,0,-1
 76 668 l 1,1,-1
 510 668 l 1,2,-1
 510 587 l 1,3,-1
 170 587 l 1,4,-1
 170 384 l 1,5,-1
 510 384 l 1,6,-1
 510 303 l 1,7,-1
 170 303 l 1,8,-1
 170 0 l 1,9,-1
 76 0 l 1,0,-1
EndSplineSet
Validated: 1
EndChar

StartChar: G
Encoding: 71 71 20
Width: 710
GlyphClass: 1
Flags: W
LayerCount: 2
Fore
SplineSet
361 680 m 1,0,1
 445 680 445 680 512.5 641 c 128,-1,2
 580 602 580 602 615 529 c 1,3,-1
 532 499 l 1,4,5
 509 544 509 544 465.5 572.5 c 128,-1,6
 422 601 422 601 356 601 c 0,7,8
 312 601 312 601 273.5 584 c 128,-1,9
 235 567 235 567 206.5 533.5 c 128,-1,10
 178 500 178 500 162 450 c 128,-1,11
 146 400 146 400 146 335 c 0,12,13
 146 272 146 272 161.5 222.5 c 128,-1,14
 177 173 177 173 204.5 138.5 c 128,-1,15
 232 104 232 104 271 85.5 c 128,-1,16
 310 67 310 67 356 67 c 0,17,18
 389 67 389 67 424 75 c 128,-1,19
 459 83 459 83 487.5 103 c 128,-1,20
 516 123 516 123 534.5 156.5 c 128,-1,21
 553 190 553 190 553 242 c 2,22,-1
 553 264 l 1,23,-1
 358 264 l 1,24,-1
 358 345 l 1,25,-1
 642 345 l 1,26,-1
 642 0 l 1,27,-1
 588 0 l 1,28,-1
 563 84 l 1,29,30
 531 33 531 33 475.5 10.5 c 128,-1,31
 420 -12 420 -12 352 -12 c 0,32,33
 280 -12 280 -12 224 13.5 c 128,-1,34
 168 39 168 39 129 85 c 128,-1,35
 90 131 90 131 70 195 c 128,-1,36
 50 259 50 259 50 335 c 0,37,38
 50 413 50 413 72 476.5 c 128,-1,39
 94 540 94 540 134.5 585.5 c 128,-1,40
 175 631 175 631 232.5 655.5 c 128,-1,41
 290 680 290 680 361 680 c 1,42,-1
 361 680 l 1,0,1
EndSplineSet
Validated: 1
EndChar

StartChar: H
Encoding: 72 72 21
Width: 690
GlyphClass: 1
Flags: W
LayerCount: 2
Fore
SplineSet
76 0 m 1,0,-1
 76 668 l 1,1,-1
 170 668 l 1,2,-1
 170 384 l 1,3,-1
 520 384 l 1,4,-1
 520 668 l 1,5,-1
 614 668 l 1,6,-1
 614 0 l 1,7,-1
 520 0 l 1,8,-1
 520 303 l 1,9,-1
 170 303 l 1,10,-1
 170 0 l 1,11,-1
 76 0 l 1,0,-1
EndSplineSet
Validated: 1
EndChar

StartChar: I
Encoding: 73 73 22
Width: 414
GlyphClass: 1
Flags: W
LayerCount: 2
Fore
SplineSet
66 594 m 1,0,-1
 66 668 l 1,1,-1
 348 668 l 1,2,-1
 348 594 l 1,3,-1
 254 594 l 1,4,-1
 254 74 l 1,5,-1
 348 74 l 1,6,-1
 348 0 l 1,7,-1
 66 0 l 1,8,-1
 66 74 l 1,9,-1
 160 74 l 1,10,-1
 160 594 l 1,11,-1
 66 594 l 1,0,-1
EndSplineSet
Validated: 1
EndChar

StartChar: J
Encoding: 74 74 23
Width: 510
GlyphClass: 1
Flags: W
LayerCount: 2
Fore
SplineSet
102 214 m 1,0,1
 101 176 101 176 110.5 148 c 128,-1,2
 120 120 120 120 137 101.5 c 128,-1,3
 154 83 154 83 176.5 74 c 128,-1,4
 199 65 199 65 224 65 c 0,5,6
 244 65 244 65 265 71 c 128,-1,7
 286 77 286 77 302.5 93.5 c 128,-1,8
 319 110 319 110 329.5 139 c 128,-1,9
 340 168 340 168 340 213 c 2,10,-1
 340 668 l 1,11,-1
 434 668 l 1,12,-1
 434 212 l 2,13,14
 434 102 434 102 378.5 45 c 128,-1,15
 323 -12 323 -12 224 -12 c 0,16,17
 130 -12 130 -12 75 38.5 c 128,-1,18
 20 89 20 89 15 189 c 1,19,-1
 102 214 l 1,20,-1
 102 214 l 1,0,1
EndSplineSet
Validated: 37
EndChar

StartChar: K
Encoding: 75 75 24
Width: 627
GlyphClass: 1
Flags: W
LayerCount: 2
Fore
SplineSet
76 0 m 1,0,-1
 76 668 l 1,1,-1
 170 668 l 1,2,-1
 170 332 l 1,3,-1
 471 668 l 1,4,-1
 588 668 l 1,5,-1
 333 389 l 1,6,-1
 617 0 l 1,7,-1
 502 0 l 1,8,-1
 270 320 l 1,9,-1
 170 210 l 1,10,-1
 170 0 l 1,11,-1
 76 0 l 1,0,-1
EndSplineSet
Validated: 1
EndChar

StartChar: L
Encoding: 76 76 25
Width: 539
GlyphClass: 1
Flags: W
LayerCount: 2
Fore
SplineSet
76 668 m 1,0,-1
 170 668 l 1,1,-1
 170 81 l 1,2,-1
 529 81 l 1,3,-1
 529 0 l 1,4,-1
 76 0 l 1,5,-1
 76 668 l 1,0,-1
EndSplineSet
Validated: 1
EndChar

StartChar: M
Encoding: 77 77 26
Width: 820
GlyphClass: 1
Flags: W
LayerCount: 2
Fore
SplineSet
76 0 m 1,0,-1
 76 668 l 1,1,-1
 232 668 l 1,2,-1
 410 122 l 1,3,-1
 588 668 l 1,4,-1
 744 668 l 1,5,-1
 744 0 l 1,6,-1
 650 0 l 1,7,-1
 650 570 l 1,8,-1
 457 0 l 1,9,-1
 364 0 l 1,10,-1
 170 570 l 1,11,-1
 170 0 l 1,12,-1
 76 0 l 1,0,-1
EndSplineSet
Validated: 1
EndChar

StartChar: N
Encoding: 78 78 27
Width: 689
GlyphClass: 1
Flags: W
LayerCount: 2
Fore
SplineSet
76 0 m 1,0,-1
 76 668 l 1,1,-1
 215 668 l 1,2,-1
 519 100 l 1,3,-1
 519 668 l 1,4,-1
 613 668 l 1,5,-1
 613 0 l 1,6,-1
 475 0 l 1,7,-1
 170 571 l 1,8,-1
 170 0 l 1,9,-1
 76 0 l 1,0,-1
EndSplineSet
Validated: 1
EndChar

StartChar: O
Encoding: 79 79 28
Width: 727
GlyphClass: 1
Flags: W
LayerCount: 2
Fore
SplineSet
50 335 m 1,0,1
 50 410 50 410 72 473.5 c 128,-1,2
 94 537 94 537 134.5 583 c 128,-1,3
 175 629 175 629 233 654.5 c 128,-1,4
 291 680 291 680 363 680 c 256,5,6
 435 680 435 680 493.5 654.5 c 128,-1,7
 552 629 552 629 592.5 583 c 128,-1,8
 633 537 633 537 655 473.5 c 128,-1,9
 677 410 677 410 677 335 c 0,10,11
 677 259 677 259 655 195.5 c 128,-1,12
 633 132 633 132 592.5 86 c 128,-1,13
 552 40 552 40 493.5 14 c 128,-1,14
 435 -12 435 -12 363 -12 c 256,15,16
 291 -12 291 -12 233 14 c 128,-1,17
 175 40 175 40 134.5 86 c 128,-1,18
 94 132 94 132 72 195.5 c 128,-1,19
 50 259 50 259 50 335 c 1,20,-1
 50 335 l 1,0,1
146 335 m 1,21,22
 146 270 146 270 163 220 c 128,-1,23
 180 170 180 170 209 136 c 128,-1,24
 238 102 238 102 278 84.5 c 128,-1,25
 318 67 318 67 363 67 c 0,26,27
 409 67 409 67 448.5 84.5 c 128,-1,28
 488 102 488 102 517.5 136 c 128,-1,29
 547 170 547 170 564 220 c 128,-1,30
 581 270 581 270 581 335 c 256,31,32
 581 400 581 400 564 449.5 c 128,-1,33
 547 499 547 499 517.5 532.5 c 128,-1,34
 488 566 488 566 448.5 583.5 c 128,-1,35
 409 601 409 601 363 601 c 0,36,37
 318 601 318 601 278 583.5 c 128,-1,38
 238 566 238 566 209 532.5 c 128,-1,39
 180 499 180 499 163 449.5 c 128,-1,40
 146 400 146 400 146 335 c 1,41,-1
 146 335 l 1,21,22
EndSplineSet
Validated: 5
Substitution2: "Single Substitution lookup 0 subtable" ordmasculine
EndChar

StartChar: P
Encoding: 80 80 29
Width: 601
GlyphClass: 1
Flags: W
LayerCount: 2
Fore
SplineSet
76 668 m 1,0,-1
 285 668 l 2,1,2
 346 668 346 668 397 659.5 c 128,-1,3
 448 651 448 651 485 628.5 c 128,-1,4
 522 606 522 606 542.5 567 c 128,-1,5
 563 528 563 528 563 466 c 256,6,7
 563 404 563 404 542.5 365 c 128,-1,8
 522 326 522 326 485 304 c 128,-1,9
 448 282 448 282 397 274 c 128,-1,10
 346 266 346 266 285 266 c 2,11,-1
 170 266 l 1,12,-1
 170 1 l 1,13,-1
 76 1 l 1,14,-1
 76 668 l 1,15,-1
 76 668 l 1,0,-1
170 589 m 1,16,-1
 170 347 l 1,17,-1
 293 347 l 2,18,19
 329 347 329 347 361 350.5 c 128,-1,20
 393 354 393 354 416.5 366 c 128,-1,21
 440 378 440 378 453.5 401.5 c 128,-1,22
 467 425 467 425 467 466 c 256,23,24
 467 507 467 507 453.5 531.5 c 128,-1,25
 440 556 440 556 416.5 568.5 c 128,-1,26
 393 581 393 581 361 585 c 128,-1,27
 329 589 329 589 293 589 c 2,28,-1
 170 589 l 1,29,-1
 170 589 l 1,16,-1
EndSplineSet
Validated: 5
EndChar

StartChar: Q
Encoding: 81 81 30
Width: 753
GlyphClass: 1
Flags: W
LayerCount: 2
Fore
SplineSet
363 680 m 1,0,1
 435 680 435 680 493.5 654.5 c 128,-1,2
 552 629 552 629 592.5 583 c 128,-1,3
 633 537 633 537 655 473.5 c 128,-1,4
 677 410 677 410 677 335 c 0,5,6
 677 278 677 278 665 229.5 c 128,-1,7
 653 181 653 181 630 139 c 1,8,-1
 753 24 l 1,9,-1
 689 -44 l 1,10,-1
 572 65 l 1,11,12
 533 28 533 28 480 8 c 128,-1,13
 427 -12 427 -12 363 -12 c 0,14,15
 291 -12 291 -12 233 14 c 128,-1,16
 175 40 175 40 134.5 86 c 128,-1,17
 94 132 94 132 72 195.5 c 128,-1,18
 50 259 50 259 50 335 c 0,19,20
 50 410 50 410 72 473.5 c 128,-1,21
 94 537 94 537 134.5 583 c 128,-1,22
 175 629 175 629 233 654.5 c 128,-1,23
 291 680 291 680 363 680 c 1,24,-1
 363 680 l 1,0,1
363 67 m 1,25,26
 405 67 405 67 442 82 c 128,-1,27
 479 97 479 97 508 126 c 1,28,-1
 329 294 l 1,29,-1
 393 362 l 1,30,-1
 559 206 l 1,31,32
 570 233 570 233 575.5 265 c 128,-1,33
 581 297 581 297 581 335 c 0,34,35
 581 400 581 400 564 449.5 c 128,-1,36
 547 499 547 499 517.5 532.5 c 128,-1,37
 488 566 488 566 448.5 583.5 c 128,-1,38
 409 601 409 601 363 601 c 0,39,40
 318 601 318 601 278 583.5 c 128,-1,41
 238 566 238 566 209 532.5 c 128,-1,42
 180 499 180 499 163 449.5 c 128,-1,43
 146 400 146 400 146 335 c 256,44,45
 146 270 146 270 163 220 c 128,-1,46
 180 170 180 170 209 136 c 128,-1,47
 238 102 238 102 278 84.5 c 128,-1,48
 318 67 318 67 363 67 c 1,49,-1
 363 67 l 1,25,26
EndSplineSet
Validated: 5
EndChar

StartChar: R
Encoding: 82 82 31
Width: 618
GlyphClass: 1
Flags: W
LayerCount: 2
Fore
SplineSet
288 668 m 1,0,1
 349 668 349 668 400 660.5 c 128,-1,2
 451 653 451 653 488 632 c 128,-1,3
 525 611 525 611 545.5 573.5 c 128,-1,4
 566 536 566 536 566 476 c 0,5,6
 566 442 566 442 559 411.5 c 128,-1,7
 552 381 552 381 531.5 356 c 128,-1,8
 511 331 511 331 475 313.5 c 128,-1,9
 439 296 439 296 381 288 c 1,10,-1
 588 0 l 1,11,-1
 473 0 l 1,12,-1
 270 281 l 1,13,-1
 170 281 l 1,14,-1
 170 0 l 1,15,-1
 76 0 l 1,16,-1
 76 668 l 1,17,-1
 288 668 l 1,18,-1
 288 668 l 1,0,1
170 360 m 1,19,-1
 295 360 l 2,20,21
 332 360 332 360 364 363.5 c 128,-1,22
 396 367 396 367 419.5 378.5 c 128,-1,23
 443 390 443 390 456.5 412.5 c 128,-1,24
 470 435 470 435 470 474 c 256,25,26
 470 513 470 513 456.5 535.5 c 128,-1,27
 443 558 443 558 419.5 570 c 128,-1,28
 396 582 396 582 364 585.5 c 128,-1,29
 332 589 332 589 295 589 c 2,30,-1
 170 589 l 1,31,-1
 170 360 l 1,32,-1
 170 360 l 1,19,-1
EndSplineSet
Validated: 5
EndChar

StartChar: S
Encoding: 83 83 32
Width: 596
GlyphClass: 1
Flags: W
LayerCount: 2
Fore
SplineSet
127 172 m 1,0,1
 136 145 136 145 153.5 125 c 128,-1,2
 171 105 171 105 194.5 92.5 c 128,-1,3
 218 80 218 80 245.5 73.5 c 128,-1,4
 273 67 273 67 300 67 c 0,5,6
 330 67 330 67 358.5 74.5 c 128,-1,7
 387 82 387 82 408.5 96.5 c 128,-1,8
 430 111 430 111 443.5 133.5 c 128,-1,9
 457 156 457 156 457 186 c 0,10,11
 457 209 457 209 448 226 c 128,-1,12
 439 243 439 243 419 256.5 c 128,-1,13
 399 270 399 270 366.5 281 c 128,-1,14
 334 292 334 292 286 302 c 0,15,16
 247 310 247 310 205 321.5 c 128,-1,17
 163 333 163 333 127.5 354.5 c 128,-1,18
 92 376 92 376 69 411 c 128,-1,19
 46 446 46 446 46 501 c 0,20,21
 46 543 46 543 67 576.5 c 128,-1,22
 88 610 88 610 122.5 633 c 128,-1,23
 157 656 157 656 201 668 c 128,-1,24
 245 680 245 680 291 680 c 0,25,26
 326 680 326 680 361 672.5 c 128,-1,27
 396 665 396 665 426.5 649.5 c 128,-1,28
 457 634 457 634 482 610.5 c 128,-1,29
 507 587 507 587 523 555 c 1,30,-1
 437 530 l 1,31,32
 417 565 417 565 375 583 c 128,-1,33
 333 601 333 601 287 601 c 0,34,35
 260 601 260 601 234 594.5 c 128,-1,36
 208 588 208 588 187.5 575 c 128,-1,37
 167 562 167 562 155 542.5 c 128,-1,38
 143 523 143 523 143 497 c 0,39,40
 143 469 143 469 157 451 c 128,-1,41
 171 433 171 433 195 421 c 128,-1,42
 219 409 219 409 250 401 c 128,-1,43
 281 393 281 393 315 386 c 0,44,45
 359 377 359 377 402 364 c 128,-1,46
 445 351 445 351 479 329 c 128,-1,47
 513 307 513 307 534.5 271.5 c 128,-1,48
 556 236 556 236 556 182 c 0,49,50
 556 136 556 136 534 99.5 c 128,-1,51
 512 63 512 63 475.5 38.5 c 128,-1,52
 439 14 439 14 392 1 c 128,-1,53
 345 -12 345 -12 296 -12 c 0,54,55
 255 -12 255 -12 214.5 -2.5 c 128,-1,56
 174 7 174 7 139.5 26.5 c 128,-1,57
 105 46 105 46 79 76 c 128,-1,58
 53 106 53 106 40 146 c 1,59,-1
 127 172 l 1,60,-1
 127 172 l 1,0,1
EndSplineSet
Validated: 5
EndChar

StartChar: T
Encoding: 84 84 33
Width: 558
GlyphClass: 1
Flags: W
LayerCount: 2
Fore
SplineSet
10 668 m 1,0,-1
 548 668 l 1,1,-1
 548 587 l 1,2,-1
 326 587 l 1,3,-1
 326 0 l 1,4,-1
 232 0 l 1,5,-1
 232 587 l 1,6,-1
 10 587 l 1,7,-1
 10 668 l 1,0,-1
EndSplineSet
Validated: 1
EndChar

StartChar: U
Encoding: 85 85 34
Width: 690
GlyphClass: 1
Flags: W
LayerCount: 2
Fore
SplineSet
170 668 m 1,0,-1
 170 272 l 2,1,2
 170 173 170 173 209.5 121 c 128,-1,3
 249 69 249 69 345 69 c 256,4,5
 441 69 441 69 480.5 121 c 128,-1,6
 520 173 520 173 520 272 c 2,7,-1
 520 668 l 1,8,-1
 614 668 l 1,9,-1
 614 279 l 2,10,11
 614 206 614 206 599.5 151.5 c 128,-1,12
 585 97 585 97 552.5 60.5 c 128,-1,13
 520 24 520 24 469 6 c 128,-1,14
 418 -12 418 -12 345 -12 c 256,15,16
 272 -12 272 -12 221 6 c 128,-1,17
 170 24 170 24 138 60.5 c 128,-1,18
 106 97 106 97 91 151.5 c 128,-1,19
 76 206 76 206 76 279 c 2,20,-1
 76 668 l 1,21,-1
 170 668 l 1,22,-1
 170 668 l 1,0,-1
EndSplineSet
Validated: 5
EndChar

StartChar: V
Encoding: 86 86 35
Width: 589
GlyphClass: 1
Flags: W
LayerCount: 2
Fore
SplineSet
10 668 m 1,0,-1
 113 668 l 1,1,-1
 294 110 l 1,2,-1
 476 668 l 1,3,-1
 579 668 l 1,4,-1
 349 0 l 1,5,-1
 239 0 l 1,6,-1
 10 668 l 1,0,-1
EndSplineSet
Validated: 1
EndChar

StartChar: W
Encoding: 87 87 36
Width: 840
GlyphClass: 1
Flags: W
LayerCount: 2
Fore
SplineSet
10 668 m 1,0,-1
 113 668 l 1,1,-1
 243 116 l 1,2,-1
 365 668 l 1,3,-1
 475 668 l 1,4,-1
 597 116 l 1,5,-1
 727 668 l 1,6,-1
 830 668 l 1,7,-1
 663 0 l 1,8,-1
 549 0 l 1,9,-1
 420 552 l 1,10,-1
 291 0 l 1,11,-1
 178 0 l 1,12,-1
 10 668 l 1,0,-1
EndSplineSet
Validated: 1
EndChar

StartChar: X
Encoding: 88 88 37
Width: 623
GlyphClass: 1
Flags: W
LayerCount: 2
Fore
SplineSet
255 344 m 1,0,-1
 24 668 l 1,1,-1
 136 668 l 1,2,-1
 311 423 l 1,3,-1
 486 668 l 1,4,-1
 599 668 l 1,5,-1
 368 344 l 1,6,-1
 613 0 l 1,7,-1
 500 0 l 1,8,-1
 311 265 l 1,9,-1
 123 0 l 1,10,-1
 10 0 l 1,11,-1
 255 344 l 1,0,-1
EndSplineSet
Validated: 1
EndChar

StartChar: Y
Encoding: 89 89 38
Width: 595
GlyphClass: 1
Flags: W
LayerCount: 2
Fore
SplineSet
10 668 m 1,0,-1
 113 668 l 1,1,-1
 298 345 l 1,2,-1
 482 668 l 1,3,-1
 585 668 l 1,4,-1
 345 259 l 1,5,-1
 345 0 l 1,6,-1
 251 0 l 1,7,-1
 251 259 l 1,8,-1
 10 668 l 1,0,-1
EndSplineSet
Validated: 1
EndChar

StartChar: Z
Encoding: 90 90 39
Width: 607
GlyphClass: 1
Flags: W
LayerCount: 2
Fore
SplineSet
44 81 m 1,0,-1
 438 587 l 1,1,-1
 59 587 l 1,2,-1
 59 668 l 1,3,-1
 548 668 l 1,4,-1
 548 587 l 1,5,-1
 156 81 l 1,6,-1
 563 81 l 1,7,-1
 563 0 l 1,8,-1
 44 0 l 1,9,-1
 44 81 l 1,0,-1
EndSplineSet
Validated: 1
EndChar

StartChar: a
Encoding: 97 97 40
Width: 526
GlyphClass: 1
Flags: W
LayerCount: 2
Fore
SplineSet
373 306 m 1,0,1
 375 369 375 369 348 403 c 128,-1,2
 321 437 321 437 261 437 c 0,3,4
 216 437 216 437 187.5 416.5 c 128,-1,5
 159 396 159 396 151 360 c 1,6,-1
 70 384 l 1,7,8
 90 441 90 441 141.5 472.5 c 128,-1,9
 193 504 193 504 260 504 c 0,10,11
 363 504 363 504 409.5 456 c 128,-1,12
 456 408 456 408 457 303 c 2,13,-1
 458 187 l 2,14,15
 459 124 459 124 463.5 79.5 c 128,-1,16
 468 35 468 35 475 0 c 1,17,-1
 398 0 l 1,18,-1
 378 68 l 1,19,20
 355 30 355 30 315 9 c 128,-1,21
 275 -12 275 -12 209 -12 c 0,22,23
 174 -12 174 -12 143 -2.5 c 128,-1,24
 112 7 112 7 88.5 25.5 c 128,-1,25
 65 44 65 44 51.5 70.5 c 128,-1,26
 38 97 38 97 38 131 c 0,27,28
 38 175 38 175 62 205 c 128,-1,29
 86 235 86 235 129.5 254.5 c 128,-1,30
 173 274 173 274 235 285.5 c 128,-1,31
 297 297 297 297 373 306 c 1,32,-1
 373 306 l 1,0,1
131 133 m 1,33,34
 131 98 131 98 156.5 76.5 c 128,-1,35
 182 55 182 55 227 55 c 0,36,37
 256 55 256 55 283.5 62.5 c 128,-1,38
 311 70 311 70 332.5 87.5 c 128,-1,39
 354 105 354 105 367 134.5 c 128,-1,40
 380 164 380 164 380 208 c 2,41,-1
 380 239 l 1,42,43
 323 233 323 233 277 225.5 c 128,-1,44
 231 218 231 218 198.5 206 c 128,-1,45
 166 194 166 194 148.5 176.5 c 128,-1,46
 131 159 131 159 131 133 c 1,47,-1
 131 133 l 1,33,34
EndSplineSet
Validated: 37
Substitution2: "Single Substitution lookup 0 subtable" ordfeminine
EndChar

StartChar: b
Encoding: 98 98 41
Width: 566
GlyphClass: 1
Flags: W
LayerCount: 2
Fore
SplineSet
70 668 m 1,0,-1
 154 668 l 1,1,-1
 154 418 l 1,2,3
 177 457 177 457 216.5 480.5 c 128,-1,4
 256 504 256 504 315 504 c 0,5,6
 357 504 357 504 396 486.5 c 128,-1,7
 435 469 435 469 464 436 c 128,-1,8
 493 403 493 403 510.5 355 c 128,-1,9
 528 307 528 307 528 246 c 256,10,11
 528 185 528 185 510.5 137 c 128,-1,12
 493 89 493 89 464 56 c 128,-1,13
 435 23 435 23 396 5.5 c 128,-1,14
 357 -12 357 -12 315 -12 c 0,15,16
 256 -12 256 -12 216.5 11.5 c 128,-1,17
 177 35 177 35 154 75 c 1,18,-1
 132 0 l 1,19,-1
 70 0 l 1,20,-1
 70 668 l 1,21,-1
 70 668 l 1,0,-1
293 60 m 1,22,23
 357 60 357 60 395.5 108.5 c 128,-1,24
 434 157 434 157 434 246 c 256,25,26
 434 335 434 335 395.5 383.5 c 128,-1,27
 357 432 357 432 293 432 c 256,28,29
 229 432 229 432 190.5 383.5 c 128,-1,30
 152 335 152 335 152 246 c 256,31,32
 152 157 152 157 190.5 108.5 c 128,-1,33
 229 60 229 60 293 60 c 1,34,-1
 293 60 l 1,22,23
EndSplineSet
Validated: 5
EndChar

StartChar: c
Encoding: 99 99 42
Width: 500
GlyphClass: 1
Flags: W
LayerCount: 2
Fore
SplineSet
278 504 m 1,0,1
 345 504 345 504 393 471 c 128,-1,2
 441 438 441 438 465 392 c 1,3,-1
 388 364 l 1,4,5
 371 394 371 394 340.5 412 c 128,-1,6
 310 430 310 430 272 430 c 0,7,8
 244 430 244 430 218 419 c 128,-1,9
 192 408 192 408 172.5 385.5 c 128,-1,10
 153 363 153 363 141 328.5 c 128,-1,11
 129 294 129 294 129 247 c 256,12,13
 129 200 129 200 141 165.5 c 128,-1,14
 153 131 153 131 173 108 c 128,-1,15
 193 85 193 85 218.5 73.5 c 128,-1,16
 244 62 244 62 272 62 c 0,17,18
 313 62 313 62 343 80.5 c 128,-1,19
 373 99 373 99 390 127 c 1,20,-1
 467 99 l 1,21,22
 439 51 439 51 387 19.5 c 128,-1,23
 335 -12 335 -12 269 -12 c 0,24,25
 216 -12 216 -12 173 7 c 128,-1,26
 130 26 130 26 100 60.5 c 128,-1,27
 70 95 70 95 54 142.5 c 128,-1,28
 38 190 38 190 38 246 c 256,29,30
 38 302 38 302 55 349 c 128,-1,31
 72 396 72 396 103 430.5 c 128,-1,32
 134 465 134 465 178.5 484.5 c 128,-1,33
 223 504 223 504 278 504 c 1,34,-1
 278 504 l 1,0,1
EndSplineSet
Validated: 5
EndChar

StartChar: d
Encoding: 100 100 43
Width: 564
GlyphClass: 1
Flags: W
LayerCount: 2
Fore
SplineSet
251 504 m 1,0,1
 310 504 310 504 349.5 480.5 c 128,-1,2
 389 457 389 457 412 418 c 1,3,-1
 412 668 l 1,4,-1
 496 668 l 1,5,-1
 496 187 l 2,6,7
 496 162 496 162 498 114 c 128,-1,8
 500 66 500 66 513 0 c 1,9,-1
 434 0 l 1,10,-1
 412 75 l 1,11,12
 389 35 389 35 349.5 11.5 c 128,-1,13
 310 -12 310 -12 251 -12 c 0,14,15
 209 -12 209 -12 170 5.5 c 128,-1,16
 131 23 131 23 102 56 c 128,-1,17
 73 89 73 89 55.5 137 c 128,-1,18
 38 185 38 185 38 246 c 256,19,20
 38 307 38 307 55.5 355 c 128,-1,21
 73 403 73 403 102 436 c 128,-1,22
 131 469 131 469 170 486.5 c 128,-1,23
 209 504 209 504 251 504 c 1,24,-1
 251 504 l 1,0,1
132 246 m 1,25,26
 132 157 132 157 170.5 108.5 c 128,-1,27
 209 60 209 60 273 60 c 256,28,29
 337 60 337 60 375.5 108.5 c 128,-1,30
 414 157 414 157 414 246 c 256,31,32
 414 335 414 335 375.5 383.5 c 128,-1,33
 337 432 337 432 273 432 c 256,34,35
 209 432 209 432 170.5 383.5 c 128,-1,36
 132 335 132 335 132 246 c 1,37,-1
 132 246 l 1,25,26
EndSplineSet
Validated: 5
EndChar

StartChar: e
Encoding: 101 101 44
Width: 539
GlyphClass: 1
Flags: W
LayerCount: 2
Fore
SplineSet
279 504 m 1,0,1
 338 504 338 504 383 480.5 c 128,-1,2
 428 457 428 457 457.5 418 c 128,-1,3
 487 379 487 379 500.5 328.5 c 128,-1,4
 514 278 514 278 510 225 c 1,5,-1
 128 225 l 1,6,7
 130 178 130 178 145.5 146.5 c 128,-1,8
 161 115 161 115 183.5 96.5 c 128,-1,9
 206 78 206 78 232 70 c 128,-1,10
 258 62 258 62 281 62 c 0,11,12
 323 62 323 62 351.5 75 c 128,-1,13
 380 88 380 88 397 111 c 1,14,-1
 478 87 l 1,15,16
 451 43 451 43 401 15.5 c 128,-1,17
 351 -12 351 -12 281 -12 c 0,18,19
 223 -12 223 -12 177.5 8 c 128,-1,20
 132 28 132 28 101 63 c 128,-1,21
 70 98 70 98 54 145 c 128,-1,22
 38 192 38 192 38 247 c 0,23,24
 38 306 38 306 56.5 353.5 c 128,-1,25
 75 401 75 401 107.5 434.5 c 128,-1,26
 140 468 140 468 184 486 c 128,-1,27
 228 504 228 504 279 504 c 1,28,-1
 279 504 l 1,0,1
421 292 m 1,29,30
 421 318 421 318 411 343.5 c 128,-1,31
 401 369 401 369 382.5 388.5 c 128,-1,32
 364 408 364 408 338 420 c 128,-1,33
 312 432 312 432 279 432 c 0,34,35
 251 432 251 432 225 424 c 128,-1,36
 199 416 199 416 179 399.5 c 128,-1,37
 159 383 159 383 145.5 356.5 c 128,-1,38
 132 330 132 330 129 292 c 1,39,-1
 421 292 l 1,40,-1
 421 292 l 1,29,30
EndSplineSet
Validated: 37
EndChar

StartChar: f
Encoding: 102 102 45
Width: 311
GlyphClass: 1
Flags: W
LayerCount: 2
Fore
SplineSet
15 429 m 1,0,-1
 15 496 l 1,1,-1
 99 496 l 1,2,-1
 99 570 l 2,3,4
 99 608 99 608 104 634 c 128,-1,5
 109 660 109 660 123.5 676 c 128,-1,6
 138 692 138 692 164 699 c 128,-1,7
 190 706 190 706 232 706 c 2,8,-1
 286 706 l 1,9,-1
 286 635 l 1,10,-1
 234 635 l 2,11,12
 202 635 202 635 192.5 622 c 128,-1,13
 183 609 183 609 183 571 c 2,14,-1
 183 496 l 1,15,-1
 286 496 l 1,16,-1
 286 429 l 1,17,-1
 183 429 l 1,18,-1
 183 0 l 1,19,-1
 99 0 l 1,20,-1
 99 429 l 1,21,-1
 15 429 l 1,22,-1
 15 429 l 1,0,-1
EndSplineSet
Validated: 5
EndChar

StartChar: g
Encoding: 103 103 46
Width: 560
GlyphClass: 1
Flags: W
LayerCount: 2
Fore
SplineSet
248 504 m 1,0,1
 308 504 308 504 345.5 480.5 c 128,-1,2
 383 457 383 457 406 418 c 1,3,-1
 429 496 l 1,4,-1
 490 496 l 1,5,-1
 490 47 l 2,6,7
 490 10 490 10 487.5 -23.5 c 128,-1,8
 485 -57 485 -57 473 -85.5 c 128,-1,9
 461 -114 461 -114 436.5 -137 c 128,-1,10
 412 -160 412 -160 369 -176 c 0,11,12
 348 -184 348 -184 324 -188 c 128,-1,13
 300 -192 300 -192 274 -192 c 0,14,15
 244 -192 244 -192 213.5 -185.5 c 128,-1,16
 183 -179 183 -179 157 -165 c 128,-1,17
 131 -151 131 -151 111 -129 c 128,-1,18
 91 -107 91 -107 81 -76 c 1,19,-1
 165 -53 l 1,20,21
 172 -73 172 -73 184 -85.5 c 128,-1,22
 196 -98 196 -98 211 -105 c 128,-1,23
 226 -112 226 -112 242.5 -115 c 128,-1,24
 259 -118 259 -118 274 -118 c 0,25,26
 293 -118 293 -118 308 -115 c 128,-1,27
 323 -112 323 -112 330 -110 c 0,28,29
 353 -102 353 -102 367.5 -91 c 128,-1,30
 382 -80 382 -80 390.5 -63.5 c 128,-1,31
 399 -47 399 -47 402.5 -24.5 c 128,-1,32
 406 -2 406 -2 406 28 c 2,33,-1
 406 94 l 1,34,35
 383 55 383 55 345.5 32 c 128,-1,36
 308 9 308 9 248 9 c 0,37,38
 207 9 207 9 169 25 c 128,-1,39
 131 41 131 41 102 72.5 c 128,-1,40
 73 104 73 104 55.5 150 c 128,-1,41
 38 196 38 196 38 256 c 256,42,43
 38 316 38 316 55.5 362 c 128,-1,44
 73 408 73 408 102 439.5 c 128,-1,45
 131 471 131 471 169 487.5 c 128,-1,46
 207 504 207 504 248 504 c 1,47,-1
 248 504 l 1,0,1
129 256 m 1,48,49
 129 171 129 171 168 125 c 128,-1,50
 207 79 207 79 269 79 c 0,51,52
 297 79 297 79 322.5 89 c 128,-1,53
 348 99 348 99 367 120.5 c 128,-1,54
 386 142 386 142 397.5 175.5 c 128,-1,55
 409 209 409 209 409 256 c 256,56,57
 409 303 409 303 397.5 336.5 c 128,-1,58
 386 370 386 370 367 391 c 128,-1,59
 348 412 348 412 322.5 422 c 128,-1,60
 297 432 297 432 269 432 c 0,61,62
 207 432 207 432 168 386.5 c 128,-1,63
 129 341 129 341 129 256 c 1,64,-1
 129 256 l 1,48,49
EndSplineSet
Validated: 5
EndChar

StartChar: h
Encoding: 104 104 47
Width: 546
GlyphClass: 1
Flags: W
LayerCount: 2
Fore
SplineSet
154 668 m 1,0,-1
 154 421 l 1,1,2
 175 456 175 456 213 480 c 128,-1,3
 251 504 251 504 314 504 c 0,4,5
 359 504 359 504 390.5 490 c 128,-1,6
 422 476 422 476 441.5 451 c 128,-1,7
 461 426 461 426 469.5 391 c 128,-1,8
 478 356 478 356 478 314 c 2,9,-1
 478 0 l 1,10,-1
 394 0 l 1,11,-1
 394 289 l 2,12,13
 394 318 394 318 390.5 343.5 c 128,-1,14
 387 369 387 369 375.5 389 c 128,-1,15
 364 409 364 409 342.5 420.5 c 128,-1,16
 321 432 321 432 285 432 c 0,17,18
 224 432 224 432 189 390.5 c 128,-1,19
 154 349 154 349 154 269 c 2,20,-1
 154 0 l 1,21,-1
 70 0 l 1,22,-1
 70 668 l 1,23,-1
 154 668 l 1,24,-1
 154 668 l 1,0,-1
EndSplineSet
Validated: 5
EndChar

StartChar: i
Encoding: 105 105 48
Width: 278
GlyphClass: 1
Flags: W
LayerCount: 2
Fore
SplineSet
94 653 m 1,0,1
 94 679 94 679 112 697 c 128,-1,2
 130 715 130 715 156 715 c 256,3,4
 182 715 182 715 200.5 697 c 128,-1,5
 219 679 219 679 219 653 c 256,6,7
 219 627 219 627 200.5 608.5 c 128,-1,8
 182 590 182 590 156 590 c 256,9,10
 130 590 130 590 112 608.5 c 128,-1,11
 94 627 94 627 94 653 c 1,12,-1
 94 653 l 1,0,1
45 496 m 1,13,-1
 198 496 l 1,14,-1
 198 0 l 1,15,-1
 114 0 l 1,16,-1
 114 429 l 1,17,-1
 45 429 l 1,18,-1
 45 496 l 1,13,-1
EndSplineSet
Validated: 5
EndChar

StartChar: j
Encoding: 106 106 49
Width: 254
GlyphClass: 1
Flags: W
LayerCount: 2
Fore
SplineSet
-58 -159 m 1,0,-1
 -58 -86 l 1,1,2
 -44 -87 -44 -87 -33 -87 c 128,-1,3
 -22 -87 -22 -87 -11 -87 c 0,4,5
 21 -87 21 -87 40.5 -83.5 c 128,-1,6
 60 -80 60 -80 71 -69 c 128,-1,7
 82 -58 82 -58 86 -39 c 128,-1,8
 90 -20 90 -20 90 12 c 2,9,-1
 90 496 l 1,10,-1
 174 496 l 1,11,-1
 174 7 l 2,12,13
 174 -41 174 -41 165.5 -73.5 c 128,-1,14
 157 -106 157 -106 137 -125.5 c 128,-1,15
 117 -145 117 -145 82.5 -153 c 128,-1,16
 48 -161 48 -161 -3 -161 c 0,17,18
 -16 -161 -16 -161 -29.5 -160.5 c 128,-1,19
 -43 -160 -43 -160 -58 -159 c 1,20,-1
 -58 -159 l 1,0,-1
69 653 m 1,21,22
 69 679 69 679 87.5 697 c 128,-1,23
 106 715 106 715 132 715 c 256,24,25
 158 715 158 715 176 697 c 128,-1,26
 194 679 194 679 194 653 c 256,27,28
 194 627 194 627 176 608.5 c 128,-1,29
 158 590 158 590 132 590 c 256,30,31
 106 590 106 590 87.5 608.5 c 128,-1,32
 69 627 69 627 69 653 c 1,33,-1
 69 653 l 1,21,22
EndSplineSet
Validated: 5
EndChar

StartChar: k
Encoding: 107 107 50
Width: 490
GlyphClass: 1
Flags: W
LayerCount: 2
Fore
SplineSet
70 0 m 1,0,-1
 70 668 l 1,1,-1
 154 668 l 1,2,-1
 154 273 l 1,3,-1
 354 496 l 1,4,-1
 455 496 l 1,5,-1
 268 291 l 1,6,-1
 480 0 l 1,7,-1
 377 0 l 1,8,-1
 212 229 l 1,9,-1
 154 166 l 1,10,-1
 154 0 l 1,11,-1
 70 0 l 1,0,-1
EndSplineSet
Validated: 1
EndChar

StartChar: l
Encoding: 108 108 51
Width: 239
GlyphClass: 1
Flags: W
LayerCount: 2
Fore
SplineSet
70 124 m 1,0,-1
 70 667 l 1,1,-1
 154 667 l 1,2,-1
 154 138 l 2,3,4
 154 100 154 100 162 87 c 128,-1,5
 170 74 170 74 205 74 c 2,6,-1
 224 74 l 1,7,-1
 224 0 l 1,8,-1
 187 0 l 2,9,10
 151 0 151 0 128.5 5 c 128,-1,11
 106 10 106 10 93 23.5 c 128,-1,12
 80 37 80 37 75 61 c 128,-1,13
 70 85 70 85 70 124 c 1,14,-1
 70 124 l 1,0,-1
EndSplineSet
Validated: 5
EndChar

StartChar: m
Encoding: 109 109 52
Width: 841
GlyphClass: 1
Flags: W
LayerCount: 2
Fore
SplineSet
70 496 m 1,0,-1
 132 496 l 1,1,-1
 154 421 l 1,2,3
 175 456 175 456 211 480 c 128,-1,4
 247 504 247 504 303 504 c 0,5,6
 360 504 360 504 394.5 481 c 128,-1,7
 429 458 429 458 446 417 c 1,8,9
 476 463 476 463 518.5 483.5 c 128,-1,10
 561 504 561 504 613 504 c 0,11,12
 656 504 656 504 686.5 490 c 128,-1,13
 717 476 717 476 736 451 c 128,-1,14
 755 426 755 426 764 391 c 128,-1,15
 773 356 773 356 773 314 c 2,16,-1
 773 0 l 1,17,-1
 689 0 l 1,18,-1
 689 289 l 2,19,20
 689 318 689 318 685.5 343.5 c 128,-1,21
 682 369 682 369 670.5 389 c 128,-1,22
 659 409 659 409 638.5 420.5 c 128,-1,23
 618 432 618 432 583 432 c 0,24,25
 529 432 529 432 496.5 390.5 c 128,-1,26
 464 349 464 349 464 269 c 2,27,-1
 464 0 l 1,28,-1
 380 0 l 1,29,-1
 380 289 l 2,30,31
 380 318 380 318 376 343.5 c 128,-1,32
 372 369 372 369 361 389 c 128,-1,33
 350 409 350 409 329 420.5 c 128,-1,34
 308 432 308 432 274 432 c 0,35,36
 220 432 220 432 187 390.5 c 128,-1,37
 154 349 154 349 154 269 c 2,38,-1
 154 0 l 1,39,-1
 70 0 l 1,40,-1
 70 496 l 1,41,-1
 70 496 l 1,0,-1
EndSplineSet
Validated: 5
EndChar

StartChar: n
Encoding: 110 110 53
Width: 546
GlyphClass: 1
Flags: W
LayerCount: 2
Fore
SplineSet
132 496 m 1,0,-1
 154 421 l 1,1,2
 175 456 175 456 213 480 c 128,-1,3
 251 504 251 504 314 504 c 0,4,5
 359 504 359 504 390.5 490 c 128,-1,6
 422 476 422 476 441.5 451 c 128,-1,7
 461 426 461 426 469.5 391 c 128,-1,8
 478 356 478 356 478 314 c 2,9,-1
 478 0 l 1,10,-1
 394 0 l 1,11,-1
 394 289 l 2,12,13
 394 318 394 318 390.5 343.5 c 128,-1,14
 387 369 387 369 375.5 389 c 128,-1,15
 364 409 364 409 342.5 420.5 c 128,-1,16
 321 432 321 432 285 432 c 0,17,18
 224 432 224 432 189 390.5 c 128,-1,19
 154 349 154 349 154 269 c 2,20,-1
 154 0 l 1,21,-1
 70 0 l 1,22,-1
 70 496 l 1,23,-1
 132 496 l 1,24,-1
 132 496 l 1,0,-1
EndSplineSet
Validated: 5
EndChar

StartChar: o
Encoding: 111 111 54
Width: 552
GlyphClass: 1
Flags: W
LayerCount: 2
Fore
SplineSet
38 246 m 1,0,1
 38 313 38 313 59 362 c 128,-1,2
 80 411 80 411 114 442.5 c 128,-1,3
 148 474 148 474 190.5 489 c 128,-1,4
 233 504 233 504 276 504 c 256,5,6
 319 504 319 504 361.5 489 c 128,-1,7
 404 474 404 474 438 442.5 c 128,-1,8
 472 411 472 411 493 362 c 128,-1,9
 514 313 514 313 514 246 c 256,10,11
 514 179 514 179 493 130 c 128,-1,12
 472 81 472 81 438 49.5 c 128,-1,13
 404 18 404 18 361.5 3 c 128,-1,14
 319 -12 319 -12 276 -12 c 256,15,16
 233 -12 233 -12 190.5 3 c 128,-1,17
 148 18 148 18 114 49.5 c 128,-1,18
 80 81 80 81 59 130 c 128,-1,19
 38 179 38 179 38 246 c 1,20,-1
 38 246 l 1,0,1
128 246 m 1,21,22
 128 198 128 198 141 163.5 c 128,-1,23
 154 129 154 129 175 106.5 c 128,-1,24
 196 84 196 84 222.5 73 c 128,-1,25
 249 62 249 62 276 62 c 256,26,27
 303 62 303 62 329.5 73 c 128,-1,28
 356 84 356 84 377 106.5 c 128,-1,29
 398 129 398 129 411 163.5 c 128,-1,30
 424 198 424 198 424 246 c 256,31,32
 424 294 424 294 411 329 c 128,-1,33
 398 364 398 364 377 386.5 c 128,-1,34
 356 409 356 409 329.5 419.5 c 128,-1,35
 303 430 303 430 276 430 c 256,36,37
 249 430 249 430 222.5 419.5 c 128,-1,38
 196 409 196 409 175 386.5 c 128,-1,39
 154 364 154 364 141 329 c 128,-1,40
 128 294 128 294 128 246 c 1,41,-1
 128 246 l 1,21,22
EndSplineSet
Validated: 5
Substitution2: "Single Substitution lookup 0 subtable" ordmasculine
EndChar

StartChar: p
Encoding: 112 112 55
Width: 566
GlyphClass: 1
Flags: W
LayerCount: 2
Fore
SplineSet
70 496 m 1,0,-1
 131 496 l 1,1,-1
 154 418 l 1,2,3
 177 457 177 457 216.5 480.5 c 128,-1,4
 256 504 256 504 315 504 c 0,5,6
 357 504 357 504 396 487 c 128,-1,7
 435 470 435 470 464 437 c 128,-1,8
 493 404 493 404 510.5 356 c 128,-1,9
 528 308 528 308 528 246 c 0,10,11
 528 185 528 185 510.5 137 c 128,-1,12
 493 89 493 89 464 56 c 128,-1,13
 435 23 435 23 396 5.5 c 128,-1,14
 357 -12 357 -12 315 -12 c 0,15,16
 256 -12 256 -12 216.5 11.5 c 128,-1,17
 177 35 177 35 154 75 c 1,18,-1
 154 -161 l 1,19,-1
 70 -161 l 1,20,-1
 70 496 l 1,21,-1
 70 496 l 1,0,-1
293 60 m 1,22,23
 357 60 357 60 395.5 108.5 c 128,-1,24
 434 157 434 157 434 246 c 256,25,26
 434 335 434 335 395.5 383.5 c 128,-1,27
 357 432 357 432 293 432 c 256,28,29
 229 432 229 432 190.5 383.5 c 128,-1,30
 152 335 152 335 152 246 c 256,31,32
 152 157 152 157 190.5 108.5 c 128,-1,33
 229 60 229 60 293 60 c 1,34,-1
 293 60 l 1,22,23
EndSplineSet
Validated: 5
EndChar

StartChar: q
Encoding: 113 113 56
Width: 576
GlyphClass: 1
Flags: W
LayerCount: 2
Fore
SplineSet
38 246 m 1,0,1
 38 308 38 308 55 356 c 128,-1,2
 72 404 72 404 101.5 437 c 128,-1,3
 131 470 131 470 169.5 487 c 128,-1,4
 208 504 208 504 250 504 c 0,5,6
 310 504 310 504 349.5 480.5 c 128,-1,7
 389 457 389 457 412 418 c 1,8,-1
 435 496 l 1,9,-1
 496 496 l 1,10,-1
 496 -24 l 2,11,12
 496 -51 496 -51 512.5 -72.5 c 128,-1,13
 529 -94 529 -94 567 -94 c 0,14,15
 593 -94 593 -94 628 -81 c 1,16,-1
 628 -159 l 1,17,18
 608 -165 608 -165 586.5 -169 c 128,-1,19
 565 -173 565 -173 543 -173 c 0,20,21
 518 -173 518 -173 494 -166 c 128,-1,22
 470 -159 470 -159 452 -142.5 c 128,-1,23
 434 -126 434 -126 423 -98 c 128,-1,24
 412 -70 412 -70 412 -27 c 2,25,-1
 412 75 l 1,26,27
 389 35 389 35 349.5 11.5 c 128,-1,28
 310 -12 310 -12 250 -12 c 0,29,30
 208 -12 208 -12 169.5 5.5 c 128,-1,31
 131 23 131 23 101.5 56 c 128,-1,32
 72 89 72 89 55 137 c 128,-1,33
 38 185 38 185 38 246 c 1,34,-1
 38 246 l 1,0,1
273 60 m 1,35,36
 337 60 337 60 375.5 108.5 c 128,-1,37
 414 157 414 157 414 246 c 256,38,39
 414 335 414 335 375.5 383.5 c 128,-1,40
 337 432 337 432 273 432 c 0,41,42
 208 432 208 432 169.5 383.5 c 128,-1,43
 131 335 131 335 131 246 c 256,44,45
 131 157 131 157 169.5 108.5 c 128,-1,46
 208 60 208 60 273 60 c 1,47,-1
 273 60 l 1,35,36
EndSplineSet
Validated: 5
EndChar

StartChar: r
Encoding: 114 114 57
Width: 340
GlyphClass: 1
Flags: W
LayerCount: 2
Fore
SplineSet
70 496 m 1,0,-1
 131 496 l 1,1,-1
 158 404 l 1,2,3
 184 449 184 449 228 476.5 c 128,-1,4
 272 504 272 504 335 504 c 1,5,-1
 335 417 l 1,6,7
 284 417 284 417 249.5 403.5 c 128,-1,8
 215 390 215 390 193.5 364.5 c 128,-1,9
 172 339 172 339 163 301 c 128,-1,10
 154 263 154 263 154 213 c 2,11,-1
 154 0 l 1,12,-1
 70 0 l 1,13,-1
 70 496 l 1,14,-1
 70 496 l 1,0,-1
EndSplineSet
Validated: 5
EndChar

StartChar: s
Encoding: 115 115 58
Width: 471
GlyphClass: 1
Flags: W
LayerCount: 2
Fore
SplineSet
112 142 m 1,0,1
 118 120 118 120 130.5 104 c 128,-1,2
 143 88 143 88 160.5 78 c 128,-1,3
 178 68 178 68 198 63.5 c 128,-1,4
 218 59 218 59 239 59 c 0,5,6
 261 59 261 59 282 64 c 128,-1,7
 303 69 303 69 319.5 79 c 128,-1,8
 336 89 336 89 346 102.5 c 128,-1,9
 356 116 356 116 356 133 c 0,10,11
 356 167 356 167 332.5 184 c 128,-1,12
 309 201 309 201 274 210.5 c 128,-1,13
 239 220 239 220 198.5 227 c 128,-1,14
 158 234 158 234 123 248.5 c 128,-1,15
 88 263 88 263 64.5 290.5 c 128,-1,16
 41 318 41 318 41 367 c 0,17,18
 41 400 41 400 57.5 426 c 128,-1,19
 74 452 74 452 100.5 469.5 c 128,-1,20
 127 487 127 487 161.5 496 c 128,-1,21
 196 505 196 505 232 505 c 0,22,23
 291 505 291 505 343 480.5 c 128,-1,24
 395 456 395 456 418 404 c 1,25,-1
 339 375 l 1,26,27
 326 405 326 405 293.5 419.5 c 128,-1,28
 261 434 261 434 226 434 c 0,29,30
 207 434 207 434 189 429.5 c 128,-1,31
 171 425 171 425 157 417 c 128,-1,32
 143 409 143 409 134.5 396.5 c 128,-1,33
 126 384 126 384 126 368 c 0,34,35
 126 338 126 338 149.5 324 c 128,-1,36
 173 310 173 310 208 301.5 c 128,-1,37
 243 293 243 293 283.5 286 c 128,-1,38
 324 279 324 279 359 263 c 128,-1,39
 394 247 394 247 417.5 218 c 128,-1,40
 441 189 441 189 441 136 c 0,41,42
 441 101 441 101 424 73.5 c 128,-1,43
 407 46 407 46 378.5 27 c 128,-1,44
 350 8 350 8 314 -2 c 128,-1,45
 278 -12 278 -12 239 -12 c 0,46,47
 207 -12 207 -12 175 -4.5 c 128,-1,48
 143 3 143 3 115 18 c 128,-1,49
 87 33 87 33 65 56.5 c 128,-1,50
 43 80 43 80 31 112 c 1,51,-1
 112 142 l 1,52,-1
 112 142 l 1,0,1
EndSplineSet
Validated: 5
EndChar

StartChar: t
Encoding: 116 116 59
Width: 324
GlyphClass: 1
Flags: W
LayerCount: 2
Fore
SplineSet
104 496 m 1,0,-1
 104 621 l 1,1,-1
 188 621 l 1,2,-1
 188 496 l 1,3,-1
 284 496 l 1,4,-1
 284 429 l 1,5,-1
 188 429 l 1,6,-1
 188 138 l 2,7,8
 188 119 188 119 189 106.5 c 128,-1,9
 190 94 190 94 195.5 87 c 128,-1,10
 201 80 201 80 211 77 c 128,-1,11
 221 74 221 74 239 74 c 2,12,-1
 284 74 l 1,13,-1
 284 0 l 1,14,-1
 221 0 l 2,15,16
 185 0 185 0 162.5 5 c 128,-1,17
 140 10 140 10 127 23.5 c 128,-1,18
 114 37 114 37 109 61 c 128,-1,19
 104 85 104 85 104 124 c 2,20,-1
 104 429 l 1,21,-1
 20 429 l 1,22,-1
 20 496 l 1,23,-1
 104 496 l 1,24,-1
 104 496 l 1,0,-1
EndSplineSet
Validated: 5
EndChar

StartChar: u
Encoding: 117 117 60
Width: 536
GlyphClass: 1
Flags: W
LayerCount: 2
Fore
SplineSet
68 497 m 1,0,-1
 152 497 l 1,1,-1
 152 205 l 2,2,3
 152 176 152 176 155.5 150 c 128,-1,4
 159 124 159 124 170 104.5 c 128,-1,5
 181 85 181 85 201.5 73.5 c 128,-1,6
 222 62 222 62 256 62 c 0,7,8
 316 62 316 62 349 103 c 128,-1,9
 382 144 382 144 382 224 c 2,10,-1
 382 497 l 1,11,-1
 466 497 l 1,12,-1
 466 0 l 1,13,-1
 403 0 l 1,14,-1
 382 72 l 1,15,16
 361 36 361 36 325 12 c 128,-1,17
 289 -12 289 -12 227 -12 c 0,18,19
 184 -12 184 -12 153.5 2 c 128,-1,20
 123 16 123 16 104 41.5 c 128,-1,21
 85 67 85 67 76.5 102.5 c 128,-1,22
 68 138 68 138 68 180 c 2,23,-1
 68 497 l 1,24,-1
 68 497 l 1,0,-1
EndSplineSet
Validated: 5
EndChar

StartChar: v
Encoding: 118 118 61
Width: 441
GlyphClass: 1
Flags: W
LayerCount: 2
Fore
SplineSet
0 496 m 1,0,-1
 91 496 l 1,1,-1
 221 110 l 1,2,-1
 350 496 l 1,3,-1
 441 496 l 1,4,-1
 264 0 l 1,5,-1
 177 0 l 1,6,-1
 0 496 l 1,0,-1
EndSplineSet
Validated: 1
EndChar

StartChar: w
Encoding: 119 119 62
Width: 654
GlyphClass: 1
Flags: W
LayerCount: 2
Fore
SplineSet
0 496 m 1,0,-1
 90 496 l 1,1,-1
 185 129 l 1,2,-1
 284 496 l 1,3,-1
 371 496 l 1,4,-1
 469 129 l 1,5,-1
 564 496 l 1,6,-1
 654 496 l 1,7,-1
 512 0 l 1,8,-1
 435 0 l 1,9,-1
 327 399 l 1,10,-1
 219 0 l 1,11,-1
 143 0 l 1,12,-1
 0 496 l 1,0,-1
EndSplineSet
Validated: 1
EndChar

StartChar: x
Encoding: 120 120 63
Width: 461
GlyphClass: 1
Flags: W
LayerCount: 2
Fore
SplineSet
181 255 m 1,0,-1
 9 496 l 1,1,-1
 108 496 l 1,2,-1
 230 324 l 1,3,-1
 353 496 l 1,4,-1
 452 496 l 1,5,-1
 280 255 l 1,6,-1
 461 0 l 1,7,-1
 362 0 l 1,8,-1
 230 185 l 1,9,-1
 99 0 l 1,10,-1
 0 0 l 1,11,-1
 181 255 l 1,0,-1
EndSplineSet
Validated: 1
EndChar

StartChar: y
Encoding: 121 121 64
Width: 429
GlyphClass: 1
Flags: W
LayerCount: 2
Fore
SplineSet
93 495 m 1,0,-1
 215 113 l 1,1,-1
 337 495 l 1,2,-1
 429 495 l 1,3,-1
 253 -22 l 2,4,5
 240 -62 240 -62 226.5 -89 c 128,-1,6
 213 -116 213 -116 194.5 -132 c 128,-1,7
 176 -148 176 -148 149 -154.5 c 128,-1,8
 122 -161 122 -161 80 -161 c 2,9,-1
 37 -161 l 1,10,-1
 37 -87 l 1,11,-1
 71 -87 l 2,12,13
 98 -87 98 -87 115 -84.5 c 128,-1,14
 132 -82 132 -82 143.5 -73 c 128,-1,15
 155 -64 155 -64 162.5 -47 c 128,-1,16
 170 -30 170 -30 179 -1 c 1,17,-1
 0 495 l 1,18,-1
 93 495 l 1,19,-1
 93 495 l 1,0,-1
EndSplineSet
Validated: 5
EndChar

StartChar: z
Encoding: 122 122 65
Width: 460
GlyphClass: 1
Flags: W
LayerCount: 2
Fore
SplineSet
40 74 m 1,0,-1
 325 422 l 1,1,-1
 49 422 l 1,2,-1
 49 496 l 1,3,-1
 420 496 l 1,4,-1
 420 422 l 1,5,-1
 135 74 l 1,6,-1
 430 74 l 1,7,-1
 430 0 l 1,8,-1
 40 0 l 1,9,-1
 40 74 l 1,0,-1
EndSplineSet
Validated: 1
EndChar

StartChar: circumflex
Encoding: 710 710 67
Width: 429
GlyphClass: 1
Flags: W
LayerCount: 2
Fore
SplineSet
53 575 m 1,0,-1
 165 676 l 2,1,2
 176 686 176 686 188.5 690.5 c 128,-1,3
 201 695 201 695 215 695 c 0,4,5
 228 695 228 695 240.5 690.5 c 128,-1,6
 253 686 253 686 264 676 c 2,7,-1
 376 575 l 1,8,-1
 282 575 l 1,9,-1
 214 636 l 1,10,-1
 147 575 l 1,11,-1
 53 575 l 1,12,-1
 53 575 l 1,0,-1
EndSplineSet
Validated: 5
Substitution2: "'case' Case-Sensitive Forms lookup 1 subtable" circumflex.case
EndChar

StartChar: caron
Encoding: 711 711 68
Width: 429
GlyphClass: 1
Flags: W
LayerCount: 2
Fore
SplineSet
147 689 m 1,0,-1
 214 628 l 1,1,-1
 282 689 l 1,2,-1
 376 689 l 1,3,-1
 264 588 l 2,4,5
 253 578 253 578 240.5 573.5 c 128,-1,6
 228 569 228 569 215 569 c 0,7,8
 201 569 201 569 188.5 573.5 c 128,-1,9
 176 578 176 578 165 588 c 2,10,-1
 53 689 l 1,11,-1
 147 689 l 1,12,-1
 147 689 l 1,0,-1
EndSplineSet
Validated: 5
Substitution2: "'case' Case-Sensitive Forms lookup 1 subtable" caron.case
EndChar

StartChar: breve
Encoding: 728 728 69
Width: 399
GlyphClass: 1
Flags: W
LayerCount: 2
Fore
SplineSet
347 689 m 1,0,1
 342 664 342 664 328.5 642 c 128,-1,2
 315 620 315 620 295.5 603.5 c 128,-1,3
 276 587 276 587 251.5 578 c 128,-1,4
 227 569 227 569 200 569 c 256,5,6
 173 569 173 569 148.5 578 c 128,-1,7
 124 587 124 587 104.5 603.5 c 128,-1,8
 85 620 85 620 71.5 642 c 128,-1,9
 58 664 58 664 53 689 c 1,10,-1
 122 689 l 1,11,12
 131 666 131 666 152 651 c 128,-1,13
 173 636 173 636 200 636 c 0,14,15
 226 636 226 636 247 651 c 128,-1,16
 268 666 268 666 278 689 c 1,17,-1
 347 689 l 1,18,-1
 347 689 l 1,0,1
EndSplineSet
Validated: 5
Substitution2: "'case' Case-Sensitive Forms lookup 1 subtable" breve.case
EndChar

StartChar: dotaccent
Encoding: 729 729 70
Width: 214
GlyphClass: 1
Flags: W
LayerCount: 2
Fore
SplineSet
53 644 m 1,0,1
 53 667 53 667 68.5 682.5 c 128,-1,2
 84 698 84 698 107 698 c 256,3,4
 130 698 130 698 145.5 682.5 c 128,-1,5
 161 667 161 667 161 644 c 256,6,7
 161 621 161 621 145.5 605.5 c 128,-1,8
 130 590 130 590 107 590 c 256,9,10
 84 590 84 590 68.5 605.5 c 128,-1,11
 53 621 53 621 53 644 c 1,12,-1
 53 644 l 1,0,1
EndSplineSet
Validated: 5
Substitution2: "'case' Case-Sensitive Forms lookup 1 subtable" dotaccent.case
EndChar

StartChar: ring
Encoding: 730 730 71
Width: 253
GlyphClass: 1
Flags: W
LayerCount: 2
Fore
SplineSet
126 777 m 1,0,1
 149 777 149 777 168.5 768.5 c 128,-1,2
 188 760 188 760 202.5 745 c 128,-1,3
 217 730 217 730 225 710 c 128,-1,4
 233 690 233 690 233 668 c 256,5,6
 233 646 233 646 225 626 c 128,-1,7
 217 606 217 606 202.5 591 c 128,-1,8
 188 576 188 576 168.5 567.5 c 128,-1,9
 149 559 149 559 126 559 c 256,10,11
 103 559 103 559 82.5 567.5 c 128,-1,12
 62 576 62 576 47 591 c 128,-1,13
 32 606 32 606 23.5 626 c 128,-1,14
 15 646 15 646 15 668 c 256,15,16
 15 690 15 690 23.5 710 c 128,-1,17
 32 730 32 730 47 745 c 128,-1,18
 62 760 62 760 82.5 768.5 c 128,-1,19
 103 777 103 777 126 777 c 1,20,-1
 126 777 l 1,0,1
72 668 m 1,21,22
 72 647 72 647 87 632 c 128,-1,23
 102 617 102 617 124 617 c 256,24,25
 146 617 146 617 161 632 c 128,-1,26
 176 647 176 647 176 668 c 256,27,28
 176 689 176 689 161 704 c 128,-1,29
 146 719 146 719 124 719 c 256,30,31
 102 719 102 719 87 704 c 128,-1,32
 72 689 72 689 72 668 c 1,33,-1
 72 668 l 1,21,22
EndSplineSet
Validated: 5
Substitution2: "'case' Case-Sensitive Forms lookup 1 subtable" ring.case
EndChar

StartChar: ogonek
Encoding: 731 731 72
Width: 263
GlyphClass: 1
Flags: W
LayerCount: 2
Fore
SplineSet
133 0 m 1,0,-1
 210 0 l 1,1,2
 159 -19 159 -19 141 -37.5 c 128,-1,3
 123 -56 123 -56 123 -75 c 0,4,5
 123 -95 123 -95 137 -105 c 128,-1,6
 151 -115 151 -115 172 -115 c 0,7,8
 181 -115 181 -115 190.5 -113.5 c 128,-1,9
 200 -112 200 -112 210 -107 c 1,10,-1
 210 -161 l 1,11,12
 176 -173 176 -173 147 -173 c 0,13,14
 102 -173 102 -173 77.5 -148 c 128,-1,15
 53 -123 53 -123 53 -91 c 0,16,17
 53 -60 53 -60 74.5 -34.5 c 128,-1,18
 96 -9 96 -9 133 0 c 1,19,-1
 133 0 l 1,0,-1
EndSplineSet
Validated: 5
EndChar

StartChar: quoteleft
Encoding: 8216 8216 73
Width: 235
GlyphClass: 1
Flags: W
LayerCount: 2
Fore
SplineSet
53 482 m 1,0,1
 53 494 53 494 58 507 c 2,2,-1
 120 668 l 1,3,-1
 175 668 l 1,4,-1
 128 546 l 1,5,6
 151 542 151 542 166.5 524 c 128,-1,7
 182 506 182 506 182 482 c 0,8,9
 182 455 182 455 163 436.5 c 128,-1,10
 144 418 144 418 118 418 c 0,11,12
 91 418 91 418 72 437 c 128,-1,13
 53 456 53 456 53 482 c 1,14,-1
 53 482 l 1,0,1
EndSplineSet
Validated: 5
EndChar

StartChar: quoteright
Encoding: 8217 8217 74
Width: 235
GlyphClass: 1
Flags: W
LayerCount: 2
Fore
SplineSet
53 615 m 1,0,1
 53 642 53 642 72 661 c 128,-1,2
 91 680 91 680 117 680 c 0,3,4
 144 680 144 680 163 661 c 128,-1,5
 182 642 182 642 182 616 c 0,6,7
 182 604 182 604 177 591 c 2,8,-1
 115 429 l 1,9,-1
 60 429 l 1,10,-1
 107 552 l 1,11,12
 84 556 84 556 68.5 573.5 c 128,-1,13
 53 591 53 591 53 615 c 1,14,-1
 53 615 l 1,0,1
EndSplineSet
Validated: 5
EndChar

StartChar: quotesinglbase
Encoding: 8218 8218 75
Width: 235
GlyphClass: 1
Flags: W
LayerCount: 2
Fore
SplineSet
53 52 m 1,0,1
 53 79 53 79 72 98 c 128,-1,2
 91 117 91 117 117 117 c 0,3,4
 144 117 144 117 163 98 c 128,-1,5
 182 79 182 79 182 53 c 0,6,7
 182 41 182 41 177 28 c 2,8,-1
 115 -134 l 1,9,-1
 60 -134 l 1,10,-1
 107 -11 l 1,11,12
 84 -7 84 -7 68.5 10.5 c 128,-1,13
 53 28 53 28 53 52 c 1,14,-1
 53 52 l 1,0,1
EndSplineSet
Validated: 5
EndChar

StartChar: quotedblleft
Encoding: 8220 8220 76
Width: 398
GlyphClass: 1
Flags: W
LayerCount: 2
Fore
SplineSet
216 482 m 1,0,1
 216 494 216 494 221 507 c 2,2,-1
 283 668 l 1,3,-1
 338 668 l 1,4,-1
 292 546 l 1,5,6
 315 542 315 542 330 524 c 128,-1,7
 345 506 345 506 345 482 c 0,8,9
 345 455 345 455 326 436.5 c 128,-1,10
 307 418 307 418 281 418 c 0,11,12
 254 418 254 418 235 437 c 128,-1,13
 216 456 216 456 216 482 c 1,14,-1
 216 482 l 1,0,1
58 507 m 1,15,-1
 120 668 l 1,16,-1
 175 668 l 1,17,-1
 128 546 l 1,18,19
 151 542 151 542 166.5 524 c 128,-1,20
 182 506 182 506 182 482 c 0,21,22
 182 455 182 455 163 436.5 c 128,-1,23
 144 418 144 418 118 418 c 0,24,25
 91 418 91 418 72 437 c 128,-1,26
 53 456 53 456 53 482 c 0,27,28
 53 494 53 494 58 507 c 1,29,-1
 58 507 l 1,15,-1
EndSplineSet
Validated: 5
EndChar

StartChar: quotedblright
Encoding: 8221 8221 77
Width: 398
GlyphClass: 1
Flags: W
LayerCount: 2
Fore
SplineSet
216 615 m 1,0,1
 216 642 216 642 235 661 c 128,-1,2
 254 680 254 680 281 680 c 256,3,4
 308 680 308 680 326.5 661 c 128,-1,5
 345 642 345 642 345 616 c 0,6,7
 345 604 345 604 340 591 c 2,8,-1
 279 429 l 1,9,-1
 223 429 l 1,10,-1
 270 552 l 1,11,12
 247 556 247 556 231.5 573.5 c 128,-1,13
 216 591 216 591 216 615 c 1,14,-1
 216 615 l 1,0,1
117 680 m 1,15,16
 144 680 144 680 163 661 c 128,-1,17
 182 642 182 642 182 616 c 0,18,19
 182 604 182 604 177 591 c 2,20,-1
 115 429 l 1,21,-1
 60 429 l 1,22,-1
 107 552 l 1,23,24
 84 556 84 556 68.5 573.5 c 128,-1,25
 53 591 53 591 53 615 c 0,26,27
 53 642 53 642 72 661 c 128,-1,28
 91 680 91 680 117 680 c 1,29,-1
 117 680 l 1,15,16
EndSplineSet
Validated: 5
EndChar

StartChar: quotedblbase
Encoding: 8222 8222 78
Width: 398
GlyphClass: 1
Flags: W
LayerCount: 2
Fore
SplineSet
216 52 m 1,0,1
 216 79 216 79 235 98 c 128,-1,2
 254 117 254 117 281 117 c 256,3,4
 308 117 308 117 326.5 98 c 128,-1,5
 345 79 345 79 345 53 c 0,6,7
 345 41 345 41 340 28 c 2,8,-1
 279 -134 l 1,9,-1
 223 -134 l 1,10,-1
 270 -11 l 1,11,12
 247 -7 247 -7 231.5 10.5 c 128,-1,13
 216 28 216 28 216 52 c 1,14,-1
 216 52 l 1,0,1
117 117 m 1,15,16
 144 117 144 117 163 98 c 128,-1,17
 182 79 182 79 182 53 c 0,18,19
 182 41 182 41 177 28 c 2,20,-1
 115 -134 l 1,21,-1
 60 -134 l 1,22,-1
 107 -11 l 1,23,24
 84 -7 84 -7 68.5 10.5 c 128,-1,25
 53 28 53 28 53 52 c 0,26,27
 53 79 53 79 72 98 c 128,-1,28
 91 117 91 117 117 117 c 1,29,-1
 117 117 l 1,15,16
EndSplineSet
Validated: 5
EndChar

StartChar: dagger
Encoding: 8224 8224 79
Width: 541
GlyphClass: 1
Flags: W
LayerCount: 2
Fore
SplineSet
40 496 m 1,0,-1
 230 496 l 1,1,-1
 230 668 l 1,2,-1
 311 668 l 1,3,-1
 311 496 l 1,4,-1
 501 496 l 1,5,-1
 501 416 l 1,6,-1
 311 416 l 1,7,-1
 311 0 l 1,8,-1
 230 0 l 1,9,-1
 230 416 l 1,10,-1
 40 416 l 1,11,-1
 40 496 l 1,0,-1
EndSplineSet
Validated: 1
EndChar

StartChar: daggerdbl
Encoding: 8225 8225 80
Width: 541
GlyphClass: 1
Flags: W
LayerCount: 2
Fore
SplineSet
40 172 m 1,0,-1
 40 251 l 1,1,-1
 230 251 l 1,2,-1
 230 416 l 1,3,-1
 40 416 l 1,4,-1
 40 496 l 1,5,-1
 230 496 l 1,6,-1
 230 668 l 1,7,-1
 311 668 l 1,8,-1
 311 496 l 1,9,-1
 501 496 l 1,10,-1
 501 416 l 1,11,-1
 311 416 l 1,12,-1
 311 251 l 1,13,-1
 501 251 l 1,14,-1
 501 172 l 1,15,-1
 311 172 l 1,16,-1
 311 0 l 1,17,-1
 230 0 l 1,18,-1
 230 172 l 1,19,-1
 40 172 l 1,0,-1
EndSplineSet
Validated: 1
EndChar

StartChar: bullet
Encoding: 8226 8226 81
Width: 438
GlyphClass: 1
Flags: W
LayerCount: 2
Fore
SplineSet
53 254 m 1,0,1
 53 289 53 289 66 319 c 128,-1,2
 79 349 79 349 101.5 371.5 c 128,-1,3
 124 394 124 394 154.5 407 c 128,-1,4
 185 420 185 420 219 420 c 0,5,6
 254 420 254 420 284 407 c 128,-1,7
 314 394 314 394 336.5 371.5 c 128,-1,8
 359 349 359 349 372 319 c 128,-1,9
 385 289 385 289 385 254 c 0,10,11
 385 220 385 220 372 189.5 c 128,-1,12
 359 159 359 159 336.5 136.5 c 128,-1,13
 314 114 314 114 284 101 c 128,-1,14
 254 88 254 88 219 88 c 0,15,16
 185 88 185 88 154.5 101 c 128,-1,17
 124 114 124 114 101.5 136.5 c 128,-1,18
 79 159 79 159 66 189.5 c 128,-1,19
 53 220 53 220 53 254 c 1,20,-1
 53 254 l 1,0,1
EndSplineSet
Validated: 5
EndChar

StartChar: ellipsis
Encoding: 8230 8230 82
Width: 696
GlyphClass: 1
Flags: W
LayerCount: 2
Fore
SplineSet
348 117 m 1,0,1
 375 117 375 117 394 98 c 128,-1,2
 413 79 413 79 413 52 c 0,3,4
 413 26 413 26 394 7 c 128,-1,5
 375 -12 375 -12 348 -12 c 256,6,7
 321 -12 321 -12 302.5 7 c 128,-1,8
 284 26 284 26 284 52 c 0,9,10
 284 79 284 79 302.5 98 c 128,-1,11
 321 117 321 117 348 117 c 1,12,-1
 348 117 l 1,0,1
579 117 m 1,13,14
 605 117 605 117 624 98 c 128,-1,15
 643 79 643 79 643 52 c 0,16,17
 643 26 643 26 624 7 c 128,-1,18
 605 -12 605 -12 579 -12 c 0,19,20
 552 -12 552 -12 533 7 c 128,-1,21
 514 26 514 26 514 52 c 0,22,23
 514 79 514 79 533 98 c 128,-1,24
 552 117 552 117 579 117 c 1,25,-1
 579 117 l 1,13,14
117 117 m 1,26,27
 144 117 144 117 163 98 c 128,-1,28
 182 79 182 79 182 52 c 0,29,30
 182 26 182 26 163 7 c 128,-1,31
 144 -12 144 -12 117 -12 c 0,32,33
 91 -12 91 -12 72 7 c 128,-1,34
 53 26 53 26 53 52 c 0,35,36
 53 79 53 79 72 98 c 128,-1,37
 91 117 91 117 117 117 c 1,38,-1
 117 117 l 1,26,27
EndSplineSet
Validated: 5
EndChar

StartChar: perthousand
Encoding: 8240 8240 83
Width: 1328
GlyphClass: 1
Flags: W
LayerCount: 2
Fore
SplineSet
38 498 m 1,0,1
 38 536 38 536 52 569 c 128,-1,2
 66 602 66 602 91 626.5 c 128,-1,3
 116 651 116 651 149 665.5 c 128,-1,4
 182 680 182 680 220 680 c 256,5,6
 258 680 258 680 290.5 665.5 c 128,-1,7
 323 651 323 651 348 626.5 c 128,-1,8
 373 602 373 602 387 569 c 128,-1,9
 401 536 401 536 401 498 c 0,10,11
 401 461 401 461 387 427.5 c 128,-1,12
 373 394 373 394 348 369.5 c 128,-1,13
 323 345 323 345 290.5 330.5 c 128,-1,14
 258 316 258 316 220 316 c 256,15,16
 182 316 182 316 149 330.5 c 128,-1,17
 116 345 116 345 91 369.5 c 128,-1,18
 66 394 66 394 52 427.5 c 128,-1,19
 38 461 38 461 38 498 c 1,20,-1
 38 498 l 1,0,1
708 351 m 1,21,22
 746 351 746 351 778.5 337 c 128,-1,23
 811 323 811 323 836 298 c 128,-1,24
 861 273 861 273 875 240 c 128,-1,25
 889 207 889 207 889 169 c 0,26,27
 889 132 889 132 875 99 c 128,-1,28
 861 66 861 66 836 41 c 128,-1,29
 811 16 811 16 778.5 2 c 128,-1,30
 746 -12 746 -12 708 -12 c 256,31,32
 670 -12 670 -12 637 2 c 128,-1,33
 604 16 604 16 579 41 c 128,-1,34
 554 66 554 66 540 99 c 128,-1,35
 526 132 526 132 526 169 c 0,36,37
 526 207 526 207 540 240 c 128,-1,38
 554 273 554 273 579 298 c 128,-1,39
 604 323 604 323 637 337 c 128,-1,40
 670 351 670 351 708 351 c 1,41,-1
 708 351 l 1,21,22
927 169 m 1,42,43
 927 207 927 207 941 240 c 128,-1,44
 955 273 955 273 980 298 c 128,-1,45
 1005 323 1005 323 1038 337 c 128,-1,46
 1071 351 1071 351 1109 351 c 256,47,48
 1147 351 1147 351 1179.5 337 c 128,-1,49
 1212 323 1212 323 1237 298 c 128,-1,50
 1262 273 1262 273 1276 240 c 128,-1,51
 1290 207 1290 207 1290 169 c 0,52,53
 1290 132 1290 132 1276 99 c 128,-1,54
 1262 66 1262 66 1237 41 c 128,-1,55
 1212 16 1212 16 1179.5 2 c 128,-1,56
 1147 -12 1147 -12 1109 -12 c 256,57,58
 1071 -12 1071 -12 1038 2 c 128,-1,59
 1005 16 1005 16 980 41 c 128,-1,60
 955 66 955 66 941 99 c 128,-1,61
 927 132 927 132 927 169 c 1,62,-1
 927 169 l 1,42,43
1001 169 m 1,63,64
 1001 147 1001 147 1009.5 127.5 c 128,-1,65
 1018 108 1018 108 1032.5 93.5 c 128,-1,66
 1047 79 1047 79 1067 70.5 c 128,-1,67
 1087 62 1087 62 1109 62 c 256,68,69
 1131 62 1131 62 1150.5 70.5 c 128,-1,70
 1170 79 1170 79 1184.5 93.5 c 128,-1,71
 1199 108 1199 108 1207.5 127.5 c 128,-1,72
 1216 147 1216 147 1216 169 c 0,73,74
 1216 192 1216 192 1207.5 211.5 c 128,-1,75
 1199 231 1199 231 1184.5 245.5 c 128,-1,76
 1170 260 1170 260 1150.5 268.5 c 128,-1,77
 1131 277 1131 277 1109 277 c 256,78,79
 1087 277 1087 277 1067 268.5 c 128,-1,80
 1047 260 1047 260 1032.5 245.5 c 128,-1,81
 1018 231 1018 231 1009.5 211.5 c 128,-1,82
 1001 192 1001 192 1001 169 c 1,83,-1
 1001 169 l 1,63,64
600 169 m 1,84,85
 600 147 600 147 608.5 127.5 c 128,-1,86
 617 108 617 108 631.5 93.5 c 128,-1,87
 646 79 646 79 666 70.5 c 128,-1,88
 686 62 686 62 708 62 c 256,89,90
 730 62 730 62 749.5 70.5 c 128,-1,91
 769 79 769 79 783.5 93.5 c 128,-1,92
 798 108 798 108 806.5 127.5 c 128,-1,93
 815 147 815 147 815 169 c 0,94,95
 815 192 815 192 806.5 211.5 c 128,-1,96
 798 231 798 231 783.5 245.5 c 128,-1,97
 769 260 769 260 749.5 268.5 c 128,-1,98
 730 277 730 277 708 277 c 256,99,100
 686 277 686 277 666 268.5 c 128,-1,101
 646 260 646 260 631.5 245.5 c 128,-1,102
 617 231 617 231 608.5 211.5 c 128,-1,103
 600 192 600 192 600 169 c 1,104,-1
 600 169 l 1,84,85
112 498 m 1,105,106
 112 476 112 476 120.5 456.5 c 128,-1,107
 129 437 129 437 144 422.5 c 128,-1,108
 159 408 159 408 178.5 399.5 c 128,-1,109
 198 391 198 391 220 391 c 256,110,111
 242 391 242 391 261.5 399.5 c 128,-1,112
 281 408 281 408 295.5 422.5 c 128,-1,113
 310 437 310 437 318.5 456.5 c 128,-1,114
 327 476 327 476 327 498 c 256,115,116
 327 520 327 520 318.5 539.5 c 128,-1,117
 310 559 310 559 295.5 573.5 c 128,-1,118
 281 588 281 588 261.5 596.5 c 128,-1,119
 242 605 242 605 220 605 c 256,120,121
 198 605 198 605 178.5 596.5 c 128,-1,122
 159 588 159 588 144 573.5 c 128,-1,123
 129 559 129 559 120.5 539.5 c 128,-1,124
 112 520 112 520 112 498 c 1,125,-1
 112 498 l 1,105,106
186 0 m 1,126,-1
 654 668 l 1,127,-1
 742 668 l 1,128,-1
 274 0 l 1,129,-1
 186 0 l 1,126,-1
EndSplineSet
Validated: 5
EndChar

StartChar: guilsinglleft
Encoding: 8249 8249 84
Width: 353
GlyphClass: 1
Flags: W
LayerCount: 2
Fore
SplineSet
53 250 m 1,0,-1
 201 461 l 1,1,-1
 300 461 l 1,2,-1
 151 250 l 1,3,-1
 300 40 l 1,4,-1
 201 40 l 1,5,-1
 53 250 l 1,0,-1
EndSplineSet
Validated: 1
EndChar

StartChar: guilsinglright
Encoding: 8250 8250 85
Width: 353
GlyphClass: 1
Flags: W
LayerCount: 2
Fore
SplineSet
202 250 m 1,0,-1
 53 461 l 1,1,-1
 153 461 l 1,2,-1
 300 250 l 1,3,-1
 153 40 l 1,4,-1
 53 40 l 1,5,-1
 202 250 l 1,0,-1
EndSplineSet
Validated: 1
EndChar

StartChar: fraction
Encoding: 8260 8260 86
Width: 586
GlyphClass: 1
Flags: W
LayerCount: 2
Fore
SplineSet
483 668 m 1,0,-1
 571 668 l 1,1,-1
 103 0 l 1,2,-1
 15 0 l 1,3,-1
 483 668 l 1,0,-1
EndSplineSet
Validated: 1
EndChar

StartChar: ordfeminine
Encoding: 170 170 87
Width: 371
GlyphClass: 1
Flags: W
LayerCount: 2
Fore
SplineSet
239 578 m 1,0,1
 239 590 239 590 238 601.5 c 128,-1,2
 237 613 237 613 231.5 622.5 c 128,-1,3
 226 632 226 632 215.5 637.5 c 128,-1,4
 205 643 205 643 186 643 c 0,5,6
 164 643 164 643 149 634.5 c 128,-1,7
 134 626 134 626 129 607 c 1,8,-1
 68 625 l 1,9,10
 79 655 79 655 110 673.5 c 128,-1,11
 141 692 141 692 189 692 c 0,12,13
 213 692 213 692 234 686.5 c 128,-1,14
 255 681 255 681 271.5 667 c 128,-1,15
 288 653 288 653 297.5 630.5 c 128,-1,16
 307 608 307 608 307 573 c 2,17,-1
 307 491 l 2,18,19
 307 468 307 468 310 447 c 128,-1,20
 313 426 313 426 318 403 c 1,21,-1
 260 403 l 1,22,-1
 248 442 l 1,23,24
 235 417 235 417 207 407 c 128,-1,25
 179 397 179 397 152 397 c 0,26,27
 106 397 106 397 79.5 419.5 c 128,-1,28
 53 442 53 442 53 478 c 0,29,30
 53 506 53 506 68.5 524 c 128,-1,31
 84 542 84 542 109.5 553 c 128,-1,32
 135 564 135 564 168.5 569.5 c 128,-1,33
 202 575 202 575 239 578 c 1,34,-1
 239 578 l 1,0,1
123 483 m 1,35,36
 123 466 123 466 136 457 c 128,-1,37
 149 448 149 448 172 448 c 0,38,39
 207 448 207 448 223 468.5 c 128,-1,40
 239 489 239 489 239 519 c 2,41,-1
 239 530 l 1,42,43
 172 523 172 523 147.5 513 c 128,-1,44
 123 503 123 503 123 483 c 1,45,-1
 123 483 l 1,35,36
EndSplineSet
Validated: 5
EndChar

StartChar: guillemotleft
Encoding: 171 171 88
Width: 562
GlyphClass: 1
Flags: W
LayerCount: 2
Fore
SplineSet
201 461 m 1,0,-1
 300 461 l 1,1,-1
 151 251 l 1,2,-1
 300 40 l 1,3,-1
 201 40 l 1,4,-1
 53 251 l 1,5,-1
 201 461 l 1,0,-1
409 461 m 1,6,-1
 509 461 l 1,7,-1
 359 251 l 1,8,-1
 509 40 l 1,9,-1
 409 40 l 1,10,-1
 262 251 l 1,11,-1
 409 461 l 1,6,-1
EndSplineSet
Validated: 1
EndChar

StartChar: logicalnot
Encoding: 172 172 89
Width: 602
GlyphClass: 1
Flags: W
LayerCount: 2
Fore
SplineSet
53 396 m 1,0,-1
 549 396 l 1,1,-1
 549 90 l 1,2,-1
 468 90 l 1,3,-1
 468 317 l 1,4,-1
 53 317 l 1,5,-1
 53 396 l 1,0,-1
EndSplineSet
Validated: 1
EndChar

StartChar: registered
Encoding: 174 174 90
Width: 798
GlyphClass: 1
Flags: W
LayerCount: 2
Fore
SplineSet
399 680 m 1,0,1
 471 680 471 680 534 653 c 128,-1,2
 597 626 597 626 644 578.5 c 128,-1,3
 691 531 691 531 718 468 c 128,-1,4
 745 405 745 405 745 333 c 0,5,6
 745 262 745 262 718 199 c 128,-1,7
 691 136 691 136 644 89 c 128,-1,8
 597 42 597 42 534 15 c 128,-1,9
 471 -12 471 -12 399 -12 c 256,10,11
 327 -12 327 -12 264 15 c 128,-1,12
 201 42 201 42 154 89 c 128,-1,13
 107 136 107 136 80 199 c 128,-1,14
 53 262 53 262 53 333 c 0,15,16
 53 405 53 405 80 468 c 128,-1,17
 107 531 107 531 154 578.5 c 128,-1,18
 201 626 201 626 264 653 c 128,-1,19
 327 680 327 680 399 680 c 1,20,-1
 399 680 l 1,0,1
399 49 m 1,21,22
 458 49 458 49 509.5 71.5 c 128,-1,23
 561 94 561 94 599.5 132.5 c 128,-1,24
 638 171 638 171 660.5 223 c 128,-1,25
 683 275 683 275 683 333 c 0,26,27
 683 392 683 392 660.5 444 c 128,-1,28
 638 496 638 496 599.5 535 c 128,-1,29
 561 574 561 574 509.5 596.5 c 128,-1,30
 458 619 458 619 399 619 c 256,31,32
 340 619 340 619 288.5 596.5 c 128,-1,33
 237 574 237 574 198.5 535 c 128,-1,34
 160 496 160 496 137.5 444 c 128,-1,35
 115 392 115 392 115 333 c 0,36,37
 115 275 115 275 137.5 223 c 128,-1,38
 160 171 160 171 198.5 132.5 c 128,-1,39
 237 94 237 94 288.5 71.5 c 128,-1,40
 340 49 340 49 399 49 c 1,41,-1
 399 49 l 1,21,22
264 162 m 1,42,-1
 264 530 l 1,43,-1
 376 530 l 2,44,45
 417 530 417 530 449 525.5 c 128,-1,46
 481 521 481 521 503.5 508.5 c 128,-1,47
 526 496 526 496 538 473 c 128,-1,48
 550 450 550 450 550 414 c 0,49,50
 550 402 550 402 547 387.5 c 128,-1,51
 544 373 544 373 534.5 358.5 c 128,-1,52
 525 344 525 344 508 331.5 c 128,-1,53
 491 319 491 319 462 311 c 1,54,-1
 570 162 l 1,55,-1
 484 162 l 1,56,-1
 382 301 l 1,57,-1
 340 301 l 1,58,-1
 340 162 l 1,59,-1
 264 162 l 1,60,-1
 264 162 l 1,42,-1
340 469 m 1,61,-1
 340 359 l 1,62,-1
 393 359 l 2,63,64
 436 359 436 359 455 373 c 128,-1,65
 474 387 474 387 474 413 c 0,66,67
 474 447 474 447 450 458 c 128,-1,68
 426 469 426 469 388 469 c 2,69,-1
 340 469 l 1,70,-1
 340 469 l 1,61,-1
EndSplineSet
Validated: 5
EndChar

StartChar: macron
Encoding: 175 175 91
Width: 382
GlyphClass: 1
Flags: W
LayerCount: 2
Fore
SplineSet
53 668 m 1,0,-1
 329 668 l 1,1,-1
 329 601 l 1,2,-1
 53 601 l 1,3,-1
 53 668 l 1,0,-1
EndSplineSet
Validated: 1
Substitution2: "'case' Case-Sensitive Forms lookup 1 subtable" macron.case
EndChar

StartChar: degree
Encoding: 176 176 92
Width: 352
GlyphClass: 1
Flags: W
LayerCount: 2
Fore
SplineSet
40 544 m 1,0,1
 40 572 40 572 50.5 597 c 128,-1,2
 61 622 61 622 79.5 640.5 c 128,-1,3
 98 659 98 659 123 669.5 c 128,-1,4
 148 680 148 680 176 680 c 256,5,6
 204 680 204 680 229 669.5 c 128,-1,7
 254 659 254 659 272.5 640.5 c 128,-1,8
 291 622 291 622 301.5 597 c 128,-1,9
 312 572 312 572 312 544 c 256,10,11
 312 516 312 516 301.5 491 c 128,-1,12
 291 466 291 466 272.5 447.5 c 128,-1,13
 254 429 254 429 229 418.5 c 128,-1,14
 204 408 204 408 176 408 c 256,15,16
 148 408 148 408 123 418.5 c 128,-1,17
 98 429 98 429 79.5 447.5 c 128,-1,18
 61 466 61 466 50.5 491 c 128,-1,19
 40 516 40 516 40 544 c 1,20,-1
 40 544 l 1,0,1
103 544 m 1,21,22
 103 514 103 514 124.5 492.5 c 128,-1,23
 146 471 146 471 176 471 c 0,24,25
 207 471 207 471 228 492.5 c 128,-1,26
 249 514 249 514 249 544 c 0,27,28
 249 575 249 575 228 596 c 128,-1,29
 207 617 207 617 176 617 c 0,30,31
 146 617 146 617 124.5 596 c 128,-1,32
 103 575 103 575 103 544 c 1,33,-1
 103 544 l 1,21,22
EndSplineSet
Validated: 5
EndChar

StartChar: plusminus
Encoding: 177 177 93
Width: 579
GlyphClass: 1
Flags: W
LayerCount: 2
Fore
SplineSet
53 270 m 1,0,-1
 53 349 l 1,1,-1
 250 349 l 1,2,-1
 250 496 l 1,3,-1
 329 496 l 1,4,-1
 329 349 l 1,5,-1
 526 349 l 1,6,-1
 526 270 l 1,7,-1
 329 270 l 1,8,-1
 329 124 l 1,9,-1
 250 124 l 1,10,-1
 250 270 l 1,11,-1
 53 270 l 1,0,-1
526 79 m 1,12,-1
 526 0 l 1,13,-1
 53 0 l 1,14,-1
 53 79 l 1,15,-1
 526 79 l 1,12,-1
EndSplineSet
Validated: 1
EndChar

StartChar: uni00B2
Encoding: 178 178 94
Width: 382
GlyphClass: 1
Flags: W
LayerCount: 2
Fore
SplineSet
53 403 m 1,0,-1
 53 458 l 1,1,2
 99 494 99 494 135.5 525 c 128,-1,3
 172 556 172 556 197.5 583 c 128,-1,4
 223 610 223 610 236.5 634.5 c 128,-1,5
 250 659 250 659 250 682 c 0,6,7
 250 708 250 708 234.5 722 c 128,-1,8
 219 736 219 736 193 736 c 0,9,10
 170 736 170 736 151.5 722.5 c 128,-1,11
 133 709 133 709 129 677 c 1,12,-1
 65 695 l 1,13,14
 76 737 76 737 110 761.5 c 128,-1,15
 144 786 144 786 196 786 c 0,16,17
 249 786 249 786 284.5 760 c 128,-1,18
 320 734 320 734 320 686 c 0,19,20
 320 630 320 630 271 575.5 c 128,-1,21
 222 521 222 521 134 461 c 1,22,-1
 329 461 l 1,23,-1
 329 403 l 1,24,-1
 53 403 l 1,25,-1
 53 403 l 1,0,-1
EndSplineSet
Validated: 5
EndChar

StartChar: uni00B3
Encoding: 179 179 95
Width: 383
GlyphClass: 1
Flags: W
LayerCount: 2
Fore
SplineSet
53 486 m 1,0,-1
 115 504 l 1,1,2
 123 481 123 481 140 464.5 c 128,-1,3
 157 448 157 448 188 448 c 256,4,5
 219 448 219 448 240 464 c 128,-1,6
 261 480 261 480 261 509 c 0,7,8
 261 535 261 535 248.5 548 c 128,-1,9
 236 561 236 561 218.5 566.5 c 128,-1,10
 201 572 201 572 182 572 c 128,-1,11
 163 572 163 572 151 572 c 1,12,-1
 151 626 l 1,13,14
 161 626 161 626 178 626 c 128,-1,15
 195 626 195 626 211.5 631 c 128,-1,16
 228 636 228 636 240 648 c 128,-1,17
 252 660 252 660 252 683 c 0,18,19
 252 711 252 711 233 723.5 c 128,-1,20
 214 736 214 736 190 736 c 0,21,22
 135 736 135 736 119 683 c 1,23,-1
 58 701 l 1,24,25
 71 741 71 741 106 763.5 c 128,-1,26
 141 786 141 786 194 786 c 0,27,28
 217 786 217 786 240 780 c 128,-1,29
 263 774 263 774 281 762 c 128,-1,30
 299 750 299 750 310 731 c 128,-1,31
 321 712 321 712 321 685 c 256,32,33
 321 658 321 658 306 636 c 128,-1,34
 291 614 291 614 268 602 c 1,35,36
 299 590 299 590 314.5 565 c 128,-1,37
 330 540 330 540 330 511 c 256,38,39
 330 482 330 482 318.5 460.5 c 128,-1,40
 307 439 307 439 287 425 c 128,-1,41
 267 411 267 411 241.5 404 c 128,-1,42
 216 397 216 397 187 397 c 0,43,44
 133 397 133 397 99.5 422.5 c 128,-1,45
 66 448 66 448 53 486 c 1,46,-1
 53 486 l 1,0,-1
EndSplineSet
Validated: 5
EndChar

StartChar: acute
Encoding: 180 180 96
Width: 268
GlyphClass: 1
Flags: W
LayerCount: 2
Fore
SplineSet
53 571 m 1,0,1
 56 575 56 575 69 592 c 128,-1,2
 82 609 82 609 97.5 629 c 128,-1,3
 113 649 113 649 127.5 668 c 128,-1,4
 142 687 142 687 149 694 c 0,5,6
 154 701 154 701 161.5 704 c 128,-1,7
 169 707 169 707 177 707 c 0,8,9
 193 707 193 707 203 697 c 0,10,11
 215 687 215 687 215 669 c 0,12,13
 215 662 215 662 212.5 655.5 c 128,-1,14
 210 649 210 649 202 641 c 0,15,16
 196 635 196 635 184 624 c 128,-1,17
 172 613 172 613 159 601.5 c 128,-1,18
 146 590 146 590 135.5 581.5 c 128,-1,19
 125 573 125 573 123 571 c 2,20,-1
 53 571 l 1,21,-1
 53 571 l 1,0,1
EndSplineSet
Validated: 5
Substitution2: "'case' Case-Sensitive Forms lookup 1 subtable" acute.case
EndChar

StartChar: uni03BC
Encoding: 956 956 97
Width: 538
GlyphClass: 1
Flags: W
LayerCount: 2
Fore
SplineSet
70 -162 m 1,0,-1
 70 497 l 1,1,-1
 154 497 l 1,2,-1
 154 191 l 2,3,4
 154 164 154 164 158 140.5 c 128,-1,5
 162 117 162 117 173.5 99.5 c 128,-1,6
 185 82 185 82 205.5 72 c 128,-1,7
 226 62 226 62 258 62 c 0,8,9
 318 62 318 62 351 103 c 128,-1,10
 384 144 384 144 384 224 c 2,11,-1
 384 497 l 1,12,-1
 468 497 l 1,13,-1
 468 0 l 1,14,-1
 405 0 l 1,15,-1
 384 72 l 1,16,17
 374 54 374 54 362.5 38.5 c 128,-1,18
 351 23 351 23 336 12 c 128,-1,19
 321 1 321 1 301.5 -5.5 c 128,-1,20
 282 -12 282 -12 254 -12 c 0,21,22
 222 -12 222 -12 197.5 2 c 128,-1,23
 173 16 173 16 154 41 c 1,24,-1
 154 -162 l 1,25,-1
 70 -162 l 1,26,-1
 70 -162 l 1,0,-1
EndSplineSet
Validated: 5
EndChar

StartChar: paragraph
Encoding: 182 182 98
Width: 508
GlyphClass: 1
Flags: W
LayerCount: 2
Fore
SplineSet
38 479 m 1,0,1
 38 518 38 518 53 552.5 c 128,-1,2
 68 587 68 587 93.5 612.5 c 128,-1,3
 119 638 119 638 153.5 653 c 128,-1,4
 188 668 188 668 227 668 c 2,5,-1
 483 668 l 1,6,-1
 483 601 l 1,7,-1
 443 601 l 1,8,-1
 443 -161 l 1,9,-1
 362 -161 l 1,10,-1
 362 601 l 1,11,-1
 268 601 l 1,12,-1
 268 -161 l 1,13,-1
 187 -161 l 1,14,-1
 187 294 l 1,15,16
 155 301 155 301 128 318 c 128,-1,17
 101 335 101 335 81 359.5 c 128,-1,18
 61 384 61 384 49.5 414.5 c 128,-1,19
 38 445 38 445 38 479 c 1,20,-1
 38 479 l 1,0,1
EndSplineSet
Validated: 5
EndChar

StartChar: periodcentered
Encoding: 183 183 99
Width: 235
GlyphClass: 1
Flags: W
LayerCount: 2
Fore
SplineSet
53 248 m 1,0,1
 53 274 53 274 72 293 c 128,-1,2
 91 312 91 312 117 312 c 0,3,4
 144 312 144 312 163 293 c 128,-1,5
 182 274 182 274 182 248 c 0,6,7
 182 221 182 221 163 202 c 128,-1,8
 144 183 144 183 117 183 c 0,9,10
 91 183 91 183 72 202 c 128,-1,11
 53 221 53 221 53 248 c 1,12,-1
 53 248 l 1,0,1
EndSplineSet
Validated: 5
EndChar

StartChar: cedilla
Encoding: 184 184 100
Width: 291
GlyphClass: 1
Flags: W
LayerCount: 2
Fore
SplineSet
87 -126 m 1,0,1
 119 -140 119 -140 145 -140 c 256,2,3
 171 -140 171 -140 183.5 -129 c 128,-1,4
 196 -118 196 -118 196 -106 c 0,5,6
 196 -96 196 -96 187.5 -88.5 c 128,-1,7
 179 -81 179 -81 160 -81 c 0,8,9
 149 -81 149 -81 129 -86 c 0,10,11
 115 -90 115 -90 108 -83 c 128,-1,12
 101 -76 101 -76 101 -67 c 0,13,14
 101 -62 101 -62 104 -57 c 2,15,-1
 155 25 l 1,16,-1
 189 4 l 1,17,-1
 159 -45 l 1,18,19
 167 -43 167 -43 174.5 -42 c 128,-1,20
 182 -41 182 -41 189 -41 c 0,21,22
 224 -41 224 -41 241 -59.5 c 128,-1,23
 258 -78 258 -78 258 -102 c 0,24,25
 258 -116 258 -116 252 -130.5 c 128,-1,26
 246 -145 246 -145 234 -156 c 128,-1,27
 222 -167 222 -167 203.5 -174 c 128,-1,28
 185 -181 185 -181 161 -181 c 0,29,30
 122 -181 122 -181 73 -161 c 1,31,-1
 87 -126 l 1,32,-1
 87 -126 l 1,0,1
EndSplineSet
Validated: 5
EndChar

StartChar: uni00B9
Encoding: 185 185 101
Width: 256
GlyphClass: 1
Flags: W
LayerCount: 2
Fore
SplineSet
53 683 m 1,0,-1
 53 730 l 1,1,2
 86 730 86 730 111.5 740.5 c 128,-1,3
 137 751 137 751 147 779 c 1,4,-1
 203 779 l 1,5,-1
 203 403 l 1,6,-1
 136 403 l 1,7,-1
 136 683 l 1,8,-1
 53 683 l 1,9,-1
 53 683 l 1,0,-1
EndSplineSet
Validated: 5
EndChar

StartChar: ordmasculine
Encoding: 186 186 102
Width: 381
GlyphClass: 1
Flags: W
LayerCount: 2
Fore
SplineSet
57 545 m 1,0,1
 57 583 57 583 68.5 610.5 c 128,-1,2
 80 638 80 638 99 656 c 128,-1,3
 118 674 118 674 142.5 683 c 128,-1,4
 167 692 167 692 194 692 c 256,5,6
 221 692 221 692 245.5 683 c 128,-1,7
 270 674 270 674 289.5 656 c 128,-1,8
 309 638 309 638 320.5 610.5 c 128,-1,9
 332 583 332 583 332 545 c 0,10,11
 332 508 332 508 320.5 480 c 128,-1,12
 309 452 309 452 289.5 434 c 128,-1,13
 270 416 270 416 245.5 407 c 128,-1,14
 221 398 221 398 194 398 c 256,15,16
 167 398 167 398 142.5 407 c 128,-1,17
 118 416 118 416 99 434 c 128,-1,18
 80 452 80 452 68.5 480 c 128,-1,19
 57 508 57 508 57 545 c 1,20,-1
 57 545 l 1,0,1
126 545 m 1,21,22
 126 500 126 500 145.5 476 c 128,-1,23
 165 452 165 452 194 452 c 0,24,25
 224 452 224 452 243.5 476 c 128,-1,26
 263 500 263 500 263 545 c 256,27,28
 263 590 263 590 243.5 614 c 128,-1,29
 224 638 224 638 194 638 c 0,30,31
 165 638 165 638 145.5 614 c 128,-1,32
 126 590 126 590 126 545 c 1,33,-1
 126 545 l 1,21,22
EndSplineSet
Validated: 5
EndChar

StartChar: guillemotright
Encoding: 187 187 103
Width: 562
GlyphClass: 1
Flags: W
LayerCount: 2
Fore
SplineSet
53 461 m 1,0,-1
 153 461 l 1,1,-1
 300 251 l 1,2,-1
 153 40 l 1,3,-1
 53 40 l 1,4,-1
 202 251 l 1,5,-1
 53 461 l 1,0,-1
361 461 m 1,6,-1
 509 251 l 1,7,-1
 361 40 l 1,8,-1
 262 40 l 1,9,-1
 411 251 l 1,10,-1
 262 461 l 1,11,-1
 361 461 l 1,6,-1
EndSplineSet
Validated: 1
EndChar

StartChar: onequarter
Encoding: 188 188 104
Width: 826
GlyphClass: 1
Flags: W
LayerCount: 2
Fore
SplineSet
53 619 m 1,0,1
 86 619 86 619 111.5 629 c 128,-1,2
 137 639 137 639 147 668 c 1,3,-1
 204 668 l 1,4,-1
 204 292 l 1,5,-1
 136 292 l 1,6,-1
 136 571 l 1,7,-1
 53 571 l 1,8,-1
 53 619 l 1,9,-1
 53 619 l 1,0,1
115 0 m 1,10,-1
 583 668 l 1,11,-1
 671 668 l 1,12,-1
 204 0 l 1,13,-1
 115 0 l 1,10,-1
455 86 m 1,14,-1
 455 140 l 1,15,-1
 641 376 l 1,16,-1
 708 376 l 1,17,-1
 708 143 l 1,18,-1
 773 143 l 1,19,-1
 773 86 l 1,20,-1
 708 86 l 1,21,-1
 708 0 l 1,22,-1
 640 0 l 1,23,-1
 640 86 l 1,24,-1
 455 86 l 1,14,-1
640 143 m 1,25,-1
 640 289 l 1,26,-1
 528 143 l 1,27,-1
 640 143 l 1,25,-1
EndSplineSet
Validated: 5
Ligature2: "'frac' Diagonal Fractions lookup 2 subtable" one slash four
EndChar

StartChar: onehalf
Encoding: 189 189 105
Width: 812
GlyphClass: 1
Flags: W
LayerCount: 2
Fore
SplineSet
681 278 m 1,0,1
 681 304 681 304 665.5 318 c 128,-1,2
 650 332 650 332 624 332 c 0,3,4
 601 332 601 332 582.5 318.5 c 128,-1,5
 564 305 564 305 559 273 c 1,6,-1
 495 292 l 1,7,8
 506 334 506 334 540.5 358 c 128,-1,9
 575 382 575 382 627 382 c 0,10,11
 680 382 680 382 715.5 356.5 c 128,-1,12
 751 331 751 331 751 283 c 0,13,14
 751 226 751 226 702 172 c 128,-1,15
 653 118 653 118 565 58 c 1,16,-1
 759 58 l 1,17,-1
 759 0 l 1,18,-1
 484 0 l 1,19,-1
 484 54 l 1,20,21
 530 91 530 91 566.5 122 c 128,-1,22
 603 153 603 153 628.5 180 c 128,-1,23
 654 207 654 207 667.5 231 c 128,-1,24
 681 255 681 255 681 278 c 1,25,-1
 681 278 l 1,0,1
53 619 m 1,26,27
 86 619 86 619 111.5 629 c 128,-1,28
 137 639 137 639 147 668 c 1,29,-1
 203 668 l 1,30,-1
 203 292 l 1,31,-1
 136 292 l 1,32,-1
 136 571 l 1,33,-1
 53 571 l 1,34,-1
 53 619 l 1,35,-1
 53 619 l 1,26,27
583 668 m 1,36,-1
 671 668 l 1,37,-1
 203 0 l 1,38,-1
 115 0 l 1,39,-1
 583 668 l 1,36,-1
EndSplineSet
Validated: 5
Ligature2: "'frac' Diagonal Fractions lookup 2 subtable" one slash two
EndChar

StartChar: threequarters
Encoding: 190 190 106
Width: 868
GlyphClass: 1
Flags: W
LayerCount: 2
Fore
SplineSet
53 380 m 1,0,-1
 115 398 l 1,1,2
 123 374 123 374 140 358 c 128,-1,3
 157 342 157 342 188 342 c 256,4,5
 219 342 219 342 240 358 c 128,-1,6
 261 374 261 374 261 403 c 0,7,8
 261 429 261 429 248.5 442 c 128,-1,9
 236 455 236 455 218.5 460.5 c 128,-1,10
 201 466 201 466 182 466 c 128,-1,11
 163 466 163 466 151 466 c 1,12,-1
 151 519 l 1,13,14
 161 519 161 519 178 519 c 128,-1,15
 195 519 195 519 211.5 524 c 128,-1,16
 228 529 228 529 240 541 c 128,-1,17
 252 553 252 553 252 576 c 0,18,19
 252 603 252 603 233 616 c 128,-1,20
 214 629 214 629 190 629 c 0,21,22
 161 629 161 629 144 615 c 128,-1,23
 127 601 127 601 119 576 c 1,24,-1
 58 594 l 1,25,26
 71 634 71 634 106 657 c 128,-1,27
 141 680 141 680 194 680 c 0,28,29
 217 680 217 680 240 674 c 128,-1,30
 263 668 263 668 281 655.5 c 128,-1,31
 299 643 299 643 310 624 c 128,-1,32
 321 605 321 605 321 578 c 0,33,34
 321 550 321 550 306 528.5 c 128,-1,35
 291 507 291 507 268 495 c 1,36,37
 299 484 299 484 314.5 459 c 128,-1,38
 330 434 330 434 330 405 c 256,39,40
 330 376 330 376 318.5 354.5 c 128,-1,41
 307 333 307 333 287 319 c 128,-1,42
 267 305 267 305 241.5 298 c 128,-1,43
 216 291 216 291 187 291 c 0,44,45
 133 291 133 291 99.5 316.5 c 128,-1,46
 66 342 66 342 53 380 c 1,47,-1
 53 380 l 1,0,-1
157 0 m 1,48,-1
 626 668 l 1,49,-1
 714 668 l 1,50,-1
 245 0 l 1,51,-1
 157 0 l 1,48,-1
497 86 m 1,52,-1
 497 140 l 1,53,-1
 683 376 l 1,54,-1
 751 376 l 1,55,-1
 751 143 l 1,56,-1
 815 143 l 1,57,-1
 815 86 l 1,58,-1
 751 86 l 1,59,-1
 751 0 l 1,60,-1
 682 0 l 1,61,-1
 682 86 l 1,62,-1
 497 86 l 1,52,-1
682 143 m 1,63,-1
 682 289 l 1,64,-1
 570 143 l 1,65,-1
 682 143 l 1,63,-1
EndSplineSet
Validated: 5
Ligature2: "'frac' Diagonal Fractions lookup 2 subtable" three slash four
EndChar

StartChar: less
Encoding: 60 60 107
Width: 553
GlyphClass: 1
Flags: W
LayerCount: 2
Fore
SplineSet
40 213 m 1,0,-1
 40 283 l 1,1,-1
 513 496 l 1,2,-1
 513 406 l 1,3,-1
 145 248 l 1,4,-1
 513 90 l 1,5,-1
 513 0 l 1,6,-1
 40 213 l 1,0,-1
EndSplineSet
Validated: 1
EndChar

StartChar: equal
Encoding: 61 61 108
Width: 602
GlyphClass: 1
Flags: W
LayerCount: 2
Fore
SplineSet
53 386 m 1,0,-1
 549 386 l 1,1,-1
 549 307 l 1,2,-1
 53 307 l 1,3,-1
 53 386 l 1,0,-1
549 200 m 1,4,-1
 549 121 l 1,5,-1
 53 121 l 1,6,-1
 53 200 l 1,7,-1
 549 200 l 1,4,-1
EndSplineSet
Validated: 1
EndChar

StartChar: greater
Encoding: 62 62 109
Width: 553
GlyphClass: 1
Flags: W
LayerCount: 2
Fore
SplineSet
513 283 m 1,0,-1
 513 213 l 1,1,-1
 40 0 l 1,2,-1
 40 90 l 1,3,-1
 408 248 l 1,4,-1
 40 406 l 1,5,-1
 40 496 l 1,6,-1
 513 283 l 1,0,-1
EndSplineSet
Validated: 1
EndChar

StartChar: question
Encoding: 63 63 110
Width: 520
GlyphClass: 1
Flags: W
LayerCount: 2
Fore
SplineSet
40 524 m 1,0,1
 48 560 48 560 67 589 c 128,-1,2
 86 618 86 618 115 638 c 128,-1,3
 144 658 144 658 181 669 c 128,-1,4
 218 680 218 680 261 680 c 0,5,6
 300 680 300 680 337.5 670.5 c 128,-1,7
 375 661 375 661 404.5 640.5 c 128,-1,8
 434 620 434 620 452 589 c 128,-1,9
 470 558 470 558 470 516 c 0,10,11
 470 484 470 484 459.5 456 c 128,-1,12
 449 428 449 428 431.5 405 c 128,-1,13
 414 382 414 382 391.5 362.5 c 128,-1,14
 369 343 369 343 345 328 c 0,15,16
 324 314 324 314 309 303.5 c 128,-1,17
 294 293 294 293 285 281.5 c 128,-1,18
 276 270 276 270 272 256.5 c 128,-1,19
 268 243 268 243 268 224 c 2,20,-1
 268 190 l 1,21,-1
 182 190 l 1,22,-1
 182 227 l 2,23,24
 182 256 182 256 189 277.5 c 128,-1,25
 196 299 196 299 210.5 317.5 c 128,-1,26
 225 336 225 336 246.5 352.5 c 128,-1,27
 268 369 268 369 296 387 c 0,28,29
 332 410 332 410 357 438.5 c 128,-1,30
 382 467 382 467 382 508 c 0,31,32
 382 556 382 556 347 583 c 128,-1,33
 312 610 312 610 257 610 c 0,34,35
 223 610 223 610 199 600.5 c 128,-1,36
 175 591 175 591 159 575 c 128,-1,37
 143 559 143 559 134 540 c 128,-1,38
 125 521 125 521 122 501 c 1,39,-1
 40 524 l 1,40,-1
 40 524 l 1,0,1
162 52 m 1,41,42
 162 79 162 79 181 98 c 128,-1,43
 200 117 200 117 227 117 c 256,44,45
 254 117 254 117 272.5 97.5 c 128,-1,46
 291 78 291 78 291 52 c 0,47,48
 291 33 291 33 280.5 17 c 128,-1,49
 270 1 270 1 252 -7 c 0,50,51
 239 -12 239 -12 227 -12 c 0,52,53
 202 -12 202 -12 182 5.5 c 128,-1,54
 162 23 162 23 162 52 c 1,55,-1
 162 52 l 1,41,42
EndSplineSet
Validated: 5
EndChar

StartChar: at
Encoding: 64 64 111
Width: 780
GlyphClass: 1
Flags: W
LayerCount: 2
Fore
SplineSet
396 680 m 1,0,1
 453 680 453 680 512 659 c 128,-1,2
 571 638 571 638 619.5 598 c 128,-1,3
 668 558 668 558 699 499.5 c 128,-1,4
 730 441 730 441 730 366 c 0,5,6
 730 308 730 308 716 267.5 c 128,-1,7
 702 227 702 227 680 202 c 128,-1,8
 658 177 658 177 630 166 c 128,-1,9
 602 155 602 155 575 155 c 0,10,11
 540 155 540 155 511.5 171 c 128,-1,12
 483 187 483 187 473 213 c 1,13,14
 449 184 449 184 418.5 169.5 c 128,-1,15
 388 155 388 155 357 155 c 0,16,17
 330 155 330 155 305 165.5 c 128,-1,18
 280 176 280 176 260.5 196.5 c 128,-1,19
 241 217 241 217 229.5 247.5 c 128,-1,20
 218 278 218 278 218 318 c 0,21,22
 218 375 218 375 234.5 413.5 c 128,-1,23
 251 452 251 452 278 475.5 c 128,-1,24
 305 499 305 499 340.5 509 c 128,-1,25
 376 519 376 519 413 519 c 0,26,27
 443 519 443 519 473.5 513.5 c 128,-1,28
 504 508 504 508 532 499 c 1,29,-1
 532 273 l 2,30,31
 532 251 532 251 544.5 240 c 128,-1,32
 557 229 557 229 575 229 c 0,33,34
 601 229 601 229 619 242.5 c 128,-1,35
 637 256 637 256 648 276 c 128,-1,36
 659 296 659 296 663.5 320.5 c 128,-1,37
 668 345 668 345 668 366 c 0,38,39
 668 417 668 417 646.5 463 c 128,-1,40
 625 509 625 509 588.5 543.5 c 128,-1,41
 552 578 552 578 502.5 598 c 128,-1,42
 453 618 453 618 396 618 c 0,43,44
 338 618 338 618 286 596 c 128,-1,45
 234 574 234 574 195.5 535.5 c 128,-1,46
 157 497 157 497 134.5 445.5 c 128,-1,47
 112 394 112 394 112 335 c 0,48,49
 112 271 112 271 136 218.5 c 128,-1,50
 160 166 160 166 199.5 128.5 c 128,-1,51
 239 91 239 91 290 70 c 128,-1,52
 341 49 341 49 396 49 c 0,53,54
 431 49 431 49 465.5 58 c 128,-1,55
 500 67 500 67 532 85 c 1,56,-1
 532 16 l 1,57,58
 500 2 500 2 466 -5 c 128,-1,59
 432 -12 432 -12 398 -12 c 0,60,61
 332 -12 332 -12 269 13 c 128,-1,62
 206 38 206 38 157.5 83.5 c 128,-1,63
 109 129 109 129 79.5 193 c 128,-1,64
 50 257 50 257 50 335 c 0,65,66
 50 406 50 406 77 469 c 128,-1,67
 104 532 104 532 151 579 c 128,-1,68
 198 626 198 626 261 653 c 128,-1,69
 324 680 324 680 396 680 c 1,70,-1
 396 680 l 1,0,1
369 229 m 1,71,72
 384 229 384 229 398.5 236 c 128,-1,73
 413 243 413 243 424.5 256.5 c 128,-1,74
 436 270 436 270 443.5 290.5 c 128,-1,75
 451 311 451 311 451 338 c 2,76,-1
 451 441 l 1,77,78
 440 443 440 443 429 444 c 128,-1,79
 418 445 418 445 406 445 c 0,80,81
 387 445 387 445 368.5 440 c 128,-1,82
 350 435 350 435 335 420.5 c 128,-1,83
 320 406 320 406 311 380 c 128,-1,84
 302 354 302 354 302 313 c 0,85,86
 302 270 302 270 322.5 249.5 c 128,-1,87
 343 229 343 229 369 229 c 1,88,-1
 369 229 l 1,71,72
EndSplineSet
Validated: 5
EndChar

StartChar: colon
Encoding: 58 58 112
Width: 205
GlyphClass: 1
Flags: W
LayerCount: 2
Fore
SplineSet
38 440 m 1,0,1
 38 466 38 466 57 485 c 128,-1,2
 76 504 76 504 102 504 c 0,3,4
 129 504 129 504 148 485 c 128,-1,5
 167 466 167 466 167 440 c 0,6,7
 167 413 167 413 148 394 c 128,-1,8
 129 375 129 375 102 375 c 0,9,10
 76 375 76 375 57 394 c 128,-1,11
 38 413 38 413 38 440 c 1,12,-1
 38 440 l 1,0,1
102 117 m 1,13,14
 129 117 129 117 148 98 c 128,-1,15
 167 79 167 79 167 52 c 0,16,17
 167 26 167 26 148 7 c 128,-1,18
 129 -12 129 -12 102 -12 c 0,19,20
 76 -12 76 -12 57 7 c 128,-1,21
 38 26 38 26 38 52 c 0,22,23
 38 79 38 79 57 98 c 128,-1,24
 76 117 76 117 102 117 c 1,25,-1
 102 117 l 1,13,14
EndSplineSet
Validated: 5
EndChar

StartChar: semicolon
Encoding: 59 59 113
Width: 205
GlyphClass: 1
Flags: W
LayerCount: 2
Fore
SplineSet
38 53 m 1,0,1
 38 79 38 79 57 98 c 128,-1,2
 76 117 76 117 102 117 c 0,3,4
 129 117 129 117 148 98 c 128,-1,5
 167 79 167 79 167 53 c 0,6,7
 167 41 167 41 162 28 c 2,8,-1
 100 -133 l 1,9,-1
 45 -133 l 1,10,-1
 92 -11 l 1,11,12
 69 -7 69 -7 53.5 11 c 128,-1,13
 38 29 38 29 38 53 c 1,14,-1
 38 53 l 1,0,1
38 440 m 1,15,16
 38 466 38 466 57 485 c 128,-1,17
 76 504 76 504 102 504 c 0,18,19
 129 504 129 504 148 485 c 128,-1,20
 167 466 167 466 167 440 c 0,21,22
 167 413 167 413 148 394 c 128,-1,23
 129 375 129 375 102 375 c 0,24,25
 76 375 76 375 57 394 c 128,-1,26
 38 413 38 413 38 440 c 1,27,-1
 38 440 l 1,15,16
EndSplineSet
Validated: 5
EndChar

StartChar: bracketleft
Encoding: 91 91 114
Width: 315
GlyphClass: 1
Flags: W
LayerCount: 2
Fore
SplineSet
76 -161 m 1,0,-1
 76 668 l 1,1,-1
 282 668 l 1,2,-1
 282 594 l 1,3,-1
 157 594 l 1,4,-1
 157 -87 l 1,5,-1
 282 -87 l 1,6,-1
 282 -161 l 1,7,-1
 76 -161 l 1,0,-1
EndSplineSet
Validated: 1
EndChar

StartChar: backslash
Encoding: 92 92 115
Width: 377
GlyphClass: 1
Flags: W
LayerCount: 2
Fore
SplineSet
15 668 m 1,0,-1
 102 668 l 1,1,-1
 362 0 l 1,2,-1
 275 0 l 1,3,-1
 15 668 l 1,0,-1
EndSplineSet
Validated: 1
EndChar

StartChar: bracketright
Encoding: 93 93 116
Width: 315
GlyphClass: 1
Flags: W
LayerCount: 2
Fore
SplineSet
239 668 m 1,0,-1
 239 -161 l 1,1,-1
 33 -161 l 1,2,-1
 33 -87 l 1,3,-1
 158 -87 l 1,4,-1
 158 594 l 1,5,-1
 33 594 l 1,6,-1
 33 668 l 1,7,-1
 239 668 l 1,0,-1
EndSplineSet
Validated: 1
EndChar

StartChar: asciicircum
Encoding: 94 94 117
Width: 552
GlyphClass: 1
Flags: W
LayerCount: 2
Fore
SplineSet
53 311 m 1,0,-1
 238 668 l 1,1,-1
 314 668 l 1,2,-1
 499 311 l 1,3,-1
 410 311 l 1,4,-1
 276 569 l 1,5,-1
 142 311 l 1,6,-1
 53 311 l 1,0,-1
EndSplineSet
Validated: 1
EndChar

StartChar: underscore
Encoding: 95 95 118
Width: 396
GlyphClass: 1
Flags: W
LayerCount: 2
Fore
SplineSet
10 0 m 1,0,-1
 386 0 l 1,1,-1
 386 -79 l 1,2,-1
 10 -79 l 1,3,-1
 10 0 l 1,0,-1
EndSplineSet
Validated: 1
EndChar

StartChar: grave
Encoding: 96 96 119
Width: 268
GlyphClass: 1
Flags: W
LayerCount: 2
Fore
SplineSet
91 707 m 1,0,1
 99 707 99 707 107 704 c 128,-1,2
 115 701 115 701 122 692 c 2,3,-1
 215 571 l 1,4,-1
 145 571 l 1,5,6
 125 587 125 587 104.5 604.5 c 128,-1,7
 84 622 84 622 70 636 c 0,8,9
 59 647 59 647 56 654.5 c 128,-1,10
 53 662 53 662 53 669 c 0,11,12
 53 685 53 685 64 696 c 128,-1,13
 75 707 75 707 91 707 c 1,14,-1
 91 707 l 1,0,1
EndSplineSet
Validated: 5
Substitution2: "'case' Case-Sensitive Forms lookup 1 subtable" grave.case
EndChar

StartChar: exclam
Encoding: 33 33 120
Width: 281
GlyphClass: 1
Flags: W
LayerCount: 2
Fore
SplineSet
76 52 m 1,0,1
 76 79 76 79 95 98 c 128,-1,2
 114 117 114 117 140 117 c 0,3,4
 167 117 167 117 186 98 c 128,-1,5
 205 79 205 79 205 52 c 0,6,7
 205 26 205 26 186 7 c 128,-1,8
 167 -12 167 -12 140 -12 c 0,9,10
 114 -12 114 -12 95 7 c 128,-1,11
 76 26 76 26 76 52 c 1,12,-1
 76 52 l 1,0,1
96 496 m 1,13,-1
 96 668 l 1,14,-1
 185 668 l 1,15,-1
 185 496 l 1,16,-1
 167 195 l 1,17,-1
 114 195 l 1,18,-1
 96 496 l 1,13,-1
EndSplineSet
Validated: 5
EndChar

StartChar: quotedbl
Encoding: 34 34 121
Width: 301
GlyphClass: 1
Flags: W
LayerCount: 2
Fore
SplineSet
40 668 m 1,0,-1
 120 668 l 1,1,-1
 106 447 l 1,2,-1
 54 447 l 1,3,-1
 40 668 l 1,0,-1
261 668 m 1,4,-1
 247 447 l 1,5,-1
 195 447 l 1,6,-1
 181 668 l 1,7,-1
 261 668 l 1,4,-1
EndSplineSet
Validated: 1
EndChar

StartChar: numbersign
Encoding: 35 35 122
Width: 655
GlyphClass: 1
Flags: W
LayerCount: 2
Fore
SplineSet
49 253 m 1,0,-1
 173 253 l 1,1,-1
 196 415 l 1,2,-1
 72 415 l 1,3,-1
 83 496 l 1,4,-1
 207 496 l 1,5,-1
 231 668 l 1,6,-1
 313 668 l 1,7,-1
 289 496 l 1,8,-1
 412 496 l 1,9,-1
 436 668 l 1,10,-1
 518 668 l 1,11,-1
 494 496 l 1,12,-1
 617 496 l 1,13,-1
 606 415 l 1,14,-1
 482 415 l 1,15,-1
 460 253 l 1,16,-1
 583 253 l 1,17,-1
 572 172 l 1,18,-1
 448 172 l 1,19,-1
 424 0 l 1,20,-1
 342 0 l 1,21,-1
 366 172 l 1,22,-1
 243 172 l 1,23,-1
 219 0 l 1,24,-1
 137 0 l 1,25,-1
 162 172 l 1,26,-1
 38 172 l 1,27,-1
 49 253 l 1,0,-1
255 253 m 1,28,-1
 378 253 l 1,29,-1
 400 415 l 1,30,-1
 277 415 l 1,31,-1
 255 253 l 1,28,-1
EndSplineSet
Validated: 1
EndChar

StartChar: dollar
Encoding: 36 36 123
Width: 594
GlyphClass: 1
Flags: W
LayerCount: 2
Fore
SplineSet
127 172 m 1,0,1
 161 83 161 83 267 69 c 1,2,-1
 267 308 l 1,3,-1
 231 315 l 2,4,5
 197 322 197 322 163.5 335.5 c 128,-1,6
 130 349 130 349 104.5 371 c 128,-1,7
 79 393 79 393 63 424.5 c 128,-1,8
 47 456 47 456 47 498 c 0,9,10
 47 542 47 542 67 575 c 128,-1,11
 87 608 87 608 118.5 630 c 128,-1,12
 150 652 150 652 189 664 c 128,-1,13
 228 676 228 676 267 679 c 1,14,-1
 267 742 l 1,15,-1
 317 742 l 1,16,-1
 317 679 l 1,17,18
 384 674 384 674 439 644.5 c 128,-1,19
 494 615 494 615 523 555 c 1,20,-1
 437 530 l 1,21,22
 417 562 417 562 384.5 578 c 128,-1,23
 352 594 352 594 317 599 c 1,24,-1
 317 386 l 1,25,-1
 329 383 l 2,26,27
 367 373 367 373 407 360.5 c 128,-1,28
 447 348 447 348 479.5 326.5 c 128,-1,29
 512 305 512 305 533 272 c 128,-1,30
 554 239 554 239 554 188 c 0,31,32
 554 141 554 141 534.5 105 c 128,-1,33
 515 69 515 69 482.5 43.5 c 128,-1,34
 450 18 450 18 407 4 c 128,-1,35
 364 -10 364 -10 317 -12 c 1,36,-1
 317 -87 l 1,37,-1
 267 -87 l 1,38,-1
 267 -11 l 1,39,40
 180 -3 180 -3 122.5 38 c 128,-1,41
 65 79 65 79 40 146 c 1,42,-1
 127 172 l 1,43,-1
 127 172 l 1,0,1
317 68 m 1,44,45
 384 72 384 72 420.5 102.5 c 128,-1,46
 457 133 457 133 457 180 c 0,47,48
 457 206 457 206 446.5 225 c 128,-1,49
 436 244 436 244 417.5 257.5 c 128,-1,50
 399 271 399 271 373.5 280.5 c 128,-1,51
 348 290 348 290 317 297 c 1,52,-1
 317 68 l 1,53,-1
 317 68 l 1,44,45
252 401 m 1,54,-1
 267 398 l 1,55,-1
 267 600 l 1,56,57
 248 598 248 598 226 592 c 128,-1,58
 204 586 204 586 185.5 574.5 c 128,-1,59
 167 563 167 563 155 545.5 c 128,-1,60
 143 528 143 528 143 503 c 0,61,62
 143 458 143 458 174 434 c 128,-1,63
 205 410 205 410 252 401 c 1,64,-1
 252 401 l 1,54,-1
EndSplineSet
Validated: 5
EndChar

StartChar: percent
Encoding: 37 37 124
Width: 927
GlyphClass: 1
Flags: W
LayerCount: 2
Fore
SplineSet
526 170 m 1,0,1
 526 208 526 208 540 241 c 128,-1,2
 554 274 554 274 579 298.5 c 128,-1,3
 604 323 604 323 637 337.5 c 128,-1,4
 670 352 670 352 708 352 c 256,5,6
 746 352 746 352 778.5 337.5 c 128,-1,7
 811 323 811 323 836 298.5 c 128,-1,8
 861 274 861 274 875 241 c 128,-1,9
 889 208 889 208 889 170 c 256,10,11
 889 132 889 132 875 99 c 128,-1,12
 861 66 861 66 836 41 c 128,-1,13
 811 16 811 16 778.5 2 c 128,-1,14
 746 -12 746 -12 708 -12 c 256,15,16
 670 -12 670 -12 637 2 c 128,-1,17
 604 16 604 16 579 41 c 128,-1,18
 554 66 554 66 540 99 c 128,-1,19
 526 132 526 132 526 170 c 1,20,-1
 526 170 l 1,0,1
220 680 m 1,21,22
 258 680 258 680 290.5 666 c 128,-1,23
 323 652 323 652 348 627 c 128,-1,24
 373 602 373 602 387 569 c 128,-1,25
 401 536 401 536 401 498 c 0,26,27
 401 461 401 461 387 428 c 128,-1,28
 373 395 373 395 348 370 c 128,-1,29
 323 345 323 345 290.5 331 c 128,-1,30
 258 317 258 317 220 317 c 256,31,32
 182 317 182 317 149 331 c 128,-1,33
 116 345 116 345 91 370 c 128,-1,34
 66 395 66 395 52 428 c 128,-1,35
 38 461 38 461 38 498 c 0,36,37
 38 536 38 536 52 569 c 128,-1,38
 66 602 66 602 91 627 c 128,-1,39
 116 652 116 652 149 666 c 128,-1,40
 182 680 182 680 220 680 c 1,41,-1
 220 680 l 1,21,22
112 498 m 1,42,43
 112 476 112 476 120.5 456.5 c 128,-1,44
 129 437 129 437 144 422.5 c 128,-1,45
 159 408 159 408 178.5 399.5 c 128,-1,46
 198 391 198 391 220 391 c 256,47,48
 242 391 242 391 261.5 399.5 c 128,-1,49
 281 408 281 408 295.5 422.5 c 128,-1,50
 310 437 310 437 318.5 456.5 c 128,-1,51
 327 476 327 476 327 498 c 0,52,53
 327 521 327 521 318.5 540.5 c 128,-1,54
 310 560 310 560 295.5 574.5 c 128,-1,55
 281 589 281 589 261.5 597.5 c 128,-1,56
 242 606 242 606 220 606 c 256,57,58
 198 606 198 606 178 597.5 c 128,-1,59
 158 589 158 589 143.5 574.5 c 128,-1,60
 129 560 129 560 120.5 540.5 c 128,-1,61
 112 521 112 521 112 498 c 1,62,-1
 112 498 l 1,42,43
600 170 m 1,63,64
 600 148 600 148 608.5 128.5 c 128,-1,65
 617 109 617 109 631.5 94 c 128,-1,66
 646 79 646 79 666 70.5 c 128,-1,67
 686 62 686 62 708 62 c 256,68,69
 730 62 730 62 749.5 70.5 c 128,-1,70
 769 79 769 79 783.5 94 c 128,-1,71
 798 109 798 109 806.5 128.5 c 128,-1,72
 815 148 815 148 815 170 c 256,73,74
 815 192 815 192 806.5 211.5 c 128,-1,75
 798 231 798 231 783.5 245.5 c 128,-1,76
 769 260 769 260 749.5 268.5 c 128,-1,77
 730 277 730 277 708 277 c 256,78,79
 686 277 686 277 666 268.5 c 128,-1,80
 646 260 646 260 631.5 245.5 c 128,-1,81
 617 231 617 231 608.5 211.5 c 128,-1,82
 600 192 600 192 600 170 c 1,83,-1
 600 170 l 1,63,64
186 0 m 1,84,-1
 654 668 l 1,85,-1
 742 668 l 1,86,-1
 274 0 l 1,87,-1
 186 0 l 1,84,-1
EndSplineSet
Validated: 5
EndChar

StartChar: ampersand
Encoding: 38 38 125
Width: 705
GlyphClass: 1
Flags: W
LayerCount: 2
Fore
SplineSet
209 387 m 1,0,1
 175 425 175 425 155 462 c 128,-1,2
 135 499 135 499 135 538 c 0,3,4
 135 571 135 571 148.5 597 c 128,-1,5
 162 623 162 623 186 641.5 c 128,-1,6
 210 660 210 660 243.5 670 c 128,-1,7
 277 680 277 680 317 680 c 0,8,9
 348 680 348 680 379 672.5 c 128,-1,10
 410 665 410 665 435 648.5 c 128,-1,11
 460 632 460 632 475.5 604.5 c 128,-1,12
 491 577 491 577 491 536 c 0,13,14
 491 473 491 473 452 431 c 128,-1,15
 413 389 413 389 351 363 c 1,16,-1
 487 219 l 1,17,18
 500 250 500 250 509 285 c 128,-1,19
 518 320 518 320 521 361 c 1,20,-1
 608 361 l 1,21,22
 603 307 603 307 588 254.5 c 128,-1,23
 573 202 573 202 546 157 c 1,24,-1
 695 0 l 1,25,-1
 576 0 l 1,26,-1
 494 87 l 1,27,28
 450 41 450 41 392.5 14.5 c 128,-1,29
 335 -12 335 -12 263 -12 c 0,30,31
 211 -12 211 -12 169.5 3 c 128,-1,32
 128 18 128 18 98.5 44.5 c 128,-1,33
 69 71 69 71 53.5 106.5 c 128,-1,34
 38 142 38 142 38 183 c 0,35,36
 38 260 38 260 84.5 310.5 c 128,-1,37
 131 361 131 361 209 387 c 1,38,-1
 209 387 l 1,0,1
263 62 m 1,39,40
 316 62 316 62 360.5 83 c 128,-1,41
 405 104 405 104 440 143 c 1,42,-1
 259 334 l 1,43,44
 199 313 199 313 163.5 278 c 128,-1,45
 128 243 128 243 128 187 c 0,46,47
 128 158 128 158 139 135 c 128,-1,48
 150 112 150 112 169 95.5 c 128,-1,49
 188 79 188 79 212 70.5 c 128,-1,50
 236 62 236 62 263 62 c 1,51,-1
 263 62 l 1,39,40
300 415 m 1,52,53
 349 433 349 433 379 462 c 128,-1,54
 409 491 409 491 409 531 c 0,55,56
 409 572 409 572 382.5 589 c 128,-1,57
 356 606 356 606 319 606 c 256,58,59
 282 606 282 606 253.5 590 c 128,-1,60
 225 574 225 574 225 540 c 0,61,62
 225 519 225 519 235 499 c 128,-1,63
 245 479 245 479 258 462 c 128,-1,64
 271 445 271 445 283.5 432.5 c 128,-1,65
 296 420 296 420 300 415 c 1,66,-1
 300 415 l 1,52,53
EndSplineSet
Validated: 5
EndChar

StartChar: quotesingle
Encoding: 39 39 126
Width: 160
GlyphClass: 1
Flags: W
LayerCount: 2
Fore
SplineSet
40 668 m 1,0,-1
 120 668 l 1,1,-1
 106 447 l 1,2,-1
 54 447 l 1,3,-1
 40 668 l 1,0,-1
EndSplineSet
Validated: 1
EndChar

StartChar: parenleft
Encoding: 40 40 127
Width: 300
GlyphClass: 1
Flags: W
LayerCount: 2
Fore
SplineSet
50 280 m 1,0,1
 50 383 50 383 77 481.5 c 128,-1,2
 104 580 104 580 160 668 c 1,3,-1
 235 668 l 1,4,5
 185 597 185 597 154.5 495.5 c 128,-1,6
 124 394 124 394 124 278 c 0,7,8
 124 168 124 168 156.5 55 c 128,-1,9
 189 -58 189 -58 265 -161 c 1,10,-1
 189 -161 l 1,11,12
 120 -63 120 -63 85 50 c 128,-1,13
 50 163 50 163 50 280 c 1,14,-1
 50 280 l 1,0,1
EndSplineSet
Validated: 5
EndChar

StartChar: parenright
Encoding: 41 41 128
Width: 300
GlyphClass: 1
Flags: W
LayerCount: 2
Fore
SplineSet
35 -161 m 1,0,1
 111 -58 111 -58 144 55.5 c 128,-1,2
 177 169 177 169 177 279 c 0,3,4
 177 394 177 394 146.5 495.5 c 128,-1,5
 116 597 116 597 66 668 c 1,6,-1
 141 668 l 1,7,8
 197 580 197 580 223.5 481.5 c 128,-1,9
 250 383 250 383 250 281 c 0,10,11
 250 163 250 163 215.5 50 c 128,-1,12
 181 -63 181 -63 112 -161 c 1,13,-1
 35 -161 l 1,14,-1
 35 -161 l 1,0,1
EndSplineSet
Validated: 5
EndChar

StartChar: asterisk
Encoding: 42 42 129
Width: 433
GlyphClass: 1
Flags: W
LayerCount: 2
Fore
SplineSet
169 508 m 1,0,-1
 68 540 l 1,1,-1
 86 595 l 1,2,-1
 187 562 l 1,3,-1
 187 668 l 1,4,-1
 244 668 l 1,5,-1
 244 562 l 1,6,-1
 345 595 l 1,7,-1
 363 540 l 1,8,-1
 261 508 l 1,9,-1
 324 422 l 1,10,-1
 278 388 l 1,11,-1
 215 474 l 1,12,-1
 153 388 l 1,13,-1
 107 422 l 1,14,-1
 169 508 l 1,0,-1
EndSplineSet
Validated: 1
EndChar

StartChar: plus
Encoding: 43 43 130
Width: 602
GlyphClass: 1
Flags: W
LayerCount: 2
Fore
SplineSet
53 208 m 1,0,-1
 53 288 l 1,1,-1
 261 288 l 1,2,-1
 261 496 l 1,3,-1
 341 496 l 1,4,-1
 341 288 l 1,5,-1
 549 288 l 1,6,-1
 549 208 l 1,7,-1
 341 208 l 1,8,-1
 341 0 l 1,9,-1
 261 0 l 1,10,-1
 261 208 l 1,11,-1
 53 208 l 1,0,-1
EndSplineSet
Validated: 1
EndChar

StartChar: comma
Encoding: 44 44 131
Width: 205
GlyphClass: 1
Flags: W
LayerCount: 2
Fore
SplineSet
38 53 m 1,0,1
 38 79 38 79 57 98 c 128,-1,2
 76 117 76 117 102 117 c 0,3,4
 129 117 129 117 148 98 c 128,-1,5
 167 79 167 79 167 53 c 0,6,7
 167 41 167 41 162 28 c 2,8,-1
 100 -133 l 1,9,-1
 45 -133 l 1,10,-1
 92 -11 l 1,11,12
 69 -7 69 -7 53.5 11 c 128,-1,13
 38 29 38 29 38 53 c 1,14,-1
 38 53 l 1,0,1
EndSplineSet
Validated: 5
EndChar

StartChar: hyphen
Encoding: 45 45 132
Width: 368
GlyphClass: 1
Flags: W
LayerCount: 2
Fore
SplineSet
38 289 m 1,0,-1
 330 289 l 1,1,-1
 330 208 l 1,2,-1
 38 208 l 1,3,-1
 38 289 l 1,0,-1
EndSplineSet
Validated: 1
EndChar

StartChar: period
Encoding: 46 46 133
Width: 205
GlyphClass: 1
Flags: W
LayerCount: 2
Fore
SplineSet
38 52 m 1,0,1
 38 79 38 79 57 98 c 128,-1,2
 76 117 76 117 102 117 c 0,3,4
 129 117 129 117 148 98 c 128,-1,5
 167 79 167 79 167 52 c 0,6,7
 167 26 167 26 148 7 c 128,-1,8
 129 -12 129 -12 102 -12 c 0,9,10
 76 -12 76 -12 57 7 c 128,-1,11
 38 26 38 26 38 52 c 1,12,-1
 38 52 l 1,0,1
EndSplineSet
Validated: 5
EndChar

StartChar: slash
Encoding: 47 47 134
Width: 377
GlyphClass: 1
Flags: W
LayerCount: 2
Fore
SplineSet
275 668 m 1,0,-1
 362 668 l 1,1,-1
 102 0 l 1,2,-1
 15 0 l 1,3,-1
 275 668 l 1,0,-1
EndSplineSet
Validated: 1
EndChar

StartChar: braceleft
Encoding: 123 123 135
Width: 319
GlyphClass: 1
Flags: W
LayerCount: 2
Fore
SplineSet
38 220 m 1,0,-1
 38 287 l 1,1,2
 61 287 61 287 75 294 c 128,-1,3
 89 301 89 301 96.5 313.5 c 128,-1,4
 104 326 104 326 106 343.5 c 128,-1,5
 108 361 108 361 108 382 c 2,6,-1
 108 532 l 2,7,8
 108 571 108 571 113 597 c 128,-1,9
 118 623 118 623 133 638.5 c 128,-1,10
 148 654 148 654 174 661 c 128,-1,11
 200 668 200 668 242 668 c 2,12,-1
 285 668 l 1,13,-1
 285 597 l 1,14,-1
 243 597 l 2,15,16
 210 597 210 597 201 584 c 128,-1,17
 192 571 192 571 192 533 c 2,18,-1
 192 380 l 2,19,20
 192 317 192 317 170.5 290 c 128,-1,21
 149 263 149 263 113 253 c 1,22,23
 131 248 131 248 145.5 239.5 c 128,-1,24
 160 231 160 231 170.5 217 c 128,-1,25
 181 203 181 203 186.5 181 c 128,-1,26
 192 159 192 159 192 127 c 2,27,-1
 192 -26 l 2,28,29
 192 -65 192 -65 201 -77.5 c 128,-1,30
 210 -90 210 -90 243 -90 c 2,31,-1
 285 -90 l 1,32,-1
 285 -161 l 1,33,-1
 242 -161 l 2,34,35
 200 -161 200 -161 174 -154 c 128,-1,36
 148 -147 148 -147 133 -131.5 c 128,-1,37
 118 -116 118 -116 113 -90 c 128,-1,38
 108 -64 108 -64 108 -25 c 2,39,-1
 108 125 l 2,40,41
 108 146 108 146 106 163.5 c 128,-1,42
 104 181 104 181 96.5 193.5 c 128,-1,43
 89 206 89 206 75 213 c 128,-1,44
 61 220 61 220 38 220 c 1,45,-1
 38 220 l 1,0,-1
EndSplineSet
Validated: 5
EndChar

StartChar: bar
Encoding: 124 124 136
Width: 233
GlyphClass: 1
Flags: W
LayerCount: 2
Fore
SplineSet
76 668 m 1,0,-1
 157 668 l 1,1,-1
 157 -161 l 1,2,-1
 76 -161 l 1,3,-1
 76 668 l 1,0,-1
EndSplineSet
Validated: 1
EndChar

StartChar: braceright
Encoding: 125 125 137
Width: 319
GlyphClass: 1
Flags: W
LayerCount: 2
Fore
SplineSet
34 597 m 1,0,-1
 34 668 l 1,1,-1
 77 668 l 2,2,3
 119 668 119 668 145 661 c 128,-1,4
 171 654 171 654 186 638.5 c 128,-1,5
 201 623 201 623 206 597 c 128,-1,6
 211 571 211 571 211 532 c 2,7,-1
 211 382 l 2,8,9
 211 361 211 361 213 343.5 c 128,-1,10
 215 326 215 326 222.5 313.5 c 128,-1,11
 230 301 230 301 244 294 c 128,-1,12
 258 287 258 287 281 287 c 1,13,-1
 281 220 l 1,14,15
 258 220 258 220 244 213 c 128,-1,16
 230 206 230 206 222.5 193.5 c 128,-1,17
 215 181 215 181 213 163.5 c 128,-1,18
 211 146 211 146 211 125 c 2,19,-1
 211 -25 l 2,20,21
 211 -64 211 -64 206 -90 c 128,-1,22
 201 -116 201 -116 186 -131.5 c 128,-1,23
 171 -147 171 -147 145 -154 c 128,-1,24
 119 -161 119 -161 77 -161 c 2,25,-1
 34 -161 l 1,26,-1
 34 -90 l 1,27,-1
 75 -90 l 2,28,29
 92 -90 92 -90 102 -87.5 c 128,-1,30
 112 -85 112 -85 117.5 -77.5 c 128,-1,31
 123 -70 123 -70 125 -58 c 128,-1,32
 127 -46 127 -46 127 -26 c 2,33,-1
 127 127 l 2,34,35
 127 159 127 159 132.5 181 c 128,-1,36
 138 203 138 203 148.5 217 c 128,-1,37
 159 231 159 231 173 239.5 c 128,-1,38
 187 248 187 248 205 253 c 1,39,40
 187 258 187 258 173 266.5 c 128,-1,41
 159 275 159 275 148.5 290 c 128,-1,42
 138 305 138 305 132.5 327 c 128,-1,43
 127 349 127 349 127 380 c 2,44,-1
 127 533 l 2,45,46
 127 552 127 552 125 564.5 c 128,-1,47
 123 577 123 577 117.5 584 c 128,-1,48
 112 591 112 591 102 594 c 128,-1,49
 92 597 92 597 75 597 c 2,50,-1
 34 597 l 1,51,-1
 34 597 l 1,0,-1
EndSplineSet
Validated: 5
EndChar

StartChar: asciitilde
Encoding: 126 126 138
Width: 555
GlyphClass: 1
Flags: W
LayerCount: 2
Fore
SplineSet
40 221 m 1,0,1
 51 267 51 267 87 295 c 128,-1,2
 123 323 123 323 177 323 c 0,3,4
 208 323 208 323 236 314.5 c 128,-1,5
 264 306 264 306 289 295.5 c 128,-1,6
 314 285 314 285 336 276.5 c 128,-1,7
 358 268 358 268 378 268 c 0,8,9
 401 268 401 268 418.5 280.5 c 128,-1,10
 436 293 436 293 441 319 c 1,11,-1
 515 297 l 1,12,13
 504 251 504 251 468.5 223 c 128,-1,14
 433 195 433 195 379 195 c 0,15,16
 352 195 352 195 326 203.5 c 128,-1,17
 300 212 300 212 274.5 222 c 128,-1,18
 249 232 249 232 225.5 240.5 c 128,-1,19
 202 249 202 249 179 249 c 0,20,21
 154 249 154 249 137 236.5 c 128,-1,22
 120 224 120 224 115 199 c 1,23,-1
 40 221 l 1,24,-1
 40 221 l 1,0,1
EndSplineSet
Validated: 5
EndChar

StartChar: exclamdown
Encoding: 161 161 139
Width: 281
GlyphClass: 1
Flags: W
LayerCount: 2
Fore
SplineSet
76 454 m 1,0,1
 76 481 76 481 95 500 c 128,-1,2
 114 519 114 519 140 519 c 0,3,4
 167 519 167 519 186 500 c 128,-1,5
 205 481 205 481 205 454 c 0,6,7
 205 428 205 428 186 409 c 128,-1,8
 167 390 167 390 140 390 c 0,9,10
 114 390 114 390 95 409 c 128,-1,11
 76 428 76 428 76 454 c 1,12,-1
 76 454 l 1,0,1
96 -161 m 1,13,-1
 96 11 l 1,14,-1
 114 311 l 1,15,-1
 167 311 l 1,16,-1
 185 11 l 1,17,-1
 185 -161 l 1,18,-1
 96 -161 l 1,13,-1
EndSplineSet
Validated: 5
EndChar

StartChar: cent
Encoding: 162 162 140
Width: 500
GlyphClass: 1
Flags: W
LayerCount: 2
Fore
SplineSet
38 247 m 1,0,1
 38 297 38 297 52 340 c 128,-1,2
 66 383 66 383 91.5 416.5 c 128,-1,3
 117 450 117 450 153.5 472 c 128,-1,4
 190 494 190 494 236 501 c 1,5,-1
 236 571 l 1,6,-1
 286 571 l 1,7,-1
 286 504 l 1,8,9
 318 503 318 503 346 493.5 c 128,-1,10
 374 484 374 484 396.5 469 c 128,-1,11
 419 454 419 454 436 434.5 c 128,-1,12
 453 415 453 415 465 393 c 1,13,-1
 388 365 l 1,14,15
 373 392 373 392 346.5 409 c 128,-1,16
 320 426 320 426 286 430 c 1,17,-1
 286 62 l 1,18,19
 322 66 322 66 348.5 83.5 c 128,-1,20
 375 101 375 101 390 127 c 1,21,-1
 467 99 l 1,22,23
 441 54 441 54 394 23.5 c 128,-1,24
 347 -7 347 -7 286 -12 c 1,25,-1
 286 -87 l 1,26,-1
 236 -87 l 1,27,-1
 236 -10 l 1,28,29
 190 -4 190 -4 153 17.5 c 128,-1,30
 116 39 116 39 90.5 72.5 c 128,-1,31
 65 106 65 106 51.5 150.5 c 128,-1,32
 38 195 38 195 38 247 c 1,33,-1
 38 247 l 1,0,1
129 248 m 1,34,35
 129 169 129 169 160 124.5 c 128,-1,36
 191 80 191 80 236 67 c 1,37,-1
 236 425 l 1,38,39
 191 413 191 413 160 369.5 c 128,-1,40
 129 326 129 326 129 248 c 1,41,-1
 129 248 l 1,34,35
EndSplineSet
Validated: 5
EndChar

StartChar: sterling
Encoding: 163 163 141
Width: 586
GlyphClass: 1
Flags: W
LayerCount: 2
Fore
SplineSet
156 369 m 1,0,1
 139 403 139 403 125.5 437.5 c 128,-1,2
 112 472 112 472 112 511 c 0,3,4
 112 557 112 557 131.5 589 c 128,-1,5
 151 621 151 621 182.5 641.5 c 128,-1,6
 214 662 214 662 253.5 671 c 128,-1,7
 293 680 293 680 333 680 c 0,8,9
 418 680 418 680 472 642.5 c 128,-1,10
 526 605 526 605 546 541 c 1,11,-1
 463 516 l 1,12,13
 449 568 449 568 412.5 588.5 c 128,-1,14
 376 609 376 609 329 609 c 0,15,16
 308 609 308 609 285 604 c 128,-1,17
 262 599 262 599 243.5 587.5 c 128,-1,18
 225 576 225 576 213 556.5 c 128,-1,19
 201 537 201 537 201 508 c 0,20,21
 201 472 201 472 216.5 438 c 128,-1,22
 232 404 232 404 249 369 c 1,23,-1
 453 369 l 1,24,-1
 453 318 l 1,25,-1
 272 318 l 1,26,27
 282 296 282 296 286 276 c 128,-1,28
 290 256 290 256 290 238 c 0,29,30
 290 187 290 187 262.5 150.5 c 128,-1,31
 235 114 235 114 194 90 c 1,32,33
 211 97 211 97 225.5 99.5 c 128,-1,34
 240 102 240 102 254 102 c 0,35,36
 276 102 276 102 295.5 96.5 c 128,-1,37
 315 91 315 91 334.5 84 c 128,-1,38
 354 77 354 77 375 71.5 c 128,-1,39
 396 66 396 66 422 66 c 0,40,41
 445 66 445 66 471.5 71.5 c 128,-1,42
 498 77 498 77 531 91 c 1,43,-1
 556 18 l 1,44,45
 518 1 518 1 487.5 -5.5 c 128,-1,46
 457 -12 457 -12 431 -12 c 0,47,48
 403 -12 403 -12 379 -6 c 128,-1,49
 355 0 355 0 332 7 c 128,-1,50
 309 14 309 14 285.5 20 c 128,-1,51
 262 26 262 26 235 26 c 256,52,53
 208 26 208 26 175.5 17.5 c 128,-1,54
 143 9 143 9 101 -12 c 1,55,-1
 73 55 l 1,56,57
 87 61 87 61 109 74 c 128,-1,58
 131 87 131 87 151.5 108 c 128,-1,59
 172 129 172 129 187 158.5 c 128,-1,60
 202 188 202 188 202 226 c 0,61,62
 202 269 202 269 179 318 c 1,63,-1
 70 318 l 1,64,-1
 70 369 l 1,65,-1
 156 369 l 1,66,-1
 156 369 l 1,0,1
EndSplineSet
Validated: 5
EndChar

StartChar: currency
Encoding: 164 164 142
Width: 580
GlyphClass: 1
Flags: W
LayerCount: 2
Fore
SplineSet
53 119 m 1,0,-1
 119 185 l 1,1,2
 96 215 96 215 84 250 c 128,-1,3
 72 285 72 285 72 321 c 256,4,5
 72 357 72 357 84 392 c 128,-1,6
 96 427 96 427 119 456 c 1,7,-1
 53 522 l 1,8,-1
 89 558 l 1,9,-1
 155 492 l 1,10,11
 185 516 185 516 219.5 527.5 c 128,-1,12
 254 539 254 539 290 539 c 256,13,14
 326 539 326 539 361 527.5 c 128,-1,15
 396 516 396 516 425 492 c 1,16,-1
 491 558 l 1,17,-1
 527 522 l 1,18,-1
 461 456 l 1,19,20
 485 427 485 427 496.5 392 c 128,-1,21
 508 357 508 357 508 321 c 256,22,23
 508 285 508 285 496.5 250 c 128,-1,24
 485 215 485 215 461 185 c 1,25,-1
 527 119 l 1,26,-1
 491 84 l 1,27,-1
 425 149 l 1,28,29
 396 126 396 126 361 114.5 c 128,-1,30
 326 103 326 103 290 103 c 256,31,32
 254 103 254 103 219.5 114.5 c 128,-1,33
 185 126 185 126 155 149 c 1,34,-1
 89 84 l 1,35,-1
 53 119 l 1,36,-1
 53 119 l 1,0,-1
290 178 m 1,37,38
 320 178 320 178 345.5 189 c 128,-1,39
 371 200 371 200 390.5 219.5 c 128,-1,40
 410 239 410 239 421 265 c 128,-1,41
 432 291 432 291 432 321 c 0,42,43
 432 350 432 350 421 376 c 128,-1,44
 410 402 410 402 390.5 421.5 c 128,-1,45
 371 441 371 441 345.5 452 c 128,-1,46
 320 463 320 463 290 463 c 256,47,48
 260 463 260 463 234.5 452 c 128,-1,49
 209 441 209 441 189.5 421.5 c 128,-1,50
 170 402 170 402 159 376 c 128,-1,51
 148 350 148 350 148 321 c 0,52,53
 148 291 148 291 159 265 c 128,-1,54
 170 239 170 239 189.5 219.5 c 128,-1,55
 209 200 209 200 234.5 189 c 128,-1,56
 260 178 260 178 290 178 c 1,57,-1
 290 178 l 1,37,38
EndSplineSet
Validated: 5
EndChar

StartChar: yen
Encoding: 165 165 143
Width: 595
GlyphClass: 1
Flags: W
LayerCount: 2
Fore
SplineSet
113 668 m 1,0,-1
 298 345 l 1,1,-1
 482 668 l 1,2,-1
 585 668 l 1,3,-1
 353 274 l 1,4,-1
 494 274 l 1,5,-1
 494 223 l 1,6,-1
 345 223 l 1,7,-1
 345 137 l 1,8,-1
 494 137 l 1,9,-1
 494 86 l 1,10,-1
 345 86 l 1,11,-1
 345 0 l 1,12,-1
 251 0 l 1,13,-1
 251 86 l 1,14,-1
 101 86 l 1,15,-1
 101 137 l 1,16,-1
 251 137 l 1,17,-1
 251 223 l 1,18,-1
 101 223 l 1,19,-1
 101 274 l 1,20,-1
 242 274 l 1,21,-1
 10 668 l 1,22,-1
 113 668 l 1,0,-1
EndSplineSet
Validated: 1
EndChar

StartChar: brokenbar
Encoding: 166 166 144
Width: 233
GlyphClass: 1
Flags: W
LayerCount: 2
Fore
SplineSet
76 668 m 1,0,-1
 157 668 l 1,1,-1
 157 358 l 1,2,-1
 76 358 l 1,3,-1
 76 668 l 1,0,-1
157 149 m 1,4,-1
 157 -161 l 1,5,-1
 76 -161 l 1,6,-1
 76 149 l 1,7,-1
 157 149 l 1,4,-1
EndSplineSet
Validated: 1
EndChar

StartChar: section
Encoding: 167 167 145
Width: 530
GlyphClass: 1
Flags: W
LayerCount: 2
Fore
SplineSet
151 424 m 1,0,1
 122 444 122 444 99 474.5 c 128,-1,2
 76 505 76 505 76 550 c 0,3,4
 76 583 76 583 91.5 607 c 128,-1,5
 107 631 107 631 132.5 647.5 c 128,-1,6
 158 664 158 664 190.5 672 c 128,-1,7
 223 680 223 680 257 680 c 0,8,9
 326 680 326 680 372.5 651.5 c 128,-1,10
 419 623 419 623 439 574 c 1,11,-1
 358 550 l 1,12,13
 346 582 346 582 317.5 596 c 128,-1,14
 289 610 289 610 253 610 c 0,15,16
 216 610 216 610 189 596 c 128,-1,17
 162 582 162 582 162 552 c 0,18,19
 162 548 162 548 162.5 544.5 c 128,-1,20
 163 541 163 541 164 536 c 0,21,22
 170 513 170 513 197 493 c 128,-1,23
 224 473 224 473 261.5 454 c 128,-1,24
 299 435 299 435 341 414.5 c 128,-1,25
 383 394 383 394 418 369 c 128,-1,26
 453 344 453 344 476.5 313 c 128,-1,27
 500 282 500 282 500 242 c 0,28,29
 500 215 500 215 491 192 c 128,-1,30
 482 169 482 169 466 150 c 128,-1,31
 450 131 450 131 429.5 116 c 128,-1,32
 409 101 409 101 385 91 c 1,33,34
 414 68 414 68 431.5 41.5 c 128,-1,35
 449 15 449 15 449 -23 c 0,36,37
 449 -60 449 -60 434 -88 c 128,-1,38
 419 -116 419 -116 393.5 -135 c 128,-1,39
 368 -154 368 -154 333.5 -163.5 c 128,-1,40
 299 -173 299 -173 261 -173 c 0,41,42
 186 -173 186 -173 135.5 -139 c 128,-1,43
 85 -105 85 -105 67 -44 c 1,44,-1
 150 -20 l 1,45,46
 160 -59 160 -59 186.5 -81 c 128,-1,47
 213 -103 213 -103 263 -103 c 0,48,49
 307 -103 307 -103 335 -86 c 128,-1,50
 363 -69 363 -69 363 -36 c 0,51,52
 363 -4 363 -4 338.5 20 c 128,-1,53
 314 44 314 44 277 64.5 c 128,-1,54
 240 85 240 85 197 105 c 128,-1,55
 154 125 154 125 117 150 c 128,-1,56
 80 175 80 175 55.5 208.5 c 128,-1,57
 31 242 31 242 31 289 c 0,58,59
 31 314 31 314 40.5 335 c 128,-1,60
 50 356 50 356 66.5 373 c 128,-1,61
 83 390 83 390 105 403 c 128,-1,62
 127 416 127 416 151 424 c 1,63,-1
 151 424 l 1,0,1
115 294 m 1,64,65
 115 266 115 266 130.5 246.5 c 128,-1,66
 146 227 146 227 174 210 c 128,-1,67
 202 193 202 193 240 174.5 c 128,-1,68
 278 156 278 156 323 129 c 1,69,70
 340 136 340 136 356.5 145.5 c 128,-1,71
 373 155 373 155 386.5 167 c 128,-1,72
 400 179 400 179 408 194 c 128,-1,73
 416 209 416 209 416 226 c 0,74,75
 416 255 416 255 397.5 276.5 c 128,-1,76
 379 298 379 298 350.5 316 c 128,-1,77
 322 334 322 334 286.5 350.5 c 128,-1,78
 251 367 251 367 218 387 c 1,79,80
 200 382 200 382 181.5 373.5 c 128,-1,81
 163 365 163 365 148.5 353 c 128,-1,82
 134 341 134 341 124.5 326.5 c 128,-1,83
 115 312 115 312 115 294 c 1,84,-1
 115 294 l 1,64,65
EndSplineSet
Validated: 5
EndChar

StartChar: dieresis
Encoding: 168 168 146
Width: 425
GlyphClass: 1
Flags: W
LayerCount: 2
Fore
SplineSet
53 644 m 1,0,1
 53 666 53 666 68.5 681.5 c 128,-1,2
 84 697 84 697 107 697 c 256,3,4
 130 697 130 697 145.5 681.5 c 128,-1,5
 161 666 161 666 161 644 c 0,6,7
 161 621 161 621 145.5 605.5 c 128,-1,8
 130 590 130 590 107 590 c 256,9,10
 84 590 84 590 68.5 605.5 c 128,-1,11
 53 621 53 621 53 644 c 1,12,-1
 53 644 l 1,0,1
318 697 m 1,13,14
 341 697 341 697 356.5 681.5 c 128,-1,15
 372 666 372 666 372 644 c 0,16,17
 372 621 372 621 356.5 605.5 c 128,-1,18
 341 590 341 590 318 590 c 0,19,20
 296 590 296 590 280.5 605.5 c 128,-1,21
 265 621 265 621 265 644 c 0,22,23
 265 666 265 666 280.5 681.5 c 128,-1,24
 296 697 296 697 318 697 c 1,25,-1
 318 697 l 1,13,14
EndSplineSet
Validated: 5
Substitution2: "'case' Case-Sensitive Forms lookup 1 subtable" dieresis.case
EndChar

StartChar: copyright
Encoding: 169 169 147
Width: 798
GlyphClass: 1
Flags: W
LayerCount: 2
Fore
SplineSet
53 334 m 1,0,1
 53 406 53 406 80 469 c 128,-1,2
 107 532 107 532 154 579 c 128,-1,3
 201 626 201 626 264 653 c 128,-1,4
 327 680 327 680 399 680 c 256,5,6
 471 680 471 680 534 653 c 128,-1,7
 597 626 597 626 644 579 c 128,-1,8
 691 532 691 532 718 469 c 128,-1,9
 745 406 745 406 745 334 c 256,10,11
 745 262 745 262 718 199 c 128,-1,12
 691 136 691 136 644 89 c 128,-1,13
 597 42 597 42 534 15 c 128,-1,14
 471 -12 471 -12 399 -12 c 256,15,16
 327 -12 327 -12 264 15 c 128,-1,17
 201 42 201 42 154 89 c 128,-1,18
 107 136 107 136 80 199 c 128,-1,19
 53 262 53 262 53 334 c 1,20,-1
 53 334 l 1,0,1
115 334 m 1,21,22
 115 275 115 275 137.5 223.5 c 128,-1,23
 160 172 160 172 198.5 133.5 c 128,-1,24
 237 95 237 95 288.5 72.5 c 128,-1,25
 340 50 340 50 399 50 c 256,26,27
 458 50 458 50 509.5 72.5 c 128,-1,28
 561 95 561 95 599.5 133.5 c 128,-1,29
 638 172 638 172 660.5 223.5 c 128,-1,30
 683 275 683 275 683 334 c 256,31,32
 683 393 683 393 660.5 444.5 c 128,-1,33
 638 496 638 496 599.5 534.5 c 128,-1,34
 561 573 561 573 509.5 595.5 c 128,-1,35
 458 618 458 618 399 618 c 256,36,37
 340 618 340 618 288.5 595.5 c 128,-1,38
 237 573 237 573 198.5 534.5 c 128,-1,39
 160 496 160 496 137.5 444.5 c 128,-1,40
 115 393 115 393 115 334 c 1,41,-1
 115 334 l 1,21,22
403 531 m 1,42,43
 457 531 457 531 493 508 c 128,-1,44
 529 485 529 485 548 449 c 1,45,-1
 481 424 l 1,46,47
 468 448 468 448 447.5 460.5 c 128,-1,48
 427 473 427 473 401 473 c 0,49,50
 358 473 358 473 330.5 441 c 128,-1,51
 303 409 303 409 303 342 c 0,52,53
 303 274 303 274 330.5 241.5 c 128,-1,54
 358 209 358 209 401 209 c 0,55,56
 426 209 426 209 448 219 c 128,-1,57
 470 229 470 229 484 254 c 1,58,-1
 550 230 l 1,59,60
 530 196 530 196 493.5 173 c 128,-1,61
 457 150 457 150 401 150 c 0,62,63
 316 150 316 150 271.5 201 c 128,-1,64
 227 252 227 252 227 342 c 0,65,66
 227 431 227 431 274.5 481 c 128,-1,67
 322 531 322 531 403 531 c 1,68,-1
 403 531 l 1,42,43
EndSplineSet
Validated: 5
EndChar

StartChar: questiondown
Encoding: 191 191 148
Width: 520
GlyphClass: 1
Flags: W
LayerCount: 2
Fore
SplineSet
174 179 m 1,0,1
 196 193 196 193 211 204 c 128,-1,2
 226 215 226 215 235 226 c 128,-1,3
 244 237 244 237 248 250.5 c 128,-1,4
 252 264 252 264 252 283 c 2,5,-1
 252 317 l 1,6,-1
 338 317 l 1,7,-1
 338 281 l 2,8,9
 338 252 338 252 331 230 c 128,-1,10
 324 208 324 208 309.5 189.5 c 128,-1,11
 295 171 295 171 273.5 154.5 c 128,-1,12
 252 138 252 138 223 120 c 0,13,14
 187 97 187 97 162.5 67.5 c 128,-1,15
 138 38 138 38 138 -7 c 0,16,17
 138 -51 138 -51 172 -77 c 128,-1,18
 206 -103 206 -103 260 -103 c 0,19,20
 295 -103 295 -103 319.5 -93.5 c 128,-1,21
 344 -84 344 -84 360.5 -68 c 128,-1,22
 377 -52 377 -52 386 -32.5 c 128,-1,23
 395 -13 395 -13 398 7 c 1,24,-1
 480 -17 l 1,25,26
 464 -89 464 -89 404.5 -131 c 128,-1,27
 345 -173 345 -173 258 -173 c 0,28,29
 219 -173 219 -173 181.5 -163.5 c 128,-1,30
 144 -154 144 -154 115 -134 c 128,-1,31
 86 -114 86 -114 68 -83.5 c 128,-1,32
 50 -53 50 -53 50 -11 c 0,33,34
 50 33 50 33 68.5 68.5 c 128,-1,35
 87 104 87 104 114.5 131 c 128,-1,36
 142 158 142 158 174 179 c 1,37,-1
 174 179 l 1,0,1
228 455 m 1,38,39
 228 481 228 481 247 500 c 128,-1,40
 266 519 266 519 293 519 c 0,41,42
 319 519 319 519 338 500 c 128,-1,43
 357 481 357 481 357 455 c 0,44,45
 357 428 357 428 338 409 c 128,-1,46
 319 390 319 390 293 390 c 0,47,48
 266 390 266 390 247 409 c 128,-1,49
 228 428 228 428 228 455 c 1,50,-1
 228 455 l 1,38,39
EndSplineSet
Validated: 5
EndChar

StartChar: grave.case
Encoding: 65539 -1 149
Width: 203
GlyphClass: 1
Flags: W
LayerCount: 2
Fore
SplineSet
16 864 m 1,0,1
 24 864 24 864 32 861.5 c 128,-1,2
 40 859 40 859 47 851 c 2,3,-1
 153 744 l 1,4,-1
 77 744 l 2,5,6
 75 746 75 746 64.5 752 c 128,-1,7
 54 758 54 758 41 766 c 128,-1,8
 28 774 28 774 15.5 782 c 128,-1,9
 3 790 3 790 -4 796 c 0,10,11
 -20 810 -20 810 -20 828 c 0,12,13
 -20 843 -20 843 -9.5 853.5 c 128,-1,14
 1 864 1 864 16 864 c 1,15,-1
 16 864 l 1,0,1
EndSplineSet
Validated: 5
EndChar

StartChar: acute.case
Encoding: 65540 -1 150
Width: 153
GlyphClass: 1
Flags: W
LayerCount: 2
Fore
SplineSet
44 744 m 1,0,1
 47 747 47 747 62 762.5 c 128,-1,2
 77 778 77 778 94.5 796 c 128,-1,3
 112 814 112 814 128.5 830.5 c 128,-1,4
 145 847 145 847 151 852 c 0,5,6
 165 864 165 864 180 864 c 256,7,8
 195 864 195 864 205.5 853.5 c 128,-1,9
 216 843 216 843 216 828 c 0,10,11
 216 809 216 809 200 796 c 0,12,13
 194 790 194 790 181.5 782 c 128,-1,14
 169 774 169 774 156 766 c 128,-1,15
 143 758 143 758 132.5 752 c 128,-1,16
 122 746 122 746 120 744 c 2,17,-1
 44 744 l 1,18,-1
 44 744 l 1,0,1
EndSplineSet
Validated: 5
EndChar

StartChar: germandbls
Encoding: 223 223 153
Width: 597
GlyphClass: 1
Flags: W
LayerCount: 2
Fore
SplineSet
76 0 m 1,0,-1
 76 453 l 2,1,2
 76 489 76 489 83 528.5 c 128,-1,3
 90 568 90 568 114.5 602 c 128,-1,4
 139 636 139 636 186 658 c 128,-1,5
 233 680 233 680 312 680 c 0,6,7
 357 680 357 680 395 669 c 128,-1,8
 433 658 433 658 460.5 637 c 128,-1,9
 488 616 488 616 504 586.5 c 128,-1,10
 520 557 520 557 520 521 c 0,11,12
 520 470 520 470 496 434 c 128,-1,13
 472 398 472 398 420 376 c 1,14,15
 449 369 449 369 474.5 355 c 128,-1,16
 500 341 500 341 519 319.5 c 128,-1,17
 538 298 538 298 548.5 268 c 128,-1,18
 559 238 559 238 559 197 c 0,19,20
 559 138 559 138 537.5 97.5 c 128,-1,21
 516 57 516 57 480.5 32 c 128,-1,22
 445 7 445 7 398.5 -3.5 c 128,-1,23
 352 -14 352 -14 302 -12 c 1,24,-1
 279 65 l 1,25,26
 300 62 300 62 318 62 c 0,27,28
 386 62 386 62 427.5 95 c 128,-1,29
 469 128 469 128 469 195 c 0,30,31
 469 233 469 233 455.5 259 c 128,-1,32
 442 285 442 285 417 300.5 c 128,-1,33
 392 316 392 316 357 323 c 128,-1,34
 322 330 322 330 279 330 c 1,35,-1
 279 406 l 1,36,37
 354 406 354 406 394.5 433 c 128,-1,38
 435 460 435 460 435 511 c 0,39,40
 435 556 435 556 401 583.5 c 128,-1,41
 367 611 367 611 311 611 c 0,42,43
 232 611 232 611 196 575 c 128,-1,44
 160 539 160 539 160 453 c 2,45,-1
 160 0 l 1,46,-1
 76 0 l 1,47,-1
 76 0 l 1,0,-1
EndSplineSet
Validated: 37
EndChar

StartChar: AE
Encoding: 198 198 154
Width: 998
GlyphClass: 1
Flags: W
LayerCount: 2
Fore
SplineSet
10 0 m 1,0,-1
 496 668 l 1,1,-1
 960 668 l 1,2,-1
 960 587 l 1,3,-1
 600 587 l 1,4,-1
 600 384 l 1,5,-1
 866 384 l 1,6,-1
 866 303 l 1,7,-1
 600 303 l 1,8,-1
 600 81 l 1,9,-1
 960 81 l 1,10,-1
 960 0 l 1,11,-1
 506 0 l 1,12,-1
 506 145 l 1,13,-1
 223 145 l 1,14,-1
 119 0 l 1,15,-1
 10 0 l 1,0,-1
506 226 m 1,16,-1
 506 546 l 1,17,-1
 279 226 l 1,18,-1
 506 226 l 1,16,-1
EndSplineSet
Validated: 1
EndChar

StartChar: florin
Encoding: 402 402 156
Width: 321
GlyphClass: 1
Flags: W
LayerCount: 2
Fore
SplineSet
25 -165 m 1,0,-1
 25 -90 l 1,1,2
 40 -93 40 -93 51 -93 c 0,3,4
 83 -93 83 -93 96 -74.5 c 128,-1,5
 109 -56 109 -56 109 -24 c 2,6,-1
 109 429 l 1,7,-1
 25 429 l 1,8,-1
 25 496 l 1,9,-1
 109 496 l 1,10,-1
 109 570 l 2,11,12
 109 608 109 608 114 634 c 128,-1,13
 119 660 119 660 133.5 676 c 128,-1,14
 148 692 148 692 174 699 c 128,-1,15
 200 706 200 706 242 706 c 2,16,-1
 296 706 l 1,17,-1
 296 635 l 1,18,-1
 244 635 l 2,19,20
 212 635 212 635 202.5 622 c 128,-1,21
 193 609 193 609 193 571 c 2,22,-1
 193 496 l 1,23,-1
 296 496 l 1,24,-1
 296 429 l 1,25,-1
 193 429 l 1,26,-1
 193 -27 l 2,27,28
 193 -70 193 -70 183.5 -98 c 128,-1,29
 174 -126 174 -126 158.5 -142.5 c 128,-1,30
 143 -159 143 -159 122.5 -166 c 128,-1,31
 102 -173 102 -173 80 -173 c 0,32,33
 54 -173 54 -173 25 -165 c 1,34,-1
 25 -165 l 1,0,-1
EndSplineSet
Validated: 5
EndChar

StartChar: integral
Encoding: 8747 8747 157
Width: 458
GlyphClass: 1
Flags: W
LayerCount: 2
Fore
SplineSet
53 -111 m 1,0,1
 53 -91 53 -91 67.5 -76 c 128,-1,2
 82 -61 82 -61 103 -61 c 0,3,4
 125 -61 125 -61 138.5 -76.5 c 128,-1,5
 152 -92 152 -92 152 -112 c 0,6,7
 152 -122 152 -122 150 -127 c 1,8,9
 160 -127 160 -127 169 -117 c 0,10,11
 176 -109 176 -109 181.5 -89 c 128,-1,12
 187 -69 187 -69 187 -31 c 2,13,-1
 187 464 l 2,14,15
 187 533 187 533 199.5 576 c 128,-1,16
 212 619 212 619 231 642 c 128,-1,17
 250 665 250 665 274 673 c 128,-1,18
 298 681 298 681 320 681 c 0,19,20
 353 681 353 681 379 667.5 c 128,-1,21
 405 654 405 654 405 619 c 0,22,23
 405 598 405 598 390.5 583.5 c 128,-1,24
 376 569 376 569 355 569 c 0,25,26
 333 569 333 569 319 584 c 128,-1,27
 305 599 305 599 305 619 c 0,28,29
 305 628 305 628 308 635 c 1,30,31
 298 635 298 635 290 625 c 0,32,33
 282 616 282 616 276.5 596 c 128,-1,34
 271 576 271 576 271 538 c 2,35,-1
 271 44 l 2,36,37
 271 -26 271 -26 258.5 -68.5 c 128,-1,38
 246 -111 246 -111 227 -134.5 c 128,-1,39
 208 -158 208 -158 184.5 -165.5 c 128,-1,40
 161 -173 161 -173 138 -173 c 0,41,42
 105 -173 105 -173 79 -159.5 c 128,-1,43
 53 -146 53 -146 53 -111 c 1,44,-1
 53 -111 l 1,0,1
EndSplineSet
Validated: 5
EndChar

StartChar: approxequal
Encoding: 8776 8776 158
Width: 581
GlyphClass: 1
Flags: W
LayerCount: 2
Fore
SplineSet
53 309 m 1,0,1
 65 355 65 355 101 383 c 128,-1,2
 137 411 137 411 192 411 c 0,3,4
 223 411 223 411 251 402.5 c 128,-1,5
 279 394 279 394 303.5 383.5 c 128,-1,6
 328 373 328 373 350.5 364.5 c 128,-1,7
 373 356 373 356 392 356 c 0,8,9
 415 356 415 356 432 369 c 128,-1,10
 449 382 449 382 454 407 c 1,11,-1
 528 385 l 1,12,13
 517 339 517 339 481.5 311 c 128,-1,14
 446 283 446 283 392 283 c 0,15,16
 365 283 365 283 339 291.5 c 128,-1,17
 313 300 313 300 287.5 310 c 128,-1,18
 262 320 262 320 238.5 328.5 c 128,-1,19
 215 337 215 337 192 337 c 0,20,21
 167 337 167 337 150 324.5 c 128,-1,22
 133 312 133 312 128 287 c 1,23,-1
 53 309 l 1,24,-1
 53 309 l 1,0,1
190 225 m 1,25,26
 221 225 221 225 249 216.5 c 128,-1,27
 277 208 277 208 302 197.5 c 128,-1,28
 327 187 327 187 349 178.5 c 128,-1,29
 371 170 371 170 391 170 c 0,30,31
 414 170 414 170 431.5 182.5 c 128,-1,32
 449 195 449 195 454 221 c 1,33,-1
 528 199 l 1,34,35
 517 153 517 153 481.5 125 c 128,-1,36
 446 97 446 97 392 97 c 0,37,38
 365 97 365 97 339 105.5 c 128,-1,39
 313 114 313 114 287.5 124 c 128,-1,40
 262 134 262 134 238.5 142.5 c 128,-1,41
 215 151 215 151 192 151 c 0,42,43
 167 151 167 151 150 138.5 c 128,-1,44
 133 126 133 126 128 101 c 1,45,-1
 53 123 l 1,46,47
 64 169 64 169 100 197 c 128,-1,48
 136 225 136 225 190 225 c 1,49,-1
 190 225 l 1,25,26
EndSplineSet
Validated: 5
EndChar

StartChar: notequal
Encoding: 8800 8800 159
Width: 602
GlyphClass: 1
Flags: W
LayerCount: 2
Fore
SplineSet
218 200 m 1,0,-1
 292 307 l 1,1,-1
 53 307 l 1,2,-1
 53 387 l 1,3,-1
 348 387 l 1,4,-1
 425 496 l 1,5,-1
 524 496 l 1,6,-1
 448 387 l 1,7,-1
 549 387 l 1,8,-1
 549 307 l 1,9,-1
 392 307 l 1,10,-1
 317 200 l 1,11,-1
 549 200 l 1,12,-1
 549 121 l 1,13,-1
 262 121 l 1,14,-1
 177 0 l 1,15,-1
 77 0 l 1,16,-1
 162 121 l 1,17,-1
 53 121 l 1,18,-1
 53 200 l 1,19,-1
 218 200 l 1,0,-1
EndSplineSet
Validated: 1
EndChar

StartChar: lessequal
Encoding: 8804 8804 160
Width: 579
GlyphClass: 1
Flags: W
LayerCount: 2
Fore
SplineSet
53 267 m 1,0,-1
 53 337 l 1,1,-1
 526 505 l 1,2,-1
 526 414 l 1,3,-1
 158 302 l 1,4,-1
 526 190 l 1,5,-1
 526 100 l 1,6,-1
 53 267 l 1,0,-1
53 80 m 1,7,-1
 526 80 l 1,8,-1
 526 0 l 1,9,-1
 53 0 l 1,10,-1
 53 80 l 1,7,-1
EndSplineSet
Validated: 1
EndChar

StartChar: greaterequal
Encoding: 8805 8805 161
Width: 579
GlyphClass: 1
Flags: W
LayerCount: 2
Fore
SplineSet
53 505 m 1,0,-1
 526 337 l 1,1,-1
 526 267 l 1,2,-1
 53 100 l 1,3,-1
 53 190 l 1,4,-1
 421 302 l 1,5,-1
 53 414 l 1,6,-1
 53 505 l 1,0,-1
53 0 m 1,7,-1
 53 80 l 1,8,-1
 526 80 l 1,9,-1
 526 0 l 1,10,-1
 53 0 l 1,7,-1
EndSplineSet
Validated: 1
EndChar

StartChar: lozenge
Encoding: 9674 9674 162
Width: 561
GlyphClass: 1
Flags: W
LayerCount: 2
Fore
SplineSet
53 315 m 1,0,-1
 281 703 l 1,1,-1
 508 315 l 1,2,-1
 281 -73 l 1,3,-1
 53 315 l 1,0,-1
421 315 m 1,4,-1
 281 554 l 1,5,-1
 140 315 l 1,6,-1
 281 76 l 1,7,-1
 421 315 l 1,4,-1
EndSplineSet
Validated: 1
EndChar

StartChar: summation
Encoding: 8721 8721 163
Width: 587
GlyphClass: 1
Flags: W
LayerCount: 2
Fore
SplineSet
534 668 m 1,0,-1
 534 587 l 1,1,-1
 154 587 l 1,2,-1
 399 254 l 1,3,-1
 154 -80 l 1,4,-1
 534 -80 l 1,5,-1
 534 -161 l 1,6,-1
 53 -161 l 1,7,-1
 53 -80 l 1,8,-1
 299 254 l 1,9,-1
 53 587 l 1,10,-1
 53 668 l 1,11,-1
 534 668 l 1,0,-1
EndSplineSet
Validated: 1
EndChar

StartChar: minus
Encoding: 8722 8722 164
Width: 602
GlyphClass: 1
Flags: W
LayerCount: 2
Fore
SplineSet
53 288 m 1,0,-1
 549 288 l 1,1,-1
 549 209 l 1,2,-1
 53 209 l 1,3,-1
 53 288 l 1,0,-1
EndSplineSet
Validated: 1
EndChar

StartChar: uni2215
Encoding: 8725 8725 165
Width: 598
GlyphClass: 1
Flags: W
LayerCount: 2
Fore
SplineSet
483 669 m 1,0,-1
 583 669 l 1,1,-1
 115 0 l 1,2,-1
 15 0 l 1,3,-1
 483 669 l 1,0,-1
EndSplineSet
Validated: 1
EndChar

StartChar: uni2219
Encoding: 8729 8729 166
Width: 235
GlyphClass: 1
Flags: W
LayerCount: 2
Fore
SplineSet
53 255 m 1,0,1
 53 267 53 267 58 280 c 0,2,3
 66 299 66 299 82 309.5 c 128,-1,4
 98 320 98 320 118 320 c 0,5,6
 129 320 129 320 142 315 c 0,7,8
 161 307 161 307 171.5 291 c 128,-1,9
 182 275 182 275 182 256 c 0,10,11
 182 244 182 244 177 231 c 0,12,13
 169 212 169 212 153 201.5 c 128,-1,14
 137 191 137 191 118 191 c 0,15,16
 88 191 88 191 70.5 211 c 128,-1,17
 53 231 53 231 53 255 c 1,18,-1
 53 255 l 1,0,1
EndSplineSet
Validated: 5
EndChar

StartChar: radical
Encoding: 8730 8730 167
Width: 582
GlyphClass: 1
Flags: W
LayerCount: 2
Fore
SplineSet
159 145 m 1,0,-1
 53 145 l 1,1,-1
 53 225 l 1,2,-1
 215 225 l 1,3,-1
 318 -37 l 1,4,-1
 441 669 l 1,5,-1
 529 669 l 1,6,-1
 378 -161 l 1,7,-1
 279 -161 l 1,8,-1
 159 145 l 1,0,-1
EndSplineSet
Validated: 1
EndChar

StartChar: infinity
Encoding: 8734 8734 168
Width: 773
GlyphClass: 1
Flags: W
LayerCount: 2
Fore
SplineSet
219 406 m 1,0,1
 273 406 273 406 314 379 c 128,-1,2
 355 352 355 352 387 317 c 1,3,4
 403 335 403 335 421 351 c 128,-1,5
 439 367 439 367 459.5 379 c 128,-1,6
 480 391 480 391 503.5 398.5 c 128,-1,7
 527 406 527 406 554 406 c 0,8,9
 591 406 591 406 621.5 395 c 128,-1,10
 652 384 652 384 674 364 c 128,-1,11
 696 344 696 344 708 316.5 c 128,-1,12
 720 289 720 289 720 256 c 256,13,14
 720 223 720 223 708.5 195 c 128,-1,15
 697 167 697 167 676 146.5 c 128,-1,16
 655 126 655 126 625.5 115 c 128,-1,17
 596 104 596 104 560 104 c 0,18,19
 532 104 532 104 508 111.5 c 128,-1,20
 484 119 484 119 462.5 132 c 128,-1,21
 441 145 441 145 422.5 162 c 128,-1,22
 404 179 404 179 387 198 c 1,23,24
 370 179 370 179 351 162 c 128,-1,25
 332 145 332 145 310.5 132 c 128,-1,26
 289 119 289 119 265 111.5 c 128,-1,27
 241 104 241 104 213 104 c 0,28,29
 177 104 177 104 147.5 115 c 128,-1,30
 118 126 118 126 97 146.5 c 128,-1,31
 76 167 76 167 64.5 195 c 128,-1,32
 53 223 53 223 53 256 c 256,33,34
 53 289 53 289 65 316.5 c 128,-1,35
 77 344 77 344 99 364 c 128,-1,36
 121 384 121 384 151.5 395 c 128,-1,37
 182 406 182 406 219 406 c 1,38,-1
 219 406 l 1,0,1
134 256 m 1,39,40
 134 224 134 224 157.5 202 c 128,-1,41
 181 180 181 180 217 180 c 0,42,43
 249 180 249 180 276.5 197 c 128,-1,44
 304 214 304 214 339 256 c 1,45,46
 312 288 312 288 284.5 309 c 128,-1,47
 257 330 257 330 220 330 c 256,48,49
 183 330 183 330 158.5 310 c 128,-1,50
 134 290 134 290 134 256 c 1,51,-1
 134 256 l 1,39,40
435 256 m 1,52,53
 470 214 470 214 497 197 c 128,-1,54
 524 180 524 180 556 180 c 0,55,56
 592 180 592 180 615.5 202 c 128,-1,57
 639 224 639 224 639 256 c 0,58,59
 639 290 639 290 614.5 310 c 128,-1,60
 590 330 590 330 553 330 c 0,61,62
 517 330 517 330 489.5 309 c 128,-1,63
 462 288 462 288 435 256 c 1,64,-1
 435 256 l 1,52,53
EndSplineSet
Validated: 5
EndChar

StartChar: uni03A9
Encoding: 937 937 169
Width: 687
GlyphClass: 1
Flags: W
LayerCount: 2
Fore
SplineSet
50 0 m 1,0,-1
 50 81 l 1,1,-1
 201 81 l 1,2,-1
 201 130 l 1,3,4
 167 149 167 149 139.5 175.5 c 128,-1,5
 112 202 112 202 92 235 c 128,-1,6
 72 268 72 268 61 306 c 128,-1,7
 50 344 50 344 50 385 c 0,8,9
 50 446 50 446 73 500 c 128,-1,10
 96 554 96 554 136 594 c 128,-1,11
 176 634 176 634 229 657 c 128,-1,12
 282 680 282 680 343 680 c 256,13,14
 404 680 404 680 457.5 657 c 128,-1,15
 511 634 511 634 551 594 c 128,-1,16
 591 554 591 554 614 500 c 128,-1,17
 637 446 637 446 637 385 c 0,18,19
 637 344 637 344 626 306 c 128,-1,20
 615 268 615 268 595 235 c 128,-1,21
 575 202 575 202 547.5 175.5 c 128,-1,22
 520 149 520 149 486 130 c 1,23,-1
 486 81 l 1,24,-1
 637 81 l 1,25,-1
 637 0 l 1,26,-1
 401 0 l 1,27,-1
 401 173 l 1,28,29
 436 182 436 182 466 202.5 c 128,-1,30
 496 223 496 223 518 250.5 c 128,-1,31
 540 278 540 278 552 312.5 c 128,-1,32
 564 347 564 347 564 385 c 0,33,34
 564 431 564 431 546.5 471 c 128,-1,35
 529 511 529 511 499 541 c 128,-1,36
 469 571 469 571 429 588.5 c 128,-1,37
 389 606 389 606 343 606 c 0,38,39
 298 606 298 606 258 588.5 c 128,-1,40
 218 571 218 571 188 541 c 128,-1,41
 158 511 158 511 140.5 471 c 128,-1,42
 123 431 123 431 123 385 c 0,43,44
 123 347 123 347 135.5 312.5 c 128,-1,45
 148 278 148 278 169.5 250.5 c 128,-1,46
 191 223 191 223 221 202.5 c 128,-1,47
 251 182 251 182 286 173 c 1,48,-1
 286 0 l 1,49,-1
 50 0 l 1,50,-1
 50 0 l 1,0,-1
EndSplineSet
Validated: 5
EndChar

StartChar: estimated
Encoding: 8494 8494 170
Width: 622
GlyphClass: 1
Flags: W
LayerCount: 2
Fore
SplineSet
53 256 m 1,0,1
 53 300 53 300 71.5 344.5 c 128,-1,2
 90 389 90 389 124 424.5 c 128,-1,3
 158 460 158 460 205.5 482 c 128,-1,4
 253 504 253 504 311 504 c 0,5,6
 364 504 364 504 411 484 c 128,-1,7
 458 464 458 464 493 429 c 128,-1,8
 528 394 528 394 548.5 347.5 c 128,-1,9
 569 301 569 301 569 248 c 1,10,-1
 159 248 l 1,11,-1
 159 78 l 1,12,13
 189 51 189 51 227.5 35.5 c 128,-1,14
 266 20 266 20 311 20 c 0,15,16
 362 20 362 20 406 41 c 128,-1,17
 450 62 450 62 481 97 c 1,18,-1
 514 87 l 1,19,20
 479 42 479 42 426.5 15 c 128,-1,21
 374 -12 374 -12 311 -12 c 0,22,23
 265 -12 265 -12 219 5 c 128,-1,24
 173 22 173 22 136 55.5 c 128,-1,25
 99 89 99 89 76 139.5 c 128,-1,26
 53 190 53 190 53 256 c 1,27,-1
 53 256 l 1,0,1
463 279 m 1,28,-1
 463 413 l 1,29,30
 433 441 433 441 394 456.5 c 128,-1,31
 355 472 355 472 311 472 c 0,32,33
 266 472 266 472 227.5 456.5 c 128,-1,34
 189 441 189 441 159 413 c 1,35,-1
 159 279 l 1,36,-1
 463 279 l 1,37,-1
 463 279 l 1,28,-1
EndSplineSet
Validated: 5
EndChar

StartChar: partialdiff
Encoding: 8706 8706 171
Width: 582
GlyphClass: 1
Flags: W
LayerCount: 2
Fore
SplineSet
291 504 m 1,0,1
 306 504 306 504 324 501 c 128,-1,2
 342 498 342 498 360 492 c 128,-1,3
 378 486 378 486 394.5 475.5 c 128,-1,4
 411 465 411 465 423 450 c 1,5,6
 408 498 408 498 381 527.5 c 128,-1,7
 354 557 354 557 317.5 573 c 128,-1,8
 281 589 281 589 236.5 594 c 128,-1,9
 192 599 192 599 142 598 c 1,10,-1
 142 680 l 1,11,12
 172 680 172 680 212.5 678.5 c 128,-1,13
 253 677 253 677 296 666 c 128,-1,14
 339 655 339 655 381 631 c 128,-1,15
 423 607 423 607 456 562 c 128,-1,16
 489 517 489 517 509.5 447.5 c 128,-1,17
 530 378 530 378 530 277 c 0,18,19
 530 269 530 269 529.5 261.5 c 128,-1,20
 529 254 529 254 529 246 c 0,21,22
 527 175 527 175 505.5 126 c 128,-1,23
 484 77 484 77 451 46 c 128,-1,24
 418 15 418 15 376 1.5 c 128,-1,25
 334 -12 334 -12 291 -12 c 256,26,27
 248 -12 248 -12 205.5 3 c 128,-1,28
 163 18 163 18 129 49.5 c 128,-1,29
 95 81 95 81 74 130 c 128,-1,30
 53 179 53 179 53 246 c 0,31,32
 53 314 53 314 74 362.5 c 128,-1,33
 95 411 95 411 129 442.5 c 128,-1,34
 163 474 163 474 205.5 489 c 128,-1,35
 248 504 248 504 291 504 c 1,36,-1
 291 504 l 1,0,1
142 246 m 1,37,38
 142 198 142 198 155 163 c 128,-1,39
 168 128 168 128 189.5 105.5 c 128,-1,40
 211 83 211 83 237.5 72 c 128,-1,41
 264 61 264 61 291 61 c 256,42,43
 318 61 318 61 344.5 72 c 128,-1,44
 371 83 371 83 392 105.5 c 128,-1,45
 413 128 413 128 426 163 c 128,-1,46
 439 198 439 198 439 246 c 256,47,48
 439 294 439 294 426 329 c 128,-1,49
 413 364 413 364 392 386.5 c 128,-1,50
 371 409 371 409 344.5 419.5 c 128,-1,51
 318 430 318 430 291 430 c 256,52,53
 264 430 264 430 237.5 419.5 c 128,-1,54
 211 409 211 409 189.5 386.5 c 128,-1,55
 168 364 168 364 155 329 c 128,-1,56
 142 294 142 294 142 246 c 1,57,-1
 142 246 l 1,37,38
EndSplineSet
Validated: 37
EndChar

StartChar: uni0394
Encoding: 916 916 172
Width: 759
GlyphClass: 1
Flags: W
LayerCount: 2
Fore
SplineSet
379 680 m 1,0,-1
 706 0 l 1,1,-1
 53 0 l 1,2,-1
 379 680 l 1,0,-1
580 78 m 1,3,-1
 379 498 l 1,4,-1
 178 78 l 1,5,-1
 580 78 l 1,3,-1
EndSplineSet
Validated: 1
EndChar

StartChar: product
Encoding: 8719 8719 173
Width: 585
GlyphClass: 1
Flags: W
LayerCount: 2
Fore
SplineSet
53 -161 m 1,0,-1
 53 668 l 1,1,-1
 532 668 l 1,2,-1
 532 -161 l 1,3,-1
 450 -161 l 1,4,-1
 450 587 l 1,5,-1
 134 587 l 1,6,-1
 134 -161 l 1,7,-1
 53 -161 l 1,0,-1
EndSplineSet
Validated: 1
EndChar

StartChar: pi
Encoding: 960 960 174
Width: 591
GlyphClass: 1
Flags: W
LayerCount: 2
Fore
SplineSet
20 414 m 1,0,-1
 20 496 l 1,1,-1
 551 496 l 1,2,-1
 551 414 l 1,3,-1
 467 414 l 1,4,-1
 467 139 l 2,5,6
 467 120 467 120 468 107 c 128,-1,7
 469 94 469 94 474.5 87 c 128,-1,8
 480 80 480 80 490 77 c 128,-1,9
 500 74 500 74 518 74 c 2,10,-1
 551 74 l 1,11,-1
 551 0 l 1,12,-1
 500 0 l 2,13,14
 464 0 464 0 441.5 5 c 128,-1,15
 419 10 419 10 406 23.5 c 128,-1,16
 393 37 393 37 388 61 c 128,-1,17
 383 85 383 85 383 124 c 2,18,-1
 383 414 l 1,19,-1
 185 414 l 1,20,-1
 185 0 l 1,21,-1
 104 0 l 1,22,-1
 104 414 l 1,23,-1
 20 414 l 1,24,-1
 20 414 l 1,0,-1
EndSplineSet
Validated: 5
EndChar

StartChar: hungarumlaut
Encoding: 733 733 175
Width: 414
GlyphClass: 1
Flags: W
LayerCount: 2
Fore
SplineSet
53 572 m 1,0,-1
 69 594 l 1,1,-1
 149 695 l 2,2,3
 154 702 154 702 161.5 705 c 128,-1,4
 169 708 169 708 177 708 c 0,5,6
 193 708 193 708 204 697 c 128,-1,7
 215 686 215 686 215 670 c 0,8,9
 215 663 215 663 213 656 c 128,-1,10
 211 649 211 649 204 643 c 2,11,-1
 123 572 l 1,12,-1
 53 572 l 1,13,-1
 53 572 l 1,0,-1
199 572 m 1,14,-1
 215 594 l 1,15,-1
 295 695 l 2,16,17
 300 702 300 702 307.5 705 c 128,-1,18
 315 708 315 708 323 708 c 0,19,20
 338 708 338 708 349.5 696.5 c 128,-1,21
 361 685 361 685 361 670 c 0,22,23
 361 663 361 663 359 656 c 128,-1,24
 357 649 357 649 350 643 c 2,25,-1
 269 572 l 1,26,-1
 199 572 l 1,27,-1
 199 572 l 1,14,-1
EndSplineSet
Validated: 5
Substitution2: "'case' Case-Sensitive Forms lookup 1 subtable" hungarumlaut.case
EndChar

StartChar: tilde
Encoding: 732 732 176
Width: 435
GlyphClass: 1
Flags: W
LayerCount: 2
Fore
SplineSet
53 577 m 1,0,1
 62 631 62 631 90.5 656 c 128,-1,2
 119 681 119 681 159 681 c 0,3,4
 180 681 180 681 196 674.5 c 128,-1,5
 212 668 212 668 226 659.5 c 128,-1,6
 240 651 240 651 253.5 644.5 c 128,-1,7
 267 638 267 638 283 638 c 0,8,9
 298 638 298 638 306.5 644 c 128,-1,10
 315 650 315 650 322 661 c 0,11,12
 328 672 328 672 335.5 676 c 128,-1,13
 343 680 343 680 351 680 c 0,14,15
 363 680 363 680 372.5 671 c 128,-1,16
 382 662 382 662 382 649 c 0,17,18
 382 641 382 641 375.5 628.5 c 128,-1,19
 369 616 369 616 357 604 c 128,-1,20
 345 592 345 592 327 583.5 c 128,-1,21
 309 575 309 575 285 575 c 0,22,23
 264 575 264 575 247.5 581.5 c 128,-1,24
 231 588 231 588 216.5 596.5 c 128,-1,25
 202 605 202 605 188.5 611.5 c 128,-1,26
 175 618 175 618 160 618 c 0,27,28
 123 618 123 618 118 577 c 1,29,-1
 53 577 l 1,30,-1
 53 577 l 1,0,1
EndSplineSet
Validated: 5
Substitution2: "'case' Case-Sensitive Forms lookup 1 subtable" tilde.case
EndChar

StartChar: endash
Encoding: 8211 8211 177
Width: 480
GlyphClass: 1
Flags: W
LayerCount: 2
Fore
SplineSet
41 287 m 1,0,-1
 439 287 l 1,1,-1
 439 208 l 1,2,-1
 41 208 l 1,3,-1
 41 287 l 1,0,-1
EndSplineSet
Validated: 1
EndChar

StartChar: emdash
Encoding: 8212 8212 178
Width: 800
GlyphClass: 1
Flags: W
LayerCount: 2
Fore
SplineSet
41 287 m 1,0,-1
 759 287 l 1,1,-1
 759 208 l 1,2,-1
 41 208 l 1,3,-1
 41 287 l 1,0,-1
EndSplineSet
Validated: 1
EndChar

StartChar: trademark
Encoding: 8482 8482 179
Width: 848
GlyphClass: 1
Flags: W
LayerCount: 2
Fore
SplineSet
53 668 m 1,0,-1
 356 668 l 1,1,-1
 356 608 l 1,2,-1
 238 608 l 1,3,-1
 238 292 l 1,4,-1
 171 292 l 1,5,-1
 171 608 l 1,6,-1
 53 608 l 1,7,-1
 53 668 l 1,0,-1
501 668 m 1,8,-1
 594 384 l 1,9,-1
 687 668 l 1,10,-1
 795 668 l 1,11,-1
 795 292 l 1,12,-1
 728 292 l 1,13,-1
 728 571 l 1,14,-1
 630 292 l 1,15,-1
 558 292 l 1,16,-1
 460 571 l 1,17,-1
 460 292 l 1,18,-1
 393 292 l 1,19,-1
 393 668 l 1,20,-1
 501 668 l 1,8,-1
EndSplineSet
Validated: 1
EndChar

StartChar: dotlessi
Encoding: 305 305 180
Width: 278
GlyphClass: 1
Flags: W
LayerCount: 2
Fore
SplineSet
114 429 m 1,0,-1
 45 429 l 1,1,-1
 45 496 l 1,2,-1
 198 496 l 1,3,-1
 198 0 l 1,4,-1
 114 0 l 1,5,-1
 114 429 l 1,0,-1
EndSplineSet
Validated: 1
EndChar

StartChar: Euro
Encoding: 8364 8364 181
Width: 664
GlyphClass: 1
Flags: W
LayerCount: 2
Fore
SplineSet
15 377 m 1,0,-1
 43 428 l 1,1,-1
 106 428 l 1,2,3
 117 486 117 486 141.5 532.5 c 128,-1,4
 166 579 166 579 202 612 c 128,-1,5
 238 645 238 645 285 662.5 c 128,-1,6
 332 680 332 680 387 680 c 0,7,8
 465 680 465 680 527.5 640.5 c 128,-1,9
 590 601 590 601 623 528 c 1,10,-1
 545 500 l 1,11,12
 524 545 524 545 483.5 573 c 128,-1,13
 443 601 443 601 382 601 c 0,14,15
 316 601 316 601 266 557 c 128,-1,16
 216 513 216 513 197 428 c 1,17,-1
 446 428 l 1,18,-1
 418 377 l 1,19,-1
 189 377 l 1,20,21
 188 367 188 367 188 356 c 128,-1,22
 188 345 188 345 188 334 c 256,23,24
 188 323 188 323 188 312.5 c 128,-1,25
 188 302 188 302 189 291 c 1,26,-1
 371 291 l 1,27,-1
 343 240 l 1,28,-1
 197 240 l 1,29,30
 217 157 217 157 266.5 112 c 128,-1,31
 316 67 316 67 385 67 c 0,32,33
 445 67 445 67 486 94.5 c 128,-1,34
 527 122 527 122 549 167 c 1,35,-1
 626 139 l 1,36,37
 592 64 592 64 527.5 26 c 128,-1,38
 463 -12 463 -12 380 -12 c 0,39,40
 324 -12 324 -12 278 6 c 128,-1,41
 232 24 232 24 197.5 57 c 128,-1,42
 163 90 163 90 140 136.5 c 128,-1,43
 117 183 117 183 106 240 c 1,44,-1
 15 240 l 1,45,-1
 43 291 l 1,46,-1
 100 291 l 1,47,48
 99 302 99 302 99 312.5 c 128,-1,49
 99 323 99 323 99 334 c 256,50,51
 99 345 99 345 99 355.5 c 128,-1,52
 99 366 99 366 100 377 c 1,53,-1
 15 377 l 1,54,-1
 15 377 l 1,0,-1
EndSplineSet
Validated: 5
EndChar

StartChar: uni2113
Encoding: 8467 8467 182
Width: 450
GlyphClass: 1
Flags: W
LayerCount: 2
Fore
SplineSet
53 227 m 1,0,-1
 119 278 l 1,1,-1
 119 507 l 2,2,3
 119 589 119 589 152.5 634.5 c 128,-1,4
 186 680 186 680 264 680 c 0,5,6
 327 680 327 680 360.5 640.5 c 128,-1,7
 394 601 394 601 394 538 c 0,8,9
 394 494 394 494 381.5 456.5 c 128,-1,10
 369 419 369 419 345 384.5 c 128,-1,11
 321 350 321 350 285.5 317.5 c 128,-1,12
 250 285 250 285 204 251 c 1,13,-1
 204 151 l 2,14,15
 204 124 204 124 209.5 106.5 c 128,-1,16
 215 89 215 89 224 79 c 128,-1,17
 233 69 233 69 245 65 c 128,-1,18
 257 61 257 61 271 61 c 0,19,20
 297 61 297 61 319 72 c 128,-1,21
 341 83 341 83 360 100 c 1,22,-1
 397 42 l 1,23,24
 374 21 374 21 338.5 4.5 c 128,-1,25
 303 -12 303 -12 261 -12 c 0,26,27
 185 -12 185 -12 152 27.5 c 128,-1,28
 119 67 119 67 119 156 c 2,29,-1
 119 188 l 1,30,-1
 53 138 l 1,31,-1
 53 227 l 1,32,-1
 53 227 l 1,0,-1
204 344 m 1,33,34
 260 383 260 383 286 431 c 128,-1,35
 312 479 312 479 312 535 c 0,36,37
 312 575 312 575 297.5 592.5 c 128,-1,38
 283 610 283 610 259 610 c 0,39,40
 230 610 230 610 217 590.5 c 128,-1,41
 204 571 204 571 204 518 c 2,42,-1
 204 344 l 1,43,-1
 204 344 l 1,33,34
EndSplineSet
Validated: 5
EndChar

StartChar: Lslash
Encoding: 321 321 183
Width: 573
GlyphClass: 1
Flags: W
LayerCount: 2
Fore
SplineSet
20 287 m 1,0,-1
 110 340 l 1,1,-1
 110 669 l 1,2,-1
 204 669 l 1,3,-1
 204 397 l 1,4,-1
 384 505 l 1,5,-1
 384 434 l 1,6,-1
 204 326 l 1,7,-1
 204 81 l 1,8,-1
 563 81 l 1,9,-1
 563 0 l 1,10,-1
 110 0 l 1,11,-1
 110 270 l 1,12,-1
 20 216 l 1,13,-1
 20 287 l 1,0,-1
EndSplineSet
Validated: 1
EndChar

StartChar: lslash
Encoding: 322 322 184
Width: 237
GlyphClass: 1
Flags: W
LayerCount: 2
Fore
SplineSet
15 312 m 1,0,-1
 68 344 l 1,1,-1
 68 668 l 1,2,-1
 152 668 l 1,3,-1
 152 394 l 1,4,-1
 222 436 l 1,5,-1
 222 365 l 1,6,-1
 152 323 l 1,7,-1
 152 139 l 2,8,9
 152 120 152 120 153.5 107 c 128,-1,10
 155 94 155 94 160 87 c 128,-1,11
 165 80 165 80 175.5 77 c 128,-1,12
 186 74 186 74 204 74 c 2,13,-1
 222 74 l 1,14,-1
 222 0 l 1,15,-1
 186 0 l 2,16,17
 150 0 150 0 127 5 c 128,-1,18
 104 10 104 10 91 23.5 c 128,-1,19
 78 37 78 37 73 61.5 c 128,-1,20
 68 86 68 86 68 124 c 2,21,-1
 68 273 l 1,22,-1
 15 242 l 1,23,-1
 15 312 l 1,24,-1
 15 312 l 1,0,-1
EndSplineSet
Validated: 5
EndChar

StartChar: oslash
Encoding: 248 248 185
Width: 552
GlyphClass: 1
Flags: W
LayerCount: 2
Fore
SplineSet
38 246 m 1,0,1
 38 313 38 313 59 362 c 128,-1,2
 80 411 80 411 114 442.5 c 128,-1,3
 148 474 148 474 190.5 489 c 128,-1,4
 233 504 233 504 276 504 c 0,5,6
 313 504 313 504 349 493.5 c 128,-1,7
 385 483 385 483 416 460 c 1,8,-1
 457 507 l 1,9,-1
 495 474 l 1,10,-1
 454 425 l 1,11,12
 481 394 481 394 497.5 349.5 c 128,-1,13
 514 305 514 305 514 246 c 0,14,15
 514 179 514 179 493 130 c 128,-1,16
 472 81 472 81 438 49.5 c 128,-1,17
 404 18 404 18 361.5 3 c 128,-1,18
 319 -12 319 -12 276 -12 c 0,19,20
 236 -12 236 -12 196.5 0.5 c 128,-1,21
 157 13 157 13 125 40 c 1,22,-1
 83 -9 l 1,23,-1
 45 24 l 1,24,-1
 89 77 l 1,25,26
 66 108 66 108 52 150 c 128,-1,27
 38 192 38 192 38 246 c 1,28,-1
 38 246 l 1,0,1
178 103 m 1,29,30
 199 82 199 82 224.5 72 c 128,-1,31
 250 62 250 62 276 62 c 0,32,33
 303 62 303 62 329.5 73 c 128,-1,34
 356 84 356 84 377 106.5 c 128,-1,35
 398 129 398 129 411 163.5 c 128,-1,36
 424 198 424 198 424 246 c 0,37,38
 424 281 424 281 417 309 c 128,-1,39
 410 337 410 337 397 359 c 1,40,-1
 178 103 l 1,41,-1
 178 103 l 1,29,30
148 146 m 1,42,-1
 364 398 l 1,43,44
 344 415 344 415 321.5 422.5 c 128,-1,45
 299 430 299 430 276 430 c 0,46,47
 249 430 249 430 222.5 419.5 c 128,-1,48
 196 409 196 409 174.5 386.5 c 128,-1,49
 153 364 153 364 140 329 c 128,-1,50
 127 294 127 294 127 246 c 0,51,52
 127 216 127 216 132.5 191 c 128,-1,53
 138 166 138 166 148 146 c 1,54,-1
 148 146 l 1,42,-1
EndSplineSet
Validated: 5
EndChar

StartChar: Oslash
Encoding: 216 216 186
Width: 727
GlyphClass: 1
Flags: W
LayerCount: 2
Fore
SplineSet
50 333 m 1,0,1
 50 409 50 409 72 472.5 c 128,-1,2
 94 536 94 536 134.5 582 c 128,-1,3
 175 628 175 628 233 654 c 128,-1,4
 291 680 291 680 363 680 c 0,5,6
 423 680 423 680 473.5 662 c 128,-1,7
 524 644 524 644 563 610 c 1,8,-1
 616 673 l 1,9,-1
 655 641 l 1,10,-1
 599 574 l 1,11,12
 637 528 637 528 657 467 c 128,-1,13
 677 406 677 406 677 333 c 0,14,15
 677 258 677 258 655 194.5 c 128,-1,16
 633 131 633 131 592.5 85 c 128,-1,17
 552 39 552 39 493.5 13.5 c 128,-1,18
 435 -12 435 -12 363 -12 c 0,19,20
 301 -12 301 -12 250 6.5 c 128,-1,21
 199 25 199 25 160 60 c 1,22,-1
 103 -6 l 1,23,-1
 65 27 l 1,24,-1
 125 97 l 1,25,26
 89 142 89 142 69.5 202.5 c 128,-1,27
 50 263 50 263 50 333 c 1,28,-1
 50 333 l 1,0,1
363 67 m 1,29,30
 409 67 409 67 448.5 84.5 c 128,-1,31
 488 102 488 102 517.5 136 c 128,-1,32
 547 170 547 170 564 219.5 c 128,-1,33
 581 269 581 269 581 333 c 0,34,35
 581 386 581 386 569.5 428.5 c 128,-1,36
 558 471 558 471 538 503 c 1,37,-1
 217 127 l 1,38,39
 246 98 246 98 283.5 82.5 c 128,-1,40
 321 67 321 67 363 67 c 1,41,-1
 363 67 l 1,29,30
186 169 m 1,42,-1
 506 543 l 1,43,44
 448 599 448 599 363 599 c 0,45,46
 318 599 318 599 278 582 c 128,-1,47
 238 565 238 565 209 531 c 128,-1,48
 180 497 180 497 163 447.5 c 128,-1,49
 146 398 146 398 146 333 c 0,50,51
 146 234 146 234 186 169 c 1,52,-1
 186 169 l 1,42,-1
EndSplineSet
Validated: 5
EndChar

StartChar: Thorn
Encoding: 222 222 187
Width: 576
GlyphClass: 1
Flags: W
LayerCount: 2
Fore
SplineSet
160 668 m 1,0,-1
 160 528 l 1,1,-1
 287 528 l 2,2,3
 343 528 343 528 389 520.5 c 128,-1,4
 435 513 435 513 468 492.5 c 128,-1,5
 501 472 501 472 519.5 436.5 c 128,-1,6
 538 401 538 401 538 345 c 256,7,8
 538 289 538 289 519.5 253.5 c 128,-1,9
 501 218 501 218 468 198 c 128,-1,10
 435 178 435 178 389 170.5 c 128,-1,11
 343 163 343 163 287 163 c 2,12,-1
 160 163 l 1,13,-1
 160 0 l 1,14,-1
 76 0 l 1,15,-1
 76 668 l 1,16,-1
 160 668 l 1,17,-1
 160 668 l 1,0,-1
160 447 m 1,18,-1
 160 244 l 1,19,-1
 296 244 l 2,20,21
 326 244 326 244 352.5 246.5 c 128,-1,22
 379 249 379 249 398.5 259.5 c 128,-1,23
 418 270 418 270 429.5 290 c 128,-1,24
 441 310 441 310 441 344 c 256,25,26
 441 378 441 378 429.5 398.5 c 128,-1,27
 418 419 418 419 398.5 429.5 c 128,-1,28
 379 440 379 440 352.5 443.5 c 128,-1,29
 326 447 326 447 296 447 c 2,30,-1
 160 447 l 1,31,-1
 160 447 l 1,18,-1
EndSplineSet
Validated: 5
EndChar

StartChar: ae
Encoding: 230 230 189
Width: 874
GlyphClass: 1
Flags: W
LayerCount: 2
Fore
SplineSet
38 131 m 1,0,1
 38 176 38 176 64 206.5 c 128,-1,2
 90 237 90 237 135 256 c 128,-1,3
 180 275 180 275 241.5 283.5 c 128,-1,4
 303 292 303 292 373 292 c 1,5,6
 373 303 373 303 373 326.5 c 128,-1,7
 373 350 373 350 364 374.5 c 128,-1,8
 355 399 355 399 331.5 417.5 c 128,-1,9
 308 436 308 436 261 436 c 0,10,11
 216 436 216 436 187.5 415.5 c 128,-1,12
 159 395 159 395 151 359 c 1,13,-1
 70 383 l 1,14,15
 81 412 81 412 100 434.5 c 128,-1,16
 119 457 119 457 144.5 472.5 c 128,-1,17
 170 488 170 488 199.5 496 c 128,-1,18
 229 504 229 504 260 504 c 0,19,20
 390 504 390 504 433 424 c 1,21,22
 466 462 466 462 512.5 483 c 128,-1,23
 559 504 559 504 614 504 c 0,24,25
 674 504 674 504 719 480 c 128,-1,26
 764 456 764 456 793 417 c 128,-1,27
 822 378 822 378 835.5 328 c 128,-1,28
 849 278 849 278 845 225 c 1,29,-1
 463 225 l 1,30,31
 465 178 465 178 480.5 146.5 c 128,-1,32
 496 115 496 115 518.5 96.5 c 128,-1,33
 541 78 541 78 567.5 70 c 128,-1,34
 594 62 594 62 617 62 c 0,35,36
 659 62 659 62 687 75 c 128,-1,37
 715 88 715 88 733 111 c 1,38,-1
 814 87 l 1,39,40
 786 43 786 43 736 15.5 c 128,-1,41
 686 -12 686 -12 617 -12 c 256,42,43
 548 -12 548 -12 497.5 15 c 128,-1,44
 447 42 447 42 417 88 c 1,45,46
 391 45 391 45 339.5 16.5 c 128,-1,47
 288 -12 288 -12 209 -12 c 0,48,49
 174 -12 174 -12 143 -2.5 c 128,-1,50
 112 7 112 7 88.5 25.5 c 128,-1,51
 65 44 65 44 51.5 70.5 c 128,-1,52
 38 97 38 97 38 131 c 1,53,-1
 38 131 l 1,0,1
227 54 m 1,54,55
 269 54 269 54 297 65.5 c 128,-1,56
 325 77 325 77 342 94.5 c 128,-1,57
 359 112 359 112 367 133.5 c 128,-1,58
 375 155 375 155 378 174 c 128,-1,59
 381 193 381 193 380.5 207 c 128,-1,60
 380 221 380 221 380 225 c 1,61,62
 323 225 323 225 277 220 c 128,-1,63
 231 215 231 215 198.5 204.5 c 128,-1,64
 166 194 166 194 148.5 176.5 c 128,-1,65
 131 159 131 159 131 133 c 0,66,67
 131 98 131 98 156.5 76 c 128,-1,68
 182 54 182 54 227 54 c 1,69,-1
 227 54 l 1,54,55
465 292 m 1,70,-1
 757 292 l 1,71,72
 756 318 756 318 746 343.5 c 128,-1,73
 736 369 736 369 717.5 388.5 c 128,-1,74
 699 408 699 408 673 420 c 128,-1,75
 647 432 647 432 614 432 c 0,76,77
 586 432 586 432 560 424 c 128,-1,78
 534 416 534 416 514 399.5 c 128,-1,79
 494 383 494 383 481 356.5 c 128,-1,80
 468 330 468 330 465 292 c 1,81,-1
 465 292 l 1,70,-1
EndSplineSet
Validated: 37
EndChar

StartChar: eth
Encoding: 240 240 190
Width: 567
GlyphClass: 1
Flags: W
LayerCount: 2
Fore
SplineSet
38 218 m 1,0,1
 38 268 38 268 54 310 c 128,-1,2
 70 352 70 352 99 382 c 128,-1,3
 128 412 128 412 167.5 428.5 c 128,-1,4
 207 445 207 445 254 445 c 0,5,6
 320 445 320 445 363.5 418.5 c 128,-1,7
 407 392 407 392 430 352 c 1,8,9
 425 421 425 421 406.5 468.5 c 128,-1,10
 388 516 388 516 356 547 c 1,11,-1
 283 474 l 1,12,-1
 247 510 l 1,13,-1
 313 576 l 1,14,15
 286 590 286 590 251.5 596 c 128,-1,16
 217 602 217 602 175 602 c 1,17,-1
 175 679 l 1,18,19
 231 679 231 679 280 669 c 128,-1,20
 329 659 329 659 371 634 c 1,21,-1
 417 680 l 1,22,-1
 453 644 l 1,23,-1
 413 604 l 1,24,25
 440 580 440 580 459.5 546.5 c 128,-1,26
 479 513 479 513 491.5 473.5 c 128,-1,27
 504 434 504 434 510.5 390.5 c 128,-1,28
 517 347 517 347 517 303 c 0,29,30
 517 243 517 243 505.5 186 c 128,-1,31
 494 129 494 129 466 85 c 128,-1,32
 438 41 438 41 391 14.5 c 128,-1,33
 344 -12 344 -12 273 -12 c 0,34,35
 219 -12 219 -12 176 6.5 c 128,-1,36
 133 25 133 25 102 56.5 c 128,-1,37
 71 88 71 88 54.5 130 c 128,-1,38
 38 172 38 172 38 218 c 1,39,-1
 38 218 l 1,0,1
273 59 m 1,40,41
 340 59 340 59 379.5 102.5 c 128,-1,42
 419 146 419 146 419 215 c 256,43,44
 419 284 419 284 379.5 327.5 c 128,-1,45
 340 371 340 371 273 371 c 0,46,47
 207 371 207 371 167.5 327.5 c 128,-1,48
 128 284 128 284 128 215 c 256,49,50
 128 146 128 146 167.5 102.5 c 128,-1,51
 207 59 207 59 273 59 c 1,52,-1
 273 59 l 1,40,41
EndSplineSet
Validated: 5
EndChar

StartChar: thorn
Encoding: 254 254 191
Width: 566
GlyphClass: 1
Flags: W
LayerCount: 2
Fore
SplineSet
70 -161 m 1,0,-1
 70 669 l 1,1,-1
 154 669 l 1,2,-1
 154 418 l 1,3,4
 177 457 177 457 216.5 481 c 128,-1,5
 256 505 256 505 315 505 c 0,6,7
 357 505 357 505 396 487.5 c 128,-1,8
 435 470 435 470 464 437 c 128,-1,9
 493 404 493 404 510.5 356 c 128,-1,10
 528 308 528 308 528 246 c 0,11,12
 528 185 528 185 510.5 137 c 128,-1,13
 493 89 493 89 464 56 c 128,-1,14
 435 23 435 23 396 5.5 c 128,-1,15
 357 -12 357 -12 315 -12 c 0,16,17
 256 -12 256 -12 216.5 12 c 128,-1,18
 177 36 177 36 154 75 c 1,19,-1
 154 -161 l 1,20,-1
 70 -161 l 1,21,-1
 70 -161 l 1,0,-1
293 60 m 1,22,23
 357 60 357 60 395.5 108.5 c 128,-1,24
 434 157 434 157 434 246 c 256,25,26
 434 335 434 335 395.5 384 c 128,-1,27
 357 433 357 433 293 433 c 256,28,29
 229 433 229 433 190.5 384 c 128,-1,30
 152 335 152 335 152 246 c 0,31,32
 152 158 152 158 190.5 109 c 128,-1,33
 229 60 229 60 293 60 c 1,34,-1
 293 60 l 1,22,23
EndSplineSet
Validated: 5
EndChar

StartChar: uni02C9
Encoding: 713 713 192
Width: 382
GlyphClass: 1
Flags: W
LayerCount: 2
Fore
SplineSet
53 668 m 1,0,-1
 329 668 l 1,1,-1
 329 601 l 1,2,-1
 53 601 l 1,3,-1
 53 668 l 1,0,-1
EndSplineSet
Validated: 1
EndChar

StartChar: multiply
Encoding: 215 215 198
Width: 528
GlyphClass: 1
Flags: W
LayerCount: 2
Fore
SplineSet
110 462 m 1,0,-1
 264 308 l 1,1,-1
 418 462 l 1,2,-1
 475 404 l 1,3,-1
 322 250 l 1,4,-1
 475 97 l 1,5,-1
 418 39 l 1,6,-1
 264 193 l 1,7,-1
 110 39 l 1,8,-1
 53 97 l 1,9,-1
 207 250 l 1,10,-1
 53 404 l 1,11,-1
 110 462 l 1,0,-1
EndSplineSet
Validated: 1
EndChar

StartChar: divide
Encoding: 247 247 199
Width: 602
GlyphClass: 1
Flags: W
LayerCount: 2
Fore
SplineSet
236 418 m 1,0,1
 236 445 236 445 255 464 c 128,-1,2
 274 483 274 483 301 483 c 256,3,4
 328 483 328 483 346.5 464 c 128,-1,5
 365 445 365 445 365 418 c 256,6,7
 365 391 365 391 346.5 372.5 c 128,-1,8
 328 354 328 354 301 354 c 256,9,10
 274 354 274 354 255 372.5 c 128,-1,11
 236 391 236 391 236 418 c 1,12,-1
 236 418 l 1,0,1
236 79 m 1,13,14
 236 105 236 105 255 124 c 128,-1,15
 274 143 274 143 301 143 c 256,16,17
 328 143 328 143 346.5 124 c 128,-1,18
 365 105 365 105 365 79 c 0,19,20
 365 52 365 52 346.5 33 c 128,-1,21
 328 14 328 14 301 14 c 256,22,23
 274 14 274 14 255 33 c 128,-1,24
 236 52 236 52 236 79 c 1,25,-1
 236 79 l 1,13,14
53 208 m 1,26,-1
 53 289 l 1,27,-1
 549 289 l 1,28,-1
 549 208 l 1,29,-1
 53 208 l 1,26,-1
EndSplineSet
Validated: 5
EndChar

StartChar: OE
Encoding: 338 338 200
Width: 1052
GlyphClass: 1
Flags: W
LayerCount: 2
Fore
SplineSet
363 680 m 1,0,1
 431 680 431 680 485.5 658 c 128,-1,2
 540 636 540 636 581 597 c 1,3,-1
 581 669 l 1,4,-1
 1014 669 l 1,5,-1
 1014 588 l 1,6,-1
 655 588 l 1,7,-1
 655 385 l 1,8,-1
 920 385 l 1,9,-1
 920 304 l 1,10,-1
 655 304 l 1,11,-1
 655 81 l 1,12,-1
 1014 81 l 1,13,-1
 1014 0 l 1,14,-1
 581 0 l 1,15,-1
 581 75 l 1,16,17
 540 33 540 33 485.5 10.5 c 128,-1,18
 431 -12 431 -12 363 -12 c 0,19,20
 291 -12 291 -12 233 14 c 128,-1,21
 175 40 175 40 134.5 86 c 128,-1,22
 94 132 94 132 72 195.5 c 128,-1,23
 50 259 50 259 50 335 c 256,24,25
 50 411 50 411 72 474.5 c 128,-1,26
 94 538 94 538 134.5 583.5 c 128,-1,27
 175 629 175 629 233 654.5 c 128,-1,28
 291 680 291 680 363 680 c 1,29,-1
 363 680 l 1,0,1
146 335 m 1,30,31
 146 271 146 271 163 221 c 128,-1,32
 180 171 180 171 209 137.5 c 128,-1,33
 238 104 238 104 278 86.5 c 128,-1,34
 318 69 318 69 363 69 c 256,35,36
 408 69 408 69 447.5 86 c 128,-1,37
 487 103 487 103 517 136.5 c 128,-1,38
 547 170 547 170 564 219.5 c 128,-1,39
 581 269 581 269 581 334 c 0,40,41
 581 404 581 404 562.5 454.5 c 128,-1,42
 544 505 544 505 513.5 538 c 128,-1,43
 483 571 483 571 443.5 586.5 c 128,-1,44
 404 602 404 602 363 602 c 0,45,46
 318 602 318 602 278 584.5 c 128,-1,47
 238 567 238 567 209 533.5 c 128,-1,48
 180 500 180 500 163 450 c 128,-1,49
 146 400 146 400 146 335 c 1,50,-1
 146 335 l 1,30,31
EndSplineSet
Validated: 5
EndChar

StartChar: oe
Encoding: 339 339 201
Width: 927
GlyphClass: 1
Flags: W
LayerCount: 2
Fore
SplineSet
276 505 m 1,0,1
 331 505 331 505 383.5 480.5 c 128,-1,2
 436 456 436 456 471 404 c 1,3,4
 503 452 503 452 554 478.5 c 128,-1,5
 605 505 605 505 666 505 c 0,6,7
 726 505 726 505 771 481 c 128,-1,8
 816 457 816 457 845.5 418 c 128,-1,9
 875 379 875 379 888.5 328.5 c 128,-1,10
 902 278 902 278 898 225 c 1,11,-1
 516 225 l 1,12,13
 518 178 518 178 533.5 146.5 c 128,-1,14
 549 115 549 115 571.5 96.5 c 128,-1,15
 594 78 594 78 620 70 c 128,-1,16
 646 62 646 62 669 62 c 0,17,18
 711 62 711 62 739 75 c 128,-1,19
 767 88 767 88 785 111 c 1,20,-1
 866 87 l 1,21,22
 838 44 838 44 788.5 16 c 128,-1,23
 739 -12 739 -12 669 -12 c 0,24,25
 600 -12 600 -12 550 15 c 128,-1,26
 500 42 500 42 470 88 c 1,27,28
 435 37 435 37 382.5 12.5 c 128,-1,29
 330 -12 330 -12 276 -12 c 0,30,31
 233 -12 233 -12 190.5 3 c 128,-1,32
 148 18 148 18 114 49.5 c 128,-1,33
 80 81 80 81 59 130 c 128,-1,34
 38 179 38 179 38 246 c 0,35,36
 38 314 38 314 59 362.5 c 128,-1,37
 80 411 80 411 114 443 c 128,-1,38
 148 475 148 475 190.5 490 c 128,-1,39
 233 505 233 505 276 505 c 1,40,-1
 276 505 l 1,0,1
276 62 m 1,41,42
 303 62 303 62 329.5 73 c 128,-1,43
 356 84 356 84 377 106.5 c 128,-1,44
 398 129 398 129 411 163.5 c 128,-1,45
 424 198 424 198 424 246 c 256,46,47
 424 294 424 294 411 329 c 128,-1,48
 398 364 398 364 377 386.5 c 128,-1,49
 356 409 356 409 329.5 420 c 128,-1,50
 303 431 303 431 276 431 c 256,51,52
 249 431 249 431 222.5 420 c 128,-1,53
 196 409 196 409 174.5 386.5 c 128,-1,54
 153 364 153 364 140 329 c 128,-1,55
 127 294 127 294 127 246 c 256,56,57
 127 198 127 198 140 163.5 c 128,-1,58
 153 129 153 129 174.5 106.5 c 128,-1,59
 196 84 196 84 222.5 73 c 128,-1,60
 249 62 249 62 276 62 c 1,61,-1
 276 62 l 1,41,42
809 292 m 1,62,63
 808 319 808 319 798 344 c 128,-1,64
 788 369 788 369 770 389 c 128,-1,65
 752 409 752 409 725.5 421 c 128,-1,66
 699 433 699 433 666 433 c 0,67,68
 638 433 638 433 612.5 425 c 128,-1,69
 587 417 587 417 566.5 400 c 128,-1,70
 546 383 546 383 533 356.5 c 128,-1,71
 520 330 520 330 517 292 c 1,72,-1
 809 292 l 1,73,-1
 809 292 l 1,62,63
EndSplineSet
Validated: 37
EndChar

StartChar: Aring
Encoding: 197 197 205
Width: 626
GlyphClass: 1
Flags: W
LayerCount: 2
Fore
SplineSet
315 838 m 1,0,1
 338 838 338 838 357.5 829.5 c 128,-1,2
 377 821 377 821 391.5 806 c 128,-1,3
 406 791 406 791 414 771 c 128,-1,4
 422 751 422 751 422 729 c 256,5,6
 422 707 422 707 414 687 c 128,-1,7
 406 667 406 667 391.5 652 c 128,-1,8
 377 637 377 637 357.5 628.5 c 128,-1,9
 338 620 338 620 315 620 c 256,10,11
 292 620 292 620 271.5 628.5 c 128,-1,12
 251 637 251 637 236 652 c 128,-1,13
 221 667 221 667 212.5 687 c 128,-1,14
 204 707 204 707 204 729 c 256,15,16
 204 751 204 751 212.5 771 c 128,-1,17
 221 791 221 791 236 806 c 128,-1,18
 251 821 251 821 271.5 829.5 c 128,-1,19
 292 838 292 838 315 838 c 1,20,-1
 315 838 l 1,21,-1
 315 838 l 1,0,1
261 729 m 1,22,23
 261 708 261 708 276 693 c 128,-1,24
 291 678 291 678 313 678 c 256,25,26
 335 678 335 678 350 693 c 128,-1,27
 365 708 365 708 365 729 c 256,28,29
 365 750 365 750 350 765 c 128,-1,30
 335 780 335 780 313 780 c 256,31,32
 291 780 291 780 276 765 c 128,-1,33
 261 750 261 750 261 729 c 1,34,-1
 261 729 l 1,35,-1
 261 729 l 1,22,23
366 669 m 1,36,-1
 616 0 l 1,37,-1
 516 0 l 1,38,-1
 465 146 l 1,39,-1
 161 146 l 1,40,-1
 110 0 l 1,41,-1
 10 0 l 1,42,-1
 261 669 l 1,43,-1
 366 669 l 1,36,-1
436 227 m 1,44,-1
 313 574 l 1,45,-1
 190 227 l 1,46,-1
 436 227 l 1,44,-1
EndSplineSet
Validated: 5
EndChar

StartChar: Ccedilla
Encoding: 199 199 216
Width: 671
GlyphClass: 1
Flags: W
LayerCount: 2
Fore
SplineSet
277 -126 m 1,0,1
 309 -140 309 -140 335 -140 c 256,2,3
 361 -140 361 -140 373.5 -129 c 128,-1,4
 386 -118 386 -118 386 -106 c 0,5,6
 386 -96 386 -96 377.5 -88.5 c 128,-1,7
 369 -81 369 -81 350 -81 c 0,8,9
 339 -81 339 -81 319 -86 c 0,10,11
 305 -90 305 -90 298 -83 c 128,-1,12
 291 -76 291 -76 291 -67 c 0,13,14
 291 -62 291 -62 294 -57 c 2,15,-1
 345 25 l 1,16,-1
 379 4 l 1,17,-1
 349 -45 l 1,18,19
 357 -43 357 -43 364.5 -42 c 128,-1,20
 372 -41 372 -41 379 -41 c 0,21,22
 414 -41 414 -41 431 -59.5 c 128,-1,23
 448 -78 448 -78 448 -102 c 0,24,25
 448 -116 448 -116 442 -130.5 c 128,-1,26
 436 -145 436 -145 424 -156 c 128,-1,27
 412 -167 412 -167 393.5 -174 c 128,-1,28
 375 -181 375 -181 351 -181 c 0,29,30
 312 -181 312 -181 263 -161 c 1,31,-1
 277 -126 l 1,32,-1
 277 -126 l 1,33,-1
 277 -126 l 1,0,1
370 680 m 1,34,35
 455 680 455 680 521.5 641 c 128,-1,36
 588 602 588 602 623 529 c 1,37,-1
 541 499 l 1,38,39
 518 544 518 544 474.5 572.5 c 128,-1,40
 431 601 431 601 365 601 c 0,41,42
 321 601 321 601 282.5 584 c 128,-1,43
 244 567 244 567 215.5 533.5 c 128,-1,44
 187 500 187 500 171 450 c 128,-1,45
 155 400 155 400 155 335 c 0,46,47
 155 272 155 272 170.5 222.5 c 128,-1,48
 186 173 186 173 214.5 138.5 c 128,-1,49
 243 104 243 104 282 85.5 c 128,-1,50
 321 67 321 67 368 67 c 0,51,52
 434 67 434 67 478 95 c 128,-1,53
 522 123 522 123 545 169 c 1,54,-1
 627 139 l 1,55,56
 591 64 591 64 521 26 c 128,-1,57
 451 -12 451 -12 362 -12 c 0,58,59
 290 -12 290 -12 234 13.5 c 128,-1,60
 178 39 178 39 139 85 c 128,-1,61
 100 131 100 131 79.5 195 c 128,-1,62
 59 259 59 259 59 335 c 0,63,64
 59 413 59 413 81 476.5 c 128,-1,65
 103 540 103 540 143.5 585.5 c 128,-1,66
 184 631 184 631 241.5 655.5 c 128,-1,67
 299 680 299 680 370 680 c 1,68,-1
 370 680 l 1,69,-1
 370 680 l 1,34,35
EndSplineSet
Validated: 5
EndChar

StartChar: ccedilla
Encoding: 231 231 217
Width: 512
GlyphClass: 1
Flags: W
LayerCount: 2
Fore
SplineSet
192 -126 m 1,0,1
 224 -140 224 -140 250 -140 c 256,2,3
 276 -140 276 -140 288.5 -129 c 128,-1,4
 301 -118 301 -118 301 -106 c 0,5,6
 301 -96 301 -96 292.5 -88.5 c 128,-1,7
 284 -81 284 -81 265 -81 c 0,8,9
 254 -81 254 -81 234 -86 c 0,10,11
 220 -90 220 -90 213 -83 c 128,-1,12
 206 -76 206 -76 206 -67 c 0,13,14
 206 -62 206 -62 209 -57 c 2,15,-1
 260 25 l 1,16,-1
 294 4 l 1,17,-1
 264 -45 l 1,18,19
 272 -43 272 -43 279.5 -42 c 128,-1,20
 287 -41 287 -41 294 -41 c 0,21,22
 329 -41 329 -41 346 -59.5 c 128,-1,23
 363 -78 363 -78 363 -102 c 0,24,25
 363 -116 363 -116 357 -130.5 c 128,-1,26
 351 -145 351 -145 339 -156 c 128,-1,27
 327 -167 327 -167 308.5 -174 c 128,-1,28
 290 -181 290 -181 266 -181 c 0,29,30
 227 -181 227 -181 178 -161 c 1,31,-1
 192 -126 l 1,32,-1
 192 -126 l 1,33,-1
 192 -126 l 1,0,1
290 504 m 1,34,35
 357 504 357 504 405 471 c 128,-1,36
 453 438 453 438 477 392 c 1,37,-1
 400 364 l 1,38,39
 383 394 383 394 352.5 412 c 128,-1,40
 322 430 322 430 284 430 c 0,41,42
 256 430 256 430 230 419 c 128,-1,43
 204 408 204 408 184.5 385.5 c 128,-1,44
 165 363 165 363 153 328.5 c 128,-1,45
 141 294 141 294 141 247 c 256,46,47
 141 200 141 200 153 165.5 c 128,-1,48
 165 131 165 131 185 108 c 128,-1,49
 205 85 205 85 230.5 73.5 c 128,-1,50
 256 62 256 62 284 62 c 0,51,52
 325 62 325 62 355 80.5 c 128,-1,53
 385 99 385 99 402 127 c 1,54,-1
 479 99 l 1,55,56
 451 51 451 51 399 19.5 c 128,-1,57
 347 -12 347 -12 281 -12 c 0,58,59
 228 -12 228 -12 185 7 c 128,-1,60
 142 26 142 26 112 60.5 c 128,-1,61
 82 95 82 95 66 142.5 c 128,-1,62
 50 190 50 190 50 246 c 256,63,64
 50 302 50 302 67 349 c 128,-1,65
 84 396 84 396 115 430.5 c 128,-1,66
 146 465 146 465 190.5 484.5 c 128,-1,67
 235 504 235 504 290 504 c 1,68,-1
 290 504 l 1,69,-1
 290 504 l 1,34,35
EndSplineSet
Validated: 5
EndChar

StartChar: Eth
Encoding: 208 208 262
Width: 712
GlyphClass: 1
Flags: W
LayerCount: 2
Fore
SplineSet
20 303 m 1,0,-1
 20 383 l 1,1,-1
 115 383 l 1,2,-1
 115 668 l 1,3,-1
 297 668 l 2,4,5
 377 668 377 668 443.5 651.5 c 128,-1,6
 510 635 510 635 559 596.5 c 128,-1,7
 608 558 608 558 635 494 c 128,-1,8
 662 430 662 430 662 335 c 0,9,10
 662 239 662 239 635 174.5 c 128,-1,11
 608 110 608 110 559 71.5 c 128,-1,12
 510 33 510 33 443.5 16.5 c 128,-1,13
 377 0 377 0 297 0 c 2,14,-1
 115 0 l 1,15,-1
 115 303 l 1,16,-1
 20 303 l 1,17,-1
 20 303 l 1,0,-1
209 303 m 1,18,-1
 209 79 l 1,19,-1
 295 79 l 2,20,21
 347 79 347 79 395.5 87 c 128,-1,22
 444 95 444 95 482 121.5 c 128,-1,23
 520 148 520 148 543 199 c 128,-1,24
 566 250 566 250 566 335 c 256,25,26
 566 420 566 420 543 470 c 128,-1,27
 520 520 520 520 482 546.5 c 128,-1,28
 444 573 444 573 395.5 581 c 128,-1,29
 347 589 347 589 295 589 c 2,30,-1
 209 589 l 1,31,-1
 209 383 l 1,32,-1
 349 383 l 1,33,-1
 349 303 l 1,34,-1
 209 303 l 1,35,-1
 209 303 l 1,18,-1
EndSplineSet
Validated: 5
EndChar

StartChar: one.tf
Encoding: 65551 -1 264
Width: 639
GlyphClass: 1
Flags: W
LayerCount: 2
Fore
SplineSet
109 571 m 1,0,1
 145 571 145 571 177.5 574.5 c 128,-1,2
 210 578 210 578 236.5 588.5 c 128,-1,3
 263 599 263 599 283 618 c 128,-1,4
 303 637 303 637 314 668 c 1,5,-1
 370 668 l 1,6,-1
 370 77 l 1,7,-1
 530 77 l 1,8,-1
 530 0 l 1,9,-1
 109 0 l 1,10,-1
 109 77 l 1,11,-1
 287 77 l 1,12,-1
 287 504 l 1,13,-1
 109 504 l 1,14,-1
 109 571 l 1,15,-1
 109 571 l 1,0,1
EndSplineSet
Validated: 5
Substitution2: "'pnum' Proportional Numbers lookup 4 subtable" one
EndChar

StartChar: ogonek.case
Encoding: 65560 -1 275
Width: 263
GlyphClass: 1
Flags: W
LayerCount: 2
Fore
SplineSet
110 0 m 1,0,-1
 210 0 l 1,1,2
 168 -15 168 -15 145.5 -31.5 c 128,-1,3
 123 -48 123 -48 123 -74 c 0,4,5
 123 -95 123 -95 137 -105 c 128,-1,6
 151 -115 151 -115 172 -115 c 0,7,8
 181 -115 181 -115 190.5 -113.5 c 128,-1,9
 200 -112 200 -112 210 -107 c 1,10,-1
 210 -161 l 1,11,12
 176 -173 176 -173 147 -173 c 0,13,14
 102 -173 102 -173 77.5 -148 c 128,-1,15
 53 -123 53 -123 53 -91 c 0,16,17
 53 -55 53 -55 71.5 -33 c 128,-1,18
 90 -11 90 -11 110 0 c 1,19,-1
 110 0 l 1,0,-1
EndSplineSet
Validated: 5
EndChar

StartChar: aogonek
Encoding: 261 261 277
Width: 526
GlyphClass: 1
Flags: W
LayerCount: 2
Fore
SplineSet
475 0 m 1,0,1
 424 -19 424 -19 406 -37.5 c 128,-1,2
 388 -56 388 -56 388 -75 c 0,3,4
 388 -95 388 -95 402 -105 c 128,-1,5
 416 -115 416 -115 437 -115 c 0,6,7
 446 -115 446 -115 455.5 -113.5 c 128,-1,8
 465 -112 465 -112 475 -107 c 1,9,-1
 475 -161 l 1,10,11
 441 -173 441 -173 412 -173 c 0,12,13
 367 -173 367 -173 342.5 -148 c 128,-1,14
 318 -123 318 -123 318 -91 c 0,15,16
 318 -60 318 -60 339.5 -34.5 c 128,-1,17
 361 -9 361 -9 398 0 c 1,18,-1
 398 0 l 1,19,-1
 475 0 l 1,0,1
373 306 m 1,20,21
 375 369 375 369 348 403 c 128,-1,22
 321 437 321 437 261 437 c 0,23,24
 216 437 216 437 187.5 416.5 c 128,-1,25
 159 396 159 396 151 360 c 1,26,-1
 70 384 l 1,27,28
 90 441 90 441 141.5 472.5 c 128,-1,29
 193 504 193 504 260 504 c 0,30,31
 363 504 363 504 409.5 456 c 128,-1,32
 456 408 456 408 457 303 c 2,33,-1
 458 187 l 2,34,35
 459 124 459 124 463.5 79.5 c 128,-1,36
 468 35 468 35 475 0 c 1,37,-1
 398 0 l 1,38,-1
 378 68 l 1,39,40
 355 30 355 30 315 9 c 128,-1,41
 275 -12 275 -12 209 -12 c 0,42,43
 174 -12 174 -12 143 -2.5 c 128,-1,44
 112 7 112 7 88.5 25.5 c 128,-1,45
 65 44 65 44 51.5 70.5 c 128,-1,46
 38 97 38 97 38 131 c 0,47,48
 38 175 38 175 62 205 c 128,-1,49
 86 235 86 235 129.5 254.5 c 128,-1,50
 173 274 173 274 235 285.5 c 128,-1,51
 297 297 297 297 373 306 c 1,52,-1
 373 306 l 1,53,-1
 373 306 l 1,20,21
131 133 m 1,54,55
 131 98 131 98 156.5 76.5 c 128,-1,56
 182 55 182 55 227 55 c 0,57,58
 256 55 256 55 283.5 62.5 c 128,-1,59
 311 70 311 70 332.5 87.5 c 128,-1,60
 354 105 354 105 367 134.5 c 128,-1,61
 380 164 380 164 380 208 c 2,62,-1
 380 239 l 1,63,64
 323 233 323 233 277 225.5 c 128,-1,65
 231 218 231 218 198.5 206 c 128,-1,66
 166 194 166 194 148.5 176.5 c 128,-1,67
 131 159 131 159 131 133 c 1,68,-1
 131 133 l 1,69,-1
 131 133 l 1,54,55
EndSplineSet
Validated: 37
EndChar

StartChar: eogonek
Encoding: 281 281 283
Width: 539
GlyphClass: 1
Flags: W
LayerCount: 2
Fore
SplineSet
279 504 m 1,0,1
 338 504 338 504 383 480.5 c 128,-1,2
 428 457 428 457 457.5 418 c 128,-1,3
 487 379 487 379 500.5 328.5 c 128,-1,4
 514 278 514 278 510 225 c 1,5,-1
 128 225 l 1,6,7
 130 178 130 178 145.5 146.5 c 128,-1,8
 161 115 161 115 183.5 96.5 c 128,-1,9
 206 78 206 78 232 70 c 128,-1,10
 258 62 258 62 281 62 c 0,11,12
 323 62 323 62 351.5 75 c 128,-1,13
 380 88 380 88 397 111 c 1,14,-1
 478 87 l 1,15,16
 447 38 447 38 391 11 c 0,17,18
 359 -8 359 -8 341.5 -27.5 c 128,-1,19
 324 -47 324 -47 324 -70 c 0,20,21
 324 -94 324 -94 338 -104.5 c 128,-1,22
 352 -115 352 -115 373 -115 c 0,23,24
 382 -115 382 -115 391.5 -113.5 c 128,-1,25
 401 -112 401 -112 411 -107 c 1,26,-1
 411 -161 l 1,27,28
 377 -173 377 -173 348 -173 c 0,29,30
 303 -173 303 -173 278.5 -147.5 c 128,-1,31
 254 -122 254 -122 254 -85 c 0,32,33
 254 -62 254 -62 262 -44 c 128,-1,34
 270 -26 270 -26 284 -12 c 1,35,36
 226 -12 226 -12 180 7 c 128,-1,37
 134 26 134 26 102.5 60.5 c 128,-1,38
 71 95 71 95 54.5 143 c 128,-1,39
 38 191 38 191 38 247 c 0,40,41
 38 306 38 306 56.5 353.5 c 128,-1,42
 75 401 75 401 107.5 434.5 c 128,-1,43
 140 468 140 468 184 486 c 128,-1,44
 228 504 228 504 279 504 c 1,45,-1
 279 504 l 1,0,1
421 292 m 1,46,47
 421 318 421 318 411 343.5 c 128,-1,48
 401 369 401 369 382.5 388.5 c 128,-1,49
 364 408 364 408 338 420 c 128,-1,50
 312 432 312 432 279 432 c 0,51,52
 251 432 251 432 225 424 c 128,-1,53
 199 416 199 416 179 399.5 c 128,-1,54
 159 383 159 383 145.5 356.5 c 128,-1,55
 132 330 132 330 129 292 c 1,56,-1
 421 292 l 1,57,-1
 421 292 l 1,46,47
EndSplineSet
Validated: 37
EndChar

StartChar: uni0326
Encoding: 806 806 296
Width: 0
GlyphClass: 4
Flags: W
LayerCount: 2
Fore
SplineSet
-226 -216 m 1,0,1
 -214 -216 -214 -216 -198 -214 c 128,-1,2
 -182 -212 -182 -212 -167 -205 c 128,-1,3
 -152 -198 -152 -198 -142 -184 c 128,-1,4
 -132 -170 -132 -170 -132 -147 c 0,5,6
 -132 -127 -132 -127 -143 -109.5 c 128,-1,7
 -154 -92 -154 -92 -182 -82 c 1,8,-1
 -122 -56 l 1,9,10
 -92 -72 -92 -72 -79 -95.5 c 128,-1,11
 -66 -119 -66 -119 -66 -143 c 0,12,13
 -66 -191 -66 -191 -99.5 -220.5 c 128,-1,14
 -133 -250 -133 -250 -186 -250 c 1,15,-1
 -226 -216 l 1,16,-1
 -226 -216 l 1,0,1
EndSplineSet
Validated: 5
EndChar

StartChar: Uogonek
Encoding: 370 370 307
Width: 690
GlyphClass: 1
Flags: W
LayerCount: 2
Fore
SplineSet
424 0 m 1,0,1
 382 -15 382 -15 359.5 -31.5 c 128,-1,2
 337 -48 337 -48 337 -74 c 0,3,4
 337 -95 337 -95 351 -105 c 128,-1,5
 365 -115 365 -115 386 -115 c 0,6,7
 395 -115 395 -115 404.5 -113.5 c 128,-1,8
 414 -112 414 -112 424 -107 c 1,9,-1
 424 -161 l 1,10,11
 390 -173 390 -173 361 -173 c 0,12,13
 316 -173 316 -173 291.5 -148 c 128,-1,14
 267 -123 267 -123 267 -91 c 0,15,16
 267 -55 267 -55 285.5 -33 c 128,-1,17
 304 -11 304 -11 324 0 c 1,18,-1
 324 0 l 1,19,-1
 424 0 l 1,0,1
170 272 m 2,20,21
 170 173 170 173 209.5 121 c 128,-1,22
 249 69 249 69 345 69 c 256,23,24
 441 69 441 69 480.5 121 c 128,-1,25
 520 173 520 173 520 272 c 2,26,-1
 520 668 l 1,27,-1
 614 668 l 1,28,-1
 614 279 l 2,29,30
 614 206 614 206 599.5 151.5 c 128,-1,31
 585 97 585 97 552.5 60.5 c 128,-1,32
 520 24 520 24 469 6 c 128,-1,33
 418 -12 418 -12 345 -12 c 256,34,35
 272 -12 272 -12 221 6 c 128,-1,36
 170 24 170 24 138 60.5 c 128,-1,37
 106 97 106 97 91 151.5 c 128,-1,38
 76 206 76 206 76 279 c 2,39,-1
 76 668 l 1,40,-1
 170 668 l 1,41,-1
 170 668 l 1,42,-1
 170 272 l 2,20,21
EndSplineSet
Validated: 5
EndChar

StartChar: uogonek
Encoding: 371 371 308
Width: 536
GlyphClass: 1
Flags: W
LayerCount: 2
Fore
SplineSet
68 180 m 1,0,-1
 68 497 l 1,1,-1
 152 497 l 1,2,-1
 152 205 l 2,3,4
 152 176 152 176 155.5 150 c 128,-1,5
 159 124 159 124 170 104.5 c 128,-1,6
 181 85 181 85 201.5 73.5 c 128,-1,7
 222 62 222 62 256 62 c 0,8,9
 316 62 316 62 349 103 c 128,-1,10
 382 144 382 144 382 224 c 2,11,-1
 382 497 l 1,12,-1
 466 497 l 1,13,-1
 466 0 l 1,14,15
 415 -19 415 -19 397 -37.5 c 128,-1,16
 379 -56 379 -56 379 -75 c 0,17,18
 379 -95 379 -95 393 -105 c 128,-1,19
 407 -115 407 -115 428 -115 c 0,20,21
 437 -115 437 -115 446.5 -113.5 c 128,-1,22
 456 -112 456 -112 466 -107 c 1,23,-1
 466 -161 l 1,24,25
 432 -173 432 -173 403 -173 c 0,26,27
 358 -173 358 -173 333.5 -148 c 128,-1,28
 309 -123 309 -123 309 -91 c 0,29,30
 309 -54 309 -54 333.5 -29 c 128,-1,31
 358 -4 358 -4 402 4 c 1,32,-1
 382 72 l 1,33,34
 361 36 361 36 325 12 c 128,-1,35
 289 -12 289 -12 227 -12 c 0,36,37
 184 -12 184 -12 153.5 2 c 128,-1,38
 123 16 123 16 104 41.5 c 128,-1,39
 85 67 85 67 76.5 102.5 c 128,-1,40
 68 138 68 138 68 180 c 1,41,-1
 68 180 l 1,0,-1
EndSplineSet
Validated: 5
EndChar

StartChar: Hbar
Encoding: 294 294 317
Width: 710
GlyphClass: 1
Flags: W
LayerCount: 2
Fore
SplineSet
624 504 m 1,0,-1
 624 0 l 1,1,-1
 530 0 l 1,2,-1
 530 303 l 1,3,-1
 180 303 l 1,4,-1
 180 0 l 1,5,-1
 86 0 l 1,6,-1
 86 504 l 1,7,-1
 10 504 l 1,8,-1
 10 583 l 1,9,-1
 86 583 l 1,10,-1
 86 668 l 1,11,-1
 180 668 l 1,12,-1
 180 583 l 1,13,-1
 530 583 l 1,14,-1
 530 668 l 1,15,-1
 624 668 l 1,16,-1
 624 583 l 1,17,-1
 700 583 l 1,18,-1
 700 504 l 1,19,-1
 624 504 l 1,0,-1
180 504 m 1,20,-1
 180 384 l 1,21,-1
 530 384 l 1,22,-1
 530 504 l 1,23,-1
 180 504 l 1,20,-1
EndSplineSet
Validated: 1
EndChar

StartChar: hbar
Encoding: 295 295 318
Width: 581
GlyphClass: 1
Flags: W
LayerCount: 2
Fore
SplineSet
189 548 m 1,0,-1
 189 421 l 1,1,2
 210 456 210 456 248 480 c 128,-1,3
 286 504 286 504 349 504 c 0,4,5
 394 504 394 504 425.5 490 c 128,-1,6
 457 476 457 476 476.5 451 c 128,-1,7
 496 426 496 426 504.5 391 c 128,-1,8
 513 356 513 356 513 314 c 2,9,-1
 513 0 l 1,10,-1
 429 0 l 1,11,-1
 429 289 l 2,12,13
 429 318 429 318 425.5 343.5 c 128,-1,14
 422 369 422 369 410.5 389 c 128,-1,15
 399 409 399 409 377.5 420.5 c 128,-1,16
 356 432 356 432 320 432 c 0,17,18
 259 432 259 432 224 390.5 c 128,-1,19
 189 349 189 349 189 269 c 2,20,-1
 189 0 l 1,21,-1
 105 0 l 1,22,-1
 105 548 l 1,23,-1
 20 548 l 1,24,-1
 20 615 l 1,25,-1
 105 615 l 1,26,-1
 105 668 l 1,27,-1
 189 668 l 1,28,-1
 189 615 l 1,29,-1
 349 615 l 1,30,-1
 349 548 l 1,31,-1
 189 548 l 1,32,-1
 189 548 l 1,0,-1
EndSplineSet
Validated: 5
EndChar

StartChar: uni0123
Encoding: 291 291 323
Width: 560
GlyphClass: 1
Flags: W
LayerCount: 2
Fore
SplineSet
405 523 m 1,0,1
 405 523 405 523 405 523 c 129,-1,2
 405 523 405 523 405 523 c 129,-1,3
 405 523 405 523 405 523 c 129,-1,4
 405 523 405 523 405 523 c 257,5,6
 405 523 405 523 405 523 c 129,-1,7
 405 523 405 523 405 523 c 1,8,-1
 405 523 l 1,9,10
 405 523 405 523 405 523 c 129,-1,11
 405 523 405 523 405 523 c 257,12,13
 405 523 405 523 405 523 c 129,-1,14
 405 523 405 523 405 523 c 1,15,-1
 405 523 l 1,16,-1
 405 523 l 1,17,-1
 405 523 l 1,0,1
248 504 m 1,18,19
 308 504 308 504 345.5 480.5 c 128,-1,20
 383 457 383 457 406 418 c 1,21,-1
 429 496 l 1,22,-1
 490 496 l 1,23,-1
 490 47 l 2,24,25
 490 10 490 10 487.5 -23.5 c 128,-1,26
 485 -57 485 -57 473 -85.5 c 128,-1,27
 461 -114 461 -114 436.5 -137 c 128,-1,28
 412 -160 412 -160 369 -176 c 0,29,30
 348 -184 348 -184 324 -188 c 128,-1,31
 300 -192 300 -192 274 -192 c 0,32,33
 244 -192 244 -192 213.5 -185.5 c 128,-1,34
 183 -179 183 -179 157 -165 c 128,-1,35
 131 -151 131 -151 111 -129 c 128,-1,36
 91 -107 91 -107 81 -76 c 1,37,-1
 165 -53 l 1,38,39
 172 -73 172 -73 184 -85.5 c 128,-1,40
 196 -98 196 -98 211 -105 c 128,-1,41
 226 -112 226 -112 242.5 -115 c 128,-1,42
 259 -118 259 -118 274 -118 c 0,43,44
 293 -118 293 -118 308 -115 c 128,-1,45
 323 -112 323 -112 330 -110 c 0,46,47
 353 -102 353 -102 367.5 -91 c 128,-1,48
 382 -80 382 -80 390.5 -63.5 c 128,-1,49
 399 -47 399 -47 402.5 -24.5 c 128,-1,50
 406 -2 406 -2 406 28 c 2,51,-1
 406 94 l 1,52,53
 383 55 383 55 345.5 32 c 128,-1,54
 308 9 308 9 248 9 c 0,55,56
 207 9 207 9 169 25 c 128,-1,57
 131 41 131 41 102 72.5 c 128,-1,58
 73 104 73 104 55.5 150 c 128,-1,59
 38 196 38 196 38 256 c 256,60,61
 38 316 38 316 55.5 362 c 128,-1,62
 73 408 73 408 102 439.5 c 128,-1,63
 131 471 131 471 169 487.5 c 128,-1,64
 207 504 207 504 248 504 c 1,65,-1
 248 504 l 1,66,-1
 248 504 l 1,18,19
129 256 m 1,67,68
 129 171 129 171 168 125 c 128,-1,69
 207 79 207 79 269 79 c 0,70,71
 297 79 297 79 322.5 89 c 128,-1,72
 348 99 348 99 367 120.5 c 128,-1,73
 386 142 386 142 397.5 175.5 c 128,-1,74
 409 209 409 209 409 256 c 256,75,76
 409 303 409 303 397.5 336.5 c 128,-1,77
 386 370 386 370 367 391 c 128,-1,78
 348 412 348 412 322.5 422 c 128,-1,79
 297 432 297 432 269 432 c 0,80,81
 207 432 207 432 168 386.5 c 128,-1,82
 129 341 129 341 129 256 c 1,83,-1
 129 256 l 1,84,-1
 129 256 l 1,67,68
EndSplineSet
Validated: 5
EndChar

StartChar: caron.salt
Encoding: 65561 -1 329
Width: 206
GlyphClass: 1
Flags: W
LayerCount: 2
Fore
SplineSet
53 495 m 1,0,1
 54 500 54 500 57 521 c 128,-1,2
 60 542 60 542 64 567.5 c 128,-1,3
 68 593 68 593 72 616.5 c 128,-1,4
 76 640 76 640 79 649 c 0,5,6
 81 657 81 657 89.5 667.5 c 128,-1,7
 98 678 98 678 115 678 c 0,8,9
 133 678 133 678 145 664.5 c 128,-1,10
 157 651 157 651 152 629 c 2,11,-1
 102 495 l 1,12,-1
 53 495 l 1,13,-1
 53 495 l 1,0,1
EndSplineSet
Validated: 37
EndChar

StartChar: dcroat
Encoding: 273 273 342
Width: 603
GlyphClass: 1
Flags: W
LayerCount: 2
Fore
SplineSet
251 504 m 1,0,1
 310 504 310 504 349.5 480.5 c 128,-1,2
 389 457 389 457 412 418 c 1,3,-1
 412 548 l 1,4,-1
 249 548 l 1,5,-1
 249 615 l 1,6,-1
 412 615 l 1,7,-1
 412 668 l 1,8,-1
 496 668 l 1,9,-1
 496 615 l 1,10,-1
 578 615 l 1,11,-1
 578 548 l 1,12,-1
 496 548 l 1,13,-1
 496 187 l 2,14,15
 496 162 496 162 498 114 c 128,-1,16
 500 66 500 66 513 0 c 1,17,-1
 434 0 l 1,18,-1
 412 75 l 1,19,20
 389 35 389 35 349.5 11.5 c 128,-1,21
 310 -12 310 -12 251 -12 c 0,22,23
 209 -12 209 -12 170 5.5 c 128,-1,24
 131 23 131 23 102 56 c 128,-1,25
 73 89 73 89 55.5 137 c 128,-1,26
 38 185 38 185 38 246 c 256,27,28
 38 307 38 307 55.5 355 c 128,-1,29
 73 403 73 403 102 436 c 128,-1,30
 131 469 131 469 170 486.5 c 128,-1,31
 209 504 209 504 251 504 c 1,32,-1
 251 504 l 1,0,1
132 246 m 1,33,34
 132 157 132 157 170.5 108.5 c 128,-1,35
 209 60 209 60 273 60 c 256,36,37
 337 60 337 60 375.5 108.5 c 128,-1,38
 414 157 414 157 414 246 c 256,39,40
 414 335 414 335 375.5 383.5 c 128,-1,41
 337 432 337 432 273 432 c 256,42,43
 209 432 209 432 170.5 383.5 c 128,-1,44
 132 335 132 335 132 246 c 1,45,-1
 132 246 l 1,33,34
EndSplineSet
Validated: 5
EndChar

StartChar: Scedilla
Encoding: 350 350 350
Width: 596
GlyphClass: 1
Flags: W
LayerCount: 2
Fore
SplineSet
220 -126 m 1,0,1
 252 -140 252 -140 278 -140 c 256,2,3
 304 -140 304 -140 316.5 -129 c 128,-1,4
 329 -118 329 -118 329 -106 c 0,5,6
 329 -96 329 -96 320.5 -88.5 c 128,-1,7
 312 -81 312 -81 293 -81 c 0,8,9
 282 -81 282 -81 262 -86 c 0,10,11
 248 -90 248 -90 241 -83 c 128,-1,12
 234 -76 234 -76 234 -67 c 0,13,14
 234 -62 234 -62 237 -57 c 2,15,-1
 288 25 l 1,16,-1
 322 4 l 1,17,-1
 292 -45 l 1,18,19
 300 -43 300 -43 307.5 -42 c 128,-1,20
 315 -41 315 -41 322 -41 c 0,21,22
 357 -41 357 -41 374 -59.5 c 128,-1,23
 391 -78 391 -78 391 -102 c 0,24,25
 391 -116 391 -116 385 -130.5 c 128,-1,26
 379 -145 379 -145 367 -156 c 128,-1,27
 355 -167 355 -167 336.5 -174 c 128,-1,28
 318 -181 318 -181 294 -181 c 0,29,30
 255 -181 255 -181 206 -161 c 1,31,-1
 220 -126 l 1,32,-1
 220 -126 l 1,33,-1
 220 -126 l 1,0,1
127 172 m 1,34,35
 136 145 136 145 153.5 125 c 128,-1,36
 171 105 171 105 194.5 92.5 c 128,-1,37
 218 80 218 80 245.5 73.5 c 128,-1,38
 273 67 273 67 300 67 c 0,39,40
 330 67 330 67 358.5 74.5 c 128,-1,41
 387 82 387 82 408.5 96.5 c 128,-1,42
 430 111 430 111 443.5 133.5 c 128,-1,43
 457 156 457 156 457 186 c 0,44,45
 457 209 457 209 448 226 c 128,-1,46
 439 243 439 243 419 256.5 c 128,-1,47
 399 270 399 270 366.5 281 c 128,-1,48
 334 292 334 292 286 302 c 0,49,50
 247 310 247 310 205 321.5 c 128,-1,51
 163 333 163 333 127.5 354.5 c 128,-1,52
 92 376 92 376 69 411 c 128,-1,53
 46 446 46 446 46 501 c 0,54,55
 46 543 46 543 67 576.5 c 128,-1,56
 88 610 88 610 122.5 633 c 128,-1,57
 157 656 157 656 201 668 c 128,-1,58
 245 680 245 680 291 680 c 0,59,60
 326 680 326 680 361 672.5 c 128,-1,61
 396 665 396 665 426.5 649.5 c 128,-1,62
 457 634 457 634 482 610.5 c 128,-1,63
 507 587 507 587 523 555 c 1,64,-1
 437 530 l 1,65,66
 417 565 417 565 375 583 c 128,-1,67
 333 601 333 601 287 601 c 0,68,69
 260 601 260 601 234 594.5 c 128,-1,70
 208 588 208 588 187.5 575 c 128,-1,71
 167 562 167 562 155 542.5 c 128,-1,72
 143 523 143 523 143 497 c 0,73,74
 143 469 143 469 157 451 c 128,-1,75
 171 433 171 433 195 421 c 128,-1,76
 219 409 219 409 250 401 c 128,-1,77
 281 393 281 393 315 386 c 0,78,79
 359 377 359 377 402 364 c 128,-1,80
 445 351 445 351 479 329 c 128,-1,81
 513 307 513 307 534.5 271.5 c 128,-1,82
 556 236 556 236 556 182 c 0,83,84
 556 136 556 136 534 99.5 c 128,-1,85
 512 63 512 63 475.5 38.5 c 128,-1,86
 439 14 439 14 392 1 c 128,-1,87
 345 -12 345 -12 296 -12 c 0,88,89
 255 -12 255 -12 214.5 -2.5 c 128,-1,90
 174 7 174 7 139.5 26.5 c 128,-1,91
 105 46 105 46 79 76 c 128,-1,92
 53 106 53 106 40 146 c 1,93,-1
 127 172 l 1,94,-1
 127 172 l 1,95,-1
 127 172 l 1,34,35
EndSplineSet
Validated: 5
EndChar

StartChar: scedilla
Encoding: 351 351 351
Width: 471
GlyphClass: 1
Flags: W
LayerCount: 2
Fore
SplineSet
164 -126 m 1,0,1
 196 -140 196 -140 222 -140 c 256,2,3
 248 -140 248 -140 260.5 -129 c 128,-1,4
 273 -118 273 -118 273 -106 c 0,5,6
 273 -96 273 -96 264.5 -88.5 c 128,-1,7
 256 -81 256 -81 237 -81 c 0,8,9
 226 -81 226 -81 206 -86 c 0,10,11
 192 -90 192 -90 185 -83 c 128,-1,12
 178 -76 178 -76 178 -67 c 0,13,14
 178 -62 178 -62 181 -57 c 2,15,-1
 232 25 l 1,16,-1
 266 4 l 1,17,-1
 236 -45 l 1,18,19
 244 -43 244 -43 251.5 -42 c 128,-1,20
 259 -41 259 -41 266 -41 c 0,21,22
 301 -41 301 -41 318 -59.5 c 128,-1,23
 335 -78 335 -78 335 -102 c 0,24,25
 335 -116 335 -116 329 -130.5 c 128,-1,26
 323 -145 323 -145 311 -156 c 128,-1,27
 299 -167 299 -167 280.5 -174 c 128,-1,28
 262 -181 262 -181 238 -181 c 0,29,30
 199 -181 199 -181 150 -161 c 1,31,-1
 164 -126 l 1,32,-1
 164 -126 l 1,33,-1
 164 -126 l 1,0,1
112 142 m 1,34,35
 118 120 118 120 130.5 104 c 128,-1,36
 143 88 143 88 160.5 78 c 128,-1,37
 178 68 178 68 198 63.5 c 128,-1,38
 218 59 218 59 239 59 c 0,39,40
 261 59 261 59 282 64 c 128,-1,41
 303 69 303 69 319.5 79 c 128,-1,42
 336 89 336 89 346 102.5 c 128,-1,43
 356 116 356 116 356 133 c 0,44,45
 356 167 356 167 332.5 184 c 128,-1,46
 309 201 309 201 274 210.5 c 128,-1,47
 239 220 239 220 198.5 227 c 128,-1,48
 158 234 158 234 123 248.5 c 128,-1,49
 88 263 88 263 64.5 290.5 c 128,-1,50
 41 318 41 318 41 367 c 0,51,52
 41 400 41 400 57.5 426 c 128,-1,53
 74 452 74 452 100.5 469.5 c 128,-1,54
 127 487 127 487 161.5 496 c 128,-1,55
 196 505 196 505 232 505 c 0,56,57
 291 505 291 505 343 480.5 c 128,-1,58
 395 456 395 456 418 404 c 1,59,-1
 339 375 l 1,60,61
 326 405 326 405 293.5 419.5 c 128,-1,62
 261 434 261 434 226 434 c 0,63,64
 207 434 207 434 189 429.5 c 128,-1,65
 171 425 171 425 157 417 c 128,-1,66
 143 409 143 409 134.5 396.5 c 128,-1,67
 126 384 126 384 126 368 c 0,68,69
 126 338 126 338 149.5 324 c 128,-1,70
 173 310 173 310 208 301.5 c 128,-1,71
 243 293 243 293 283.5 286 c 128,-1,72
 324 279 324 279 359 263 c 128,-1,73
 394 247 394 247 417.5 218 c 128,-1,74
 441 189 441 189 441 136 c 0,75,76
 441 101 441 101 424 73.5 c 128,-1,77
 407 46 407 46 378.5 27 c 128,-1,78
 350 8 350 8 314 -2 c 128,-1,79
 278 -12 278 -12 239 -12 c 0,80,81
 207 -12 207 -12 175 -4.5 c 128,-1,82
 143 3 143 3 115 18 c 128,-1,83
 87 33 87 33 65 56.5 c 128,-1,84
 43 80 43 80 31 112 c 1,85,-1
 112 142 l 1,86,-1
 112 142 l 1,87,-1
 112 142 l 1,34,35
EndSplineSet
Validated: 5
EndChar
